<?xml version="1.0" ?>
<svg version="1.1" encoding="iso-8859-1" baseProfile="full"
xmlns:dc="http://purl.org/dc/elements/1.1/"
xmlns:cc="http://creativecommons.org/ns#"
xmlns:rdf="http://www.w3.org/1999/02/22-rdf-syntax-ns#"
xmlns="http://www.w3.org/2000/svg"
xmlns:xlink="http://www.w3.org/1999/xlink"
xmlns:ev="http://www.w3.org/2001/xml-events"
xmlns:sodipodi="http://sodipodi.sourceforge.net/DTD/sodipodi-0.dtd"
xmlns:inkscape="http://www.inkscape.org/namespaces/inkscape"
inkscape:version="0.46"
inkscape:output_extension="org.inkscape.output.svg.inkscape"
viewBox="0 0 801 566" xml:space="preserve">
<title>MAGICS++ PLOT</title>
<metadata id="MAGICSmetadata">
<rdf:RDF><cc:Work rdf:about="">
	<dc:format>image/svg+xml</dc:format>
	<dc:title>MAGICS++ PLOT</dc:title>
	<dc:author>mofp on ad6-100.bullx</dc:author>
	<dc:date>Mon Feb 13 12:12:13 2023</dc:date>
	<dc:language>en-GB</dc:language>
	<dc:creator><cc:Agent><dc:title>Metview 5.13.2</dc:title></cc:Agent></dc:creator>
	<dc:publisher><cc:Agent>
	 <dc:title>Magics 4.9.4</dc:title>
	</cc:Agent></dc:publisher>
	<dc:coverage>Plot of meteorological data</dc:coverage>
</cc:Work></rdf:RDF>
</metadata>
<g id="page" transform="translate(0,565.657)" vector-effect="non-scaling-stroke">
<g id="Page0" inkscape:label="Page0">
</g>
<g inkscape:groupmode="layer" inkscape:label="Coastline" id="Coastline"><title>Coastline</title>
<g id="Page0" inkscape:label="Page0">
<g id="drawing" inkscape:label="drawing" transform="translate(5193.9,-351.365)">
</g>
</g>
</g>
<g inkscape:groupmode="layer" inkscape:label="PythonScript, line 0:11(BG)" id="PythonScript, line 0:11(BG)"><title>PythonScript, line 0:11(BG)</title>
<g id="Page0" inkscape:label="Page0">
<g id="drawing" inkscape:label="drawing" transform="translate(5193.9,-351.365)">
<g fill-rule="evenodd" stroke="none">
<path fill="rgb(180,241,241)" d="M-5131.73 264.243l1.43297 -1.46641l1.17827 -2.08385l0.884991 -0.987897l1.19628 -0.416769l1.14483 -0.267557l0.684326 -0.69976l0.99561 -2.05811l3.40361 -5.12472l1.98094 -2.06841l2.38742 -1.86774l2.58551 -1.45097l0.957024 -0.895284l0.378183 -1.32749l0.169792 -1.4201l0.427062 -1.32749l1.13196 -2.21762l1.69795 -2.13529l2.26907 -1.85231l10.0282 -5.97369l1.80342 -1.74426l2.67299 -3.91557l0.383323 -1.31719l0.509382 -0.205811l0.632874 -0.102906l0.563408 -0.329303l0.98275 -0.38075l4.39666 0.144072l1.21172 -0.267557l1.29661 -0.540255l1.02906 -0.833538l0.427062 -1.12682l0.174938 -0.694613l0.838685 -1.42525l0.277844 -0.689473l0.0205799 -0.617434l-0.136346 -0.452789l-0.0771792 -0.473369l0.192945 -0.648307l0.848972 -0.509382l0.391043 -0.746066l0.313864 -0.884991l0.607147 -0.884991l-0.640587 1.77513l-0.223824 0.427056l0.393616 1.29661l0.758932 -0.586561l0.355023 -1.98609l0.648307 -0.926151l1.72882 1.72882l0.859265 -0.36017l4.57417 -0.936444l0.787232 0.0771792l0.519675 0.128632l0.463075 0.0257264l0.607141 -0.231538l1.44069 -1.69795l0.285564 -0.246971l2.38999 -4.97036l0.668887 -0.895278l1.41496 0.267551l0.293284 1.50757l-0.447642 3.02029l0.67918 -0.40133l0.419342 -0.612294l0.357597 -0.704906l0.504235 -0.68432l0.576274 -0.457935l2.01181 -1.26574l0.936444 -1.08566l0.614861 -1.32234l0.34731 -1.42525l0.293284 -2.43887l1.02906 -2.28451l2.12758 -3.40104l0.540255 -1.26574l-0.630294 -1.1011l0.228964 -1.43039l0.833538 -2.46974l0.138919 -1.11138l1.97579 -6.44706l1.33521 -2.39256l0.144065 -0.416769l0.620014 -1.35321l0.234111 -1.47156l1.34292 -3.68403l0.725486 -1.08566l1.89604 -1.93978l0.540255 -1.12167l0.0848991 -1.52301l-0.406476 -2.82477l-0.854118 -2.20733l-0.205818 -0.349883l-1.38408 0.0823258l-0.715199 -0.0617459l-0.509382 -0.246971l-0.764079 -1.16798l-1.21943 -3.39075l-0.789805 -1.24516l-0.383323 -0.771792l-0.115766 -0.895284l0.0540261 -3.68403l-0.424489 -2.94311l-0.0257264 -0.823245l0.388469 -1.38923l0.100332 -0.854118l-0.293284 -0.38075l-0.102906 -0.257264l-0.802665 -1.08052l-0.195518 -0.174938l-0.0951922 -0.432203l-0.187798 -0.31901l-0.144072 -0.432203l0.0385928 -0.761506l0.316437 -0.694613l0.416769 -0.540261l0.146639 -0.571128l-0.491375 -0.776939l0.977604 -1.02906l0.99819 -0.293284l0.776939 -0.457929l0.308717 -1.48185l0.478515 -0.710053l1.04449 -0.473369l1.0445 -0.69976l0.457935 -1.36865l-3.75092 2.13015l-0.406476 0.308717l-0.164652 0.555694l-0.0385928 1.11653l-0.463075 0.200665l-2.0504 0.138925l-0.465649 0.529962l-0.108052 0.493948l-0.540255 1.53844l-0.537681 2.53149l-0.0874723 1.82658l0.385896 1.83173l1.92434 3.34959l0.144072 1.91919l-0.982757 12.3127l-0.668887 2.5675l-0.439922 0.689467l-1.73139 1.92949l-0.614867 0.401336l-1.01877 0.308717l-2.19189 1.26574l-0.910718 0.190378l-0.635447 -0.313864l-0.370463 -0.848978l-0.504235 -0.169792l-1.35321 0.149212l-0.452789 -0.154358l-0.805239 -0.617434l-0.337017 -1.03935l0.846405 -0.987897l1.88575 -1.27089l0.576274 -1.32749l0.282991 -0.951877l0.653453 -0.560841l1.70309 -0.185231l0.401336 0.262411l0.378176 0.540255l0.478515 0.488808l0.70748 0.0411597l0.604574 -0.36017l0.285564 -0.535114l-0.0463126 -0.648307l-0.375603 -0.689467l-0.282991 1.32749l-0.854118 -0.27785l-1.49214 -1.44583l-1.38666 0.159505l-1.26317 0.64316l-0.915864 0.282991l-0.355023 -0.884991l0.264984 -1.38923l1.18856 -2.70128l0.270131 -1.51786l0.236678 -0.782086l0.571128 -0.308717l0.720346 -0.138925l0.668887 -0.272697l0.478515 -0.493948l1.28632 -2.04783l-0.581421 0.154358l-0.32415 0.195518l-0.663747 0.689473l-0.524815 0.216098l-1.28118 -0.102906l-0.586561 0.0617459l-0.715199 0.488802l-0.560835 0.771792l-2.72958 7.03877l-4.31433 6.04572l-1.95007 2.10957l-2.05297 0.890138l-0.473369 0.828392l-0.473369 0.591708l-0.583994 0.344736l-0.604568 -0.0102931l-0.329303 -0.257264l-0.236684 -0.391043l-0.319004 -0.421916l-0.926157 -0.411623l-0.607141 0.473369l-0.221251 1.0445l0.221251 1.27089l0.241825 0.185231l1.72368 1.75454l0.221251 0.524821l0.0488796 0.715199l-0.074606 1.36865l-0.635447 0.576274l-1.45097 -0.195525l-2.66269 -1.04449l-2.67041 -2.26908l-0.931297 -0.524821l-0.818105 -0.802665l-0.370463 -0.288137l-0.396183 -0.113199l-1.12682 -0.154358l-0.594281 -0.164645l-2.408 -1.54359l-6.71461 -7.90832l-5.2199 -4.87259l-2.03699 -0.663196l-1.84545 -0.887628l-2.05247 0.0695985l-3.3472 -1.11201l-1.16541 -0.529962l-2.65754 -2.34626l-1.39438 -0.529968l-0.99561 0.0102931l-0.753786 -0.144065l-0.478515 -0.571128l-0.373036 -2.1353l-0.486229 -0.951884l-1.0342 -1.4767l-0.874698 -0.900425l-2.34368 -1.87803l-0.259837 -0.406476l-0.29843 -0.663747l-0.133779 -0.617434l0.241831 -0.277844l0.504242 0.123486l0.231538 0.267557l0.133779 0.298424l0.210952 0.174938l1.60791 0.385896l0.758926 0.0463126l0.337017 0.200665l0.318334 1.07894l0.822499 0.888715l1.57706 -0.0679483l2.2616 -0.819243l3.21887 -2.59432l2.46321 -1.22812l2.25861 -2.52451l0.476245 -3.7567l-0.891839 -1.91542l-0.503179 -1.97093l-0.190378 -0.514535l0.281043 -0.659593l0.683972 -0.136048l0.889822 -0.47653l0.187849 -1.5423l-0.177518 -1.60534l-1.7419 -6.72955l-0.951662 -2.66061l-0.411623 -1.16799l-0.555694 -0.972457l-0.596854 -0.725486l-0.751213 -1.17313l-1.48699 -3.6686l-0.869552 -1.12168l-0.288137 -0.812958l-0.0951922 -0.926151l0.254697 -0.72034l2.21683 -1.55936l-0.271907 -1.47636l0.0154333 -1.83173l0.570628 -0.525479l0.752148 -0.683884l0.774808 -0.195885l1.04373 0.00780201l0.273608 -0.81875l-0.0321628 -0.90277l0.135049 -1.23102l0.323992 -1.09201l-0.285001 -1.45245l0.270232 -0.903516l1.09716 -0.533287l-0.100743 -1.54198l-1.88314 -2.60682l-3.76497 -4.50849l-3.07033 -5.40379l-1.33391 -3.22369l-0.817612 -1.84958l0.415347 -1.30306l0.763263 -0.761367l0.886799 -0.750075l0.821993 -0.889765l0.48308 -0.618705l0.479267 -0.615651l0.817587 -0.886148l0.753261 -0.889379l0.206077 -0.547393l0.684175 -0.273741l0.890587 0.271414l0.889885 -0.0013467l0.889347 -0.547469l0.820116 -0.341752l0.957517 0.203813l0.751428 -0.273191l0.751895 -0.273633l-0.134638 0.553842l1.16162 0.545623l0.956411 0.0678788l0.753179 -0.652948l0.478129 -0.204907l0.477883 -0.614304l0.682828 -0.204838l0.614545 0.887261l0.546343 0.136333l1.16084 0.136175l1.57024 -0.614538l1.36577 -1.22946l1.4334 -1.50178l0.909535 -3.93405l0.239258 -1.23487l0.830162 -4.08726l1.16021 -3.1393l1.43283 -2.86563l0.785658 -1.84489l0.307484 -0.340798l0.546318 -0.409922l0.887564 -0.1367l0.818092 -0.271762l0.136124 1.63837l0.886041 1.29745l1.70877 0.749309l1.63921 0.20437l3.40562 0.0702308v-0.750707l-1.76737 -0.480254l-1.91105 -0.409783h-1.29772l-0.887457 -0.682651l-0.68291 -1.77464l-0.823271 -1.49621l-0.886629 -0.341588l-0.476878 -0.683631l-0.0691307 -1.49926l-0.68016 -1.77981l-0.194728 -1.82948l-0.896694 -1.99592l-1.16067 -1.3644l-0.750296 -2.66917l0.683663 -0.894867l1.29576 -0.124333l2.05049 -1.64809l1.97613 -2.98851l0.640005 -1.11105l0.162078 -0.854125l0.562731 -1.37968l0.546938 -1.02332l1.36403 -0.47837l0.819591 -1.29665l0.82193 -1.36462l1.15986 1.02389l1.36743 -0.682329l1.50346 -1.1606l1.77634 -1.29737l3.76275 -4.09841l3.00371 -3.87395l0.707891 -0.864437l0.362332 -0.442464l0.447642 -1.25545l0.128632 -0.776939l0.313864 -0.267557l0.414196 -0.136346l1.31576 -0.417926l0.955329 -2.38883l0.545547 -2.11601l0.363154 -3.32l-0.0900456 -1.52044l-0.493948 -2.69356l-0.144065 -4.78513l0.576268 -1.66965l0.0205862 -0.545401l0.159499 -0.236684l0.684326 0.329303l0.29071 0.313864l0.239258 0.465649l0.293284 0.949304h0.470789l0.0951922 -0.792372l0.648307 -1.23745l0.159505 -0.558261l-0.149218 -0.800098l-0.367883 -0.555688l-0.856692 -0.841258l-1.50243 -2.46202l-0.450209 -1.25031l-0.167225 -1.27346l0.180085 -1.39952l0.437349 -0.725486l0.560841 -0.596854l0.547975 -1.00591l0.123486 -1.31977l-0.342163 -1.28118l-0.452789 -1.10366l-0.432203 -1.80858l-0.571128 -0.753786l-0.887564 -0.475936l-1.14226 -0.164652l-0.810385 -0.308717l-0.560835 -0.761506l-0.365316 -0.977604l-0.208385 -0.972464l-0.0231531 -2.72186l0.717766 -2.67041l1.35579 -2.26393l1.87289 -1.48699l1.08051 0.545401l0.926157 0.110625l2.09671 -0.185231l0.941591 -0.270131l1.24259 -1.15769l0.856692 -0.262411l0.903004 -0.144072l1.58475 -0.620007l2.00409 -0.33959l1.19114 -0.895278l0.792372 -0.200671l0.468222 -0.234111l1.92434 -1.52815l0.455362 -0.478509l0.810379 -1.17827l0.463082 -0.463075l1.505 -0.684326l3.78436 -1.19885l1.65678 -1.18084l0.33959 0.648307l0.0257264 0.578841l-1.27089 3.95673l0.293284 0.944164l0.524821 0.553121l0.66374 0.457929l0.715199 0.67146l0.848972 1.71596l0.445069 0.483662l-1.0342 -2.83506l-0.815532 -0.692046l-0.264984 -0.40133l0.00257327 -0.352456l0.324157 -0.581414l0.0617396 -0.360176l-0.0951858 -1.58475l0.141498 -1.20399l0.553115 -0.887564l1.12682 -0.635447l2.72443 0.782086l2.98942 -1.69023l4.29632 -3.92071l1.35836 -0.35245l4.45068 0.35245l0.550548 -0.131205l1.44069 -0.565981l0.617434 -0.128632l1.72882 0.030873l0.797519 -0.131205l0.710053 -0.370463l1.52043 0.802665l1.79056 -0.249544l1.81372 -0.627727l1.60533 -0.357597l1.16541 -0.61744l4.77226 -6.321l0.923584 -0.504235l1.55902 0.535108l1.23487 1.02906l0.794952 1.29404l0.424483 1.54359l0.131205 1.78284l1.20915 -0.640587l0.6586 -0.939017l0.277844 -1.18342l0.200665 -2.77846l0.391043 -0.725486l0.560841 -0.578847l0.668887 -0.959597l0.208385 0.540255l0.370463 0.249551l0.511955 -0.0385928l0.632874 -0.319004l0.571128 -0.535114l0.0900393 -0.447642l-0.0282997 -0.496522l0.231538 -0.679174l1.03164 -1.17056l1.05221 -0.169798l2.66784 0.908144l-0.460509 -0.913291l-1.13196 -0.298424l-1.32234 -0.133779l-1.01362 -0.421916l-0.439922 -0.887564l0.218671 -0.833538l0.555694 -0.738346l2.36169 -2.3514l0.365316 -0.838685l-0.0282997 -0.957024l-0.223818 -0.859265l0.118339 -0.694613l1.00076 -0.473369l-0.424489 -1.13196l-0.782086 -0.674033l-0.838685 -0.535114l-0.586561 -0.717766l-0.0720327 -0.964744l0.133772 -1.19885l0.0102931 -1.19885l-0.465649 -0.957024l-0.403909 -0.113199l-0.815525 0.388476l-1.23954 0.557401l-0.526819 -0.614595l-0.643856 -0.585271l-0.819616 -0.117068l-0.614684 -0.555973l-1.37643 -0.760968l-0.565362 -0.271503l-0.875982 -0.551256h-140.021v366.882l2.1725 -1.47876z
M-4993.36 -79.1441L-4994.31 -80.1886L-4994.52 -81.3591L-4993.59 -82.72L-4988.59 -86.8826L-4988.58 -86.2806L-4988.49 -85.8587L-4988.19 -85.1126L-4988.13 -82.9927L-4988.44 -80.3866L-4989.27 -78.7324L-4990.78 -79.4631L-4991.39 -78.753L-4992.08 -78.1665L-4993.36 -79.1441z
M-5050.27 167.527L-5050.56 166.089L-5049.7 163.693L-5048.35 160.241L-5046.63 157.173L-5045.96 158.802L-5044.42 159.377L-5043.65 160.718L-5045 162.732L-5047.2 163.883L-5047.49 166.663L-5049.02 167.622L-5050.27 167.527z
M-5072.45 191.709L-5073.94 191.324L-5074.85 190.845L-5075.22 189.449L-5074.84 187.207L-5074.61 179.614L-5074.39 178.759L-5072.26 174.838L-5071.35 172.281L-5070.45 171.633L-5066.6 170.516L-5063.15 168.803L-5061.82 168.355L-5058.95 168.448L-5054.6 171.128L-5051.89 171.813L-5051.99 172.301L-5052.17 172.754L-5052.42 173.166L-5052.75 173.541L-5053.46 174.133L-5056.64 175.502L-5056.84 176.057L-5057.73 176.906L-5057.93 177.246L-5058.31 178.219L-5058.83 179.191L-5059.36 179.742L-5059.49 179.752L-5060.16 180.902L-5060.92 182.42L-5061.72 183.862L-5062.14 184.886L-5063.16 185.304L-5064 186.253L-5063.96 187.733L-5064.92 188.638L-5065.31 189.548L-5066.32 190.999L-5068.58 190.773L-5069.84 191.509L-5070.91 191.833L-5072.45 191.709"/>
<path fill="rgb(180,241,241)" d="M-5131.82 322.998l-0.275441 -1.35181l0.545521 -0.931108l1.0011 0.130244l1.12618 -0.62853l1.04656 1.06806l1.88513 -0.149857l0.958959 -1.39173l0.267779 -2.22293l-1.36987 -3.00682l-2.08995 -2.13898l-1.98089 -1.49348l-1.50049 -2.24934l-1.03448 -1.89161l-0.663778 -0.882127v17.2235h2.1046l-0.0209213 -0.0834702"/>
</g>
<g stroke-width="2px" stroke="rgb(0,0,255)" fill="none">
<path d="M-5065.31 189.548l-1.00727 1.45048l-2.26256 -0.2259l-1.2606 0.735777l-1.07279 0.324154l-1.54102 -0.123487l-1.48442 -0.385897l-0.908145 -0.478513l-0.373907 -1.39614l0.382863 -2.24147l0.227262 -7.5937l0.224286 -0.85499l2.13015 -3.92072l0.902999 -2.55721l0.902999 -0.648307l3.84611 -1.11653l3.45764 -1.71338l1.32749 -0.447641l2.8685 0.0926153l4.3452 2.6807l2.71672 0.684324l-0.100333 0.488803l-0.177513 0.452786l-0.254692 0.411624l-0.331872 0.375607l-0.704906 0.591709l-3.17979 1.36865l-0.200667 0.555692l-0.890136 0.848974l-0.203239 0.33959l-0.383325 0.972461l-0.519675 0.972461l-0.52482 0.550547l-0.133778 0.0102906l-0.670685 1.15041l-0.759105 1.51779l-0.797174 1.44192l-0.417616 1.02455l-1.02573 0.417798l-0.835778 0.949013l0.0384634 1.4798l-0.963234 0.904647l-0.385897 0.910717"/>
<path d="M-5047.49 166.663l-1.53475 0.959051l-1.24734 -0.0953664l-0.288418 -1.43761l0.862545 -2.39666l1.34185 -3.45149l1.72579 -3.06847l0.672275 1.62956l1.53548 0.574241l0.768202 1.34166l-1.34257 2.01393l-2.20635 1.15135l-0.286711 2.77981"/>
<path d="M-4988.44 -80.3867l-0.836111 1.65421l-1.51014 -0.730632l-0.604572 0.710051l-0.692042 0.586564l-1.28118 -0.977606l-0.944162 -1.0445l-0.210957 -1.17055l0.926153 -1.36093l5.00123 -4.16254l0.0102906 0.602l0.0874701 0.421914l0.298427 0.746068l0.0617435 2.11986l-0.306145 2.60609"/>
<path d="M-5131.82 322.998l-0.275445 -1.35181l0.545522 -0.931108l1.0011 0.130245l1.12618 -0.628531l1.04656 1.06806l1.88513 -0.149855l0.958956 -1.39173l0.267782 -2.22293l-1.36988 -3.00682l-2.08995 -2.13898l-1.98089 -1.49348l-1.50049 -2.24934l-1.03448 -1.89161"/>
<path d="M-5131.73 264.243l1.43296 -1.46641l1.17827 -2.08384l0.884991 -0.987897l1.19628 -0.416769l1.14483 -0.267555l0.684324 -0.69976l0.995615 -2.05812l3.40361 -5.12471l1.98094 -2.06841l2.38742 -1.86774l2.58551 -1.45097l0.957025 -0.895282l0.378179 -1.32749l0.169795 -1.4201l0.42706 -1.32749l1.13197 -2.21762l1.69795 -2.1353l2.26908 -1.85231l10.0282 -5.97369l1.80343 -1.74426l2.67298 -3.91557l0.383325 -1.3172l0.509384 -0.205812l0.632871 -0.102906l0.56341 -0.329299l0.982752 -0.380752l4.39666 0.144068l1.21172 -0.267555l1.29661 -0.540256l1.02906 -0.833538l0.42706 -1.12682l0.17494 -0.694615l0.838683 -1.42525l0.277846 -0.68947l0.0205812 -0.617436l-0.13635 -0.452786l-0.0771794 -0.473367l0.192949 -0.648307l0.848974 -0.509384l0.391043 -0.746068l0.313863 -0.884991l0.607145 -0.884991l-0.640589 1.77513l-0.22382 0.42706l0.393615 1.29661l0.758931 -0.586564l0.355025 -1.98608l0.648307 -0.926153l1.72882 1.72882l0.859264 -0.360171l4.57417 -0.936444l0.78723 0.0771794l0.519675 0.128632l0.463077 0.0257265l0.607145 -0.231538l1.44068 -1.69795l0.285564 -0.246974l2.38999 -4.97036l0.668889 -0.895282l1.41496 0.267555l0.293282 1.50757l-0.447641 3.02029l0.679179 -0.401333l0.419342 -0.61229l0.357598 -0.704906l0.504239 -0.684324l0.576273 -0.457931l2.01181 -1.26574l0.936444 -1.08566l0.614863 -1.32234l0.347307 -1.42525l0.293282 -2.43887l1.02906 -2.28451l2.12758 -3.40104l0.540256 -1.26574l-0.630299 -1.10109l0.228966 -1.43039l0.833538 -2.46974l0.138923 -1.11138l1.97579 -6.44706l1.3352 -2.39256l0.144068 -0.416769l0.620008 -1.35321l0.234111 -1.47155l1.34292 -3.68403l0.725487 -1.08566l1.89604 -1.93978l0.540256 -1.12167l0.0848974 -1.52301l-0.406478 -2.82477l-0.854119 -2.20733l-0.205812 -0.34988l-1.38408 0.0823247l-0.715196 -0.0617435l-0.509384 -0.246974l-0.764076 -1.16798l-1.21944 -3.39075l-0.789803 -1.24516l-0.383325 -0.771794l-0.115769 -0.895282l0.0540256 -3.68403l-0.424487 -2.94311l-0.0257265 -0.823247l0.38847 -1.38923l0.100333 -0.854119l-0.293282 -0.380752l-0.102906 -0.257265l-0.802666 -1.08051l-0.195521 -0.17494l-0.0951879 -0.432205l-0.187803 -0.319008l-0.144068 -0.432205l0.0385897 -0.761504l0.316436 -0.694615l0.416769 -0.540256l0.146641 -0.571128l-0.491376 -0.77694l0.977606 -1.02906l0.998187 -0.293282l0.77694 -0.457931l0.308718 -1.48185l0.478513 -0.710051l1.0445 -0.473367l1.0445 -0.69976l0.457931 -1.36865l-3.75092 2.13015l-0.406478 0.308718l-0.164649 0.555692l-0.0385897 1.11653l-0.463077 0.200667l-2.0504 0.138923l-0.465649 0.529966l-0.108051 0.493948l-0.540256 1.53844l-0.537683 2.53149l-0.0874701 1.82658l0.385897 1.83173l1.92434 3.34959l0.144068 1.9192l-0.982752 12.3127l-0.668888 2.5675l-0.439923 0.68947l-1.73139 1.92949l-0.614863 0.401333l-1.01877 0.308718l-2.1919 1.26574l-0.910717 0.190376l-0.635444 -0.313863l-0.370461 -0.848974l-0.504239 -0.169795l-1.35321 0.149214l-0.452786 -0.154359l-0.805239 -0.617436l-0.337017 -1.03935l0.846401 -0.987897l1.88575 -1.27089l0.576273 -1.32749l0.282991 -0.95188l0.653453 -0.560837l1.70309 -0.185231l0.401333 0.26241l0.378179 0.540256l0.478513 0.488803l0.707478 0.0411624l0.604572 -0.360171l0.285564 -0.535111l-0.0463077 -0.648307l-0.375607 -0.68947l-0.282991 1.32749l-0.854119 -0.277846l-1.49214 -1.44583l-1.38666 0.159504l-1.26317 0.643162l-0.915863 0.282991l-0.355025 -0.884991l0.264983 -1.38923l1.18856 -2.70128l0.270128 -1.51786l0.236684 -0.782085l0.571128 -0.308718l0.720341 -0.138923l0.668888 -0.272701l0.478513 -0.493948l1.28632 -2.04783l-0.581418 0.154359l-0.324154 0.195521l-0.663743 0.68947l-0.52482 0.216102l-1.28118 -0.102906l-0.586564 0.0617436l-0.715196 0.488803l-0.560837 0.771794l-2.72958 7.03877l-4.31433 6.04572l-1.95007 2.10957l-2.05297 0.890136l-0.473367 0.828393l-0.473367 0.591709l-0.583991 0.344735l-0.604572 -0.0102906l-0.329299 -0.257265l-0.236684 -0.391043l-0.319008 -0.421914l-0.926153 -0.411624l-0.607145 0.473367l-0.221248 1.0445l0.221248 1.27089l0.241829 0.185231l1.72367 1.75455l0.221248 0.52482l0.0488803 0.715196l-0.0746068 1.36865l-0.635444 0.576273l-1.45097 -0.195521l-2.66269 -1.0445l-2.67041 -2.26908l-0.931299 -0.52482l-0.818102 -0.802666l-0.370461 -0.288137l-0.396188 -0.113196l-1.12682 -0.154359l-0.594282 -0.164649l-2.408 -1.54359l-6.71461 -7.90832l-5.2199 -4.8726l-2.03698 -0.663196l-1.84545 -0.887626l-2.05248 0.0695985l-3.3472 -1.11201l-1.16541 -0.529966l-2.65755 -2.34626l-1.39438 -0.529965l-0.995615 0.0102906l-0.753786 -0.144068l-0.478513 -0.571128l-0.373034 -2.1353l-0.48623 -0.95188l-1.0342 -1.4767l-0.8747 -0.900427l-2.34368 -1.87803l-0.259837 -0.406478l-0.298427 -0.663743l-0.133778 -0.617436l0.241829 -0.277846l0.504239 0.123487l0.231538 0.267555l0.133778 0.298427l0.210957 0.17494l1.60791 0.385897l0.758931 0.0463077l0.337017 0.200667l0.318334 1.07894l0.822498 0.88871l1.57706 -0.0679442l2.2616 -0.819242l3.21887 -2.59433l2.46321 -1.22812l2.25861 -2.52451l0.476247 -3.75669l-0.891835 -1.91542l-0.503183 -1.97093l-0.190376 -0.51453l0.281045 -0.659594l0.683968 -0.136051l0.889823 -0.476526l0.187846 -1.54231l-0.177513 -1.60533l-1.7419 -6.72955l-0.951661 -2.66062l-0.411624 -1.16798l-0.555692 -0.972461l-0.596854 -0.725487l-0.751213 -1.17313l-1.48699 -3.6686l-0.869555 -1.12167l-0.288137 -0.812957l-0.0951879 -0.926153l0.254692 -0.720341l2.21683 -1.55936l-0.271908 -1.47637l0.0154358 -1.83173l0.570624 -0.525479l0.752148 -0.683883l0.774813 -0.195883l1.04373 0.0077993l0.273609 -0.818753l-0.0321624 -0.90277l0.135047 -1.23102l0.323993 -1.09201l-0.285001 -1.45245l0.270233 -0.903516l1.09716 -0.533285l-0.100743 -1.54198l-1.88314 -2.60683l-3.76496 -4.50849l-3.07033 -5.40379l-1.33391 -3.2237l-0.817608 -1.84958l0.415347 -1.30306l0.763259 -0.761369l0.886799 -0.750072l0.821997 -0.889762l0.483081 -0.618705l0.479268 -0.615653l0.817584 -0.886146l0.753262 -0.889383l0.206075 -0.547389l0.684173 -0.273743l0.890588 0.271413l0.889888 -0.0013474l0.889349 -0.547464l0.820112 -0.341757l0.957515 0.203817l0.751432 -0.273193l0.751892 -0.273636l-0.134638 0.553842l1.16162 0.545625l0.956413 0.0678786l0.753176 -0.652946l0.478131 -0.204911l0.477882 -0.614302l0.682831 -0.204837l0.614543 0.88726l0.546345 0.136336l1.16083 0.136175l1.57025 -0.614543l1.36577 -1.22946l1.43339 -1.50178l0.909539 -3.93405l0.239256 -1.23487l0.830163 -4.08726l1.1602 -3.1393l1.43282 -2.86563l0.785662 -1.84489l0.30748 -0.340796l0.546316 -0.409923l0.887564 -0.136699l0.818096 -0.271763l0.136121 1.63838l0.886046 1.29745l1.70876 0.749309l1.63921 0.204372l3.40562 0.0702286l0.000689157 -0.750702l-1.76737 -0.480259l-1.91105 -0.409779l-1.29772 0.000362471l-0.887453 -0.682646l-0.682909 -1.77464l-0.823273 -1.49621l-0.886632 -0.34159l-0.476873 -0.683633l-0.0691307 -1.49925l-0.680163 -1.77981l-0.194726 -1.82948l-0.896692 -1.99593l-1.16067 -1.3644l-0.750298 -2.66917l0.683664 -0.894865l1.29576 -0.124337l2.05049 -1.64809l1.97613 -2.9885l0.640009 -1.11106l0.162077 -0.854119l0.56273 -1.37968l0.546939 -1.02332l1.36403 -0.478365l0.819588 -1.29665l0.82193 -1.36462l1.15986 1.02389l1.36742 -0.682328l1.50346 -1.1606l1.77634 -1.29737l3.76275 -4.09841l3.00371 -3.87395l0.70789 -0.864443l0.362332 -0.442463l0.447641 -1.25545l0.128632 -0.77694l0.313863 -0.267555l0.414196 -0.13635l1.31577 -0.417926l0.955327 -2.38883l0.545548 -2.11601l0.363153 -3.32l-0.0900426 -1.52044l-0.493948 -2.69356l-0.144068 -4.78513l0.576273 -1.66965l0.0205812 -0.545401l0.159504 -0.236684l0.684324 0.329299l0.290709 0.313863l0.239256 0.465649l0.293282 0.949307l0.470795 0l0.095188 -0.792376l0.648307 -1.23744l0.159504 -0.558265l-0.149214 -0.800094l-0.367889 -0.555692l-0.856692 -0.841256l-1.50243 -2.46202l-0.450213 -1.25031l-0.167222 -1.27346l0.180085 -1.39952l0.43735 -0.725487l0.560837 -0.596854l0.547974 -1.00591l0.123487 -1.31977l-0.342162 -1.28118l-0.452786 -1.10367l-0.432205 -1.80857l-0.571128 -0.753786l-0.887564 -0.47594l-1.14226 -0.164649l-0.810384 -0.308718l-0.560837 -0.761504l-0.365316 -0.977606l-0.208384 -0.972461l-0.0231538 -2.72186l0.717769 -2.67041l1.35579 -2.26393l1.87289 -1.48699l1.08051 0.545401l0.926153 0.110624l2.09671 -0.185231l0.941589 -0.270128l1.24259 -1.15769l0.856692 -0.26241l0.902999 -0.144068l1.58475 -0.620008l2.00409 -0.339589l1.19114 -0.895282l0.792376 -0.200667l0.468222 -0.234111l1.92434 -1.52815l0.455359 -0.478513l0.810384 -1.17827l0.463077 -0.463077l1.505 -0.684324l3.78437 -1.19885l1.65679 -1.18085l0.33959 0.648307l0.0257265 0.578846l-1.27089 3.95673l0.293282 0.944162l0.52482 0.553119l0.663743 0.457931l0.715196 0.671461l0.848974 1.71596l0.445068 0.483658l-1.0342 -2.83506l-0.815529 -0.692042l-0.264983 -0.401333l0.00257264 -0.352453l0.324154 -0.581418l0.0617436 -0.360171l-0.095188 -1.58475l0.141496 -1.204l0.553119 -0.887564l1.12682 -0.635444l2.72443 0.782085l2.98942 -1.69023l4.29632 -3.92072l1.35836 -0.352453l4.45068 0.352453l0.550547 -0.131205l1.44068 -0.565983l0.617436 -0.128632l1.72882 0.0308718l0.797521 -0.131205l0.710051 -0.370461l1.52044 0.802666l1.79056 -0.249547l1.81372 -0.627726l1.60533 -0.357598l1.16541 -0.617436l4.77226 -6.321l0.923581 -0.504239l1.55902 0.535111l1.23487 1.02906l0.794948 1.29404l0.424487 1.54359l0.131205 1.78285l1.20914 -0.640589l0.658598 -0.939017l0.277846 -1.18342l0.200667 -2.77846l0.391043 -0.725487l0.560837 -0.578846l0.668888 -0.959598l0.208384 0.540256l0.370461 0.249547l0.511957 -0.0385897l0.632871 -0.319008l0.571128 -0.535111l0.0900426 -0.447641l-0.0282991 -0.496521l0.231538 -0.679179l1.03163 -1.17055l1.05221 -0.169795l2.66784 0.908145l-0.460504 -0.91329l-1.13197 -0.298427l-1.32234 -0.133778l-1.01362 -0.421914l-0.439923 -0.887564l0.218675 -0.833538l0.555692 -0.73835l2.36169 -2.3514l0.365316 -0.838683l-0.0282991 -0.957025l-0.22382 -0.859264l0.118342 -0.694615l1.00076 -0.473367l-0.424487 -1.13197l-0.782085 -0.674034l-0.838683 -0.535111l-0.586564 -0.717769l-0.0720342 -0.964743l0.133778 -1.19885l0.0102906 -1.19885l-0.465649 -0.957025l-0.403906 -0.113196l-0.815529 0.38847l-1.23954 0.557407l-0.52682 -0.614598l-0.643858 -0.585272l-0.819616 -0.117064l-0.614682 -0.555975l-1.37643 -0.760967l-0.565357 -0.271502"/>
</g>
</g>
</g>
</g>
<g id="singlelayer" inkscape:label="singlelayer">
<g id="drawing" inkscape:label="drawing" transform="translate(5193.9,-351.365)">
<g fill-rule="evenodd" stroke="none">
<path fill="rgb(254,233,0)" d="M-5067.36 284.403v-17.7752h-8.83585v-17.7752h8.83585v-8.8876h17.6717v-17.7752h8.83585v-17.7752h-8.83585v-8.8876h8.83585v-17.7752h8.83585v-8.8876h8.83585v-8.8876h8.83585v-8.8876h8.83585v-35.5504h-8.83585v-8.8876h-97.1943v26.6628h-17.6717v8.8876h8.83585v8.8876h17.6717v8.8876h8.83585v8.8876h8.83585v8.8876h17.6717v-8.8876h17.6717v17.7752h-8.83585v8.8876h-8.83585v8.8876h-17.6717v17.7752h8.83585v26.6628h-17.6717v35.5504h26.5075"/>
<path fill="rgb(192,153,106)" d="M-5067.36 266.628v17.7752h35.3434v17.7752h8.83585v17.7752h35.3434v-17.7752h8.83585v-8.8876h8.83585v-26.6628h8.83585v-26.6628h8.83585v-17.7752h17.6717v-115.539h-79.5226v8.8876h8.83585v35.5504h-8.83585v8.8876h-8.83585v8.8876h-8.83585v8.8876h-8.83585v17.7752h-8.83585v8.8876h8.83585v17.7752h-8.83585v17.7752h-17.6717v8.8876h-8.83585v17.7752h8.83585"/>
<path fill="rgb(254,233,0)" d="M-5014.34 106.651v-26.6628h8.83585v-35.5504h-8.83585v-17.7752h8.83585v-17.7752h8.83585v-44.438h8.83585v-8.8876h17.6717v-8.8876h8.83585v-8.8876h8.83585v-17.7752h-17.6717v-8.8876h-8.83585v-8.8876h-8.83585v17.7752h-17.6717v8.8876h-35.3434v8.8876h-17.6717v8.8876h-8.83585v53.3256h-8.83585v8.8876h-8.83585v8.8876h-8.83585v35.5504h-17.6717v8.8876h-8.83585v8.8876h8.83585v26.6628h-8.83585v8.8876h106.03"/>
<path fill="rgb(192,153,106)" d="M-4934.82 106.651v-168.864h-8.83585v-8.8876h-8.83585v8.8876h-8.83585v8.8876h-8.83585v8.8876h-17.6717v8.8876h-8.83585v44.438h-8.83585v17.7752h-8.83585v17.7752h8.83585v35.5504h-8.83585v26.6628h79.5226"/>
<path fill="rgb(192,153,106)" d="M-4925.99 204.415v-26.6628h8.83585v-26.6628h8.83585v-17.7752h8.83585v-17.7752h-8.83585v-8.8876h-26.5075v97.7636h8.83585"/>
<path fill="rgb(169,254,0)" d="M-4917.15 195.527v-8.8876h26.5075v-8.8876h26.5075v-8.8876h26.5075v-8.8876h8.83585v-8.8876h8.83585v-8.8876h8.83585v-8.8876h8.83585v-8.8876h8.83585v-8.8876h8.83585v-8.8876h-123.702v8.8876h8.83585v17.7752h-8.83585v17.7752h-8.83585v26.6628h-8.83585v17.7752h8.83585"/>
<path fill="rgb(192,153,106)" d="M-4899.48 106.651v-8.8876h-8.83585v-8.8876h8.83585v-8.8876h-17.6717v-17.7752h17.6717v-8.8876h8.83585v-71.1008h8.83585v-8.8876h-8.83585v-17.7752h-17.6717v-8.8876h-17.6717v-8.8876h-8.83585v168.864h35.3434"/>
<path fill="rgb(169,254,0)" d="M-4899.48 97.7636v8.8876h123.702v-17.7752h8.83585v-26.6628h17.6717v-8.8876h-8.83585v-26.6628h-8.83585v-17.7752h8.83585v-8.8876h-17.6717v-8.8876h-17.6717v-8.8876h-8.83585v-8.8876h-17.6717v-8.8876h-8.83585v8.8876h-8.83585v8.8876h-26.5075v-8.8876h-17.6717v8.8876h-8.83585v71.1008h-8.83585v8.8876h-17.6717v17.7752h17.6717v8.8876h-8.83585v8.8876h8.83585"/>
</g>
</g>
</g>
<g inkscape:groupmode="layer" inkscape:label="marsTbECFl" id="marsTbECFl"><title>marsTbECFl</title>
<g id="Page0" inkscape:label="Page0">
<g id="drawing" inkscape:label="drawing" transform="translate(5193.9,-351.365)">
<g stroke-width="0.5px" stroke="rgb(0,0,0)" fill="none">
</g>
<g stroke="rgb(0,0,0)" fill="rgb(0,0,0)">
<circle cx="-5024" cy="90" r="3"/>
<circle cx="-5024" cy="91" r="3"/>
<circle cx="-5022" cy="110" r="3"/>
<circle cx="-4917" cy="165" r="3"/>
<circle cx="-4965" cy="71" r="3"/>
<circle cx="-5017" cy="73" r="3"/>
<circle cx="-5068" cy="44" r="3"/>
<circle cx="-5072" cy="70" r="3"/>
<circle cx="-5074" cy="12" r="3"/>
<circle cx="-5076" cy="61" r="3"/>
<circle cx="-5084" cy="62" r="3"/>
<circle cx="-5091" cy="53" r="3"/>
<circle cx="-5098" cy="60" r="3"/>
<circle cx="-4945" cy="91" r="3"/>
<circle cx="-4950" cy="3" r="3"/>
<circle cx="-4969" cy="59" r="3"/>
<circle cx="-5011" cy="-7" r="3"/>
<circle cx="-5061" cy="-4" r="3"/>
<circle cx="-5064" cy="46" r="3"/>
<circle cx="-5071" cy="88" r="3"/>
<circle cx="-4955" cy="181" r="3"/>
<circle cx="-4971" cy="58" r="3"/>
<circle cx="-5002" cy="297" r="3"/>
<circle cx="-5002" cy="297" r="3"/>
<circle cx="-5004" cy="16" r="3"/>
<circle cx="-5005" cy="15" r="3"/>
<circle cx="-5006" cy="16" r="3"/>
<circle cx="-5009" cy="60" r="3"/>
<circle cx="-5014" cy="124" r="3"/>
<circle cx="-5022" cy="137" r="3"/>
<circle cx="-5029" cy="119" r="3"/>
<circle cx="-5030" cy="120" r="3"/>
<circle cx="-5030" cy="-62" r="3"/>
<circle cx="-5030" cy="135" r="3"/>
<circle cx="-5033" cy="135" r="3"/>
<circle cx="-5034" cy="65" r="3"/>
<circle cx="-5055" cy="259" r="3"/>
<circle cx="-5056" cy="254" r="3"/>
<circle cx="-5079" cy="64" r="3"/>
<circle cx="-4920" cy="60" r="3"/>
<circle cx="-4972" cy="103" r="3"/>
<circle cx="-5024" cy="62" r="3"/>
<circle cx="-5047" cy="126" r="3"/>
<circle cx="-5020" cy="-67" r="3"/>
<circle cx="-4981" cy="-15" r="3"/>
<circle cx="-5086" cy="66" r="3"/>
<circle cx="-4924" cy="78" r="3"/>
<circle cx="-4953" cy="87" r="3"/>
<circle cx="-4984" cy="249" r="3"/>
<circle cx="-5014" cy="76" r="3"/>
<circle cx="-5024" cy="99" r="3"/>
<circle cx="-5037" cy="-57" r="3"/>
<circle cx="-5081" cy="76" r="3"/>
<circle cx="-5102" cy="61" r="3"/>
<circle cx="-4963" cy="77" r="3"/>
<circle cx="-5029" cy="119" r="3"/>
<circle cx="-5029" cy="119" r="3"/>
<circle cx="-5031" cy="136" r="3"/>
<circle cx="-5031" cy="135" r="3"/>
<circle cx="-5031" cy="133" r="3"/>
<circle cx="-5031" cy="135" r="3"/>
<circle cx="-5033" cy="135" r="3"/>
<circle cx="-5033" cy="135" r="3"/>
<circle cx="-5055" cy="259" r="3"/>
<circle cx="-5057" cy="254" r="3"/>
<circle cx="-4919" cy="43" r="3"/>
<circle cx="-4923" cy="29" r="3"/>
<circle cx="-4930" cy="26" r="3"/>
<circle cx="-4931" cy="93" r="3"/>
<circle cx="-4931" cy="93" r="3"/>
<circle cx="-4932" cy="94" r="3"/>
<circle cx="-4960" cy="82" r="3"/>
<circle cx="-4963" cy="83" r="3"/>
<circle cx="-4972" cy="116" r="3"/>
<circle cx="-4972" cy="103" r="3"/>
<circle cx="-4982" cy="136" r="3"/>
<circle cx="-4991" cy="157" r="3"/>
<circle cx="-5017" cy="61" r="3"/>
<circle cx="-5033" cy="66" r="3"/>
<circle cx="-5040" cy="236" r="3"/>
<circle cx="-5045" cy="116" r="3"/>
<circle cx="-5060" cy="40" r="3"/>
<circle cx="-5083" cy="38" r="3"/>
<circle cx="-4923" cy="35" r="3"/>
<circle cx="-4958" cy="187" r="3"/>
<circle cx="-4962" cy="70" r="3"/>
<circle cx="-4966" cy="24" r="3"/>
<circle cx="-4968" cy="77" r="3"/>
<circle cx="-4969" cy="76" r="3"/>
<circle cx="-4971" cy="78" r="3"/>
<circle cx="-4972" cy="77" r="3"/>
<circle cx="-4981" cy="183" r="3"/>
<circle cx="-4982" cy="184" r="3"/>
<circle cx="-4988" cy="172" r="3"/>
<circle cx="-5032" cy="125" r="3"/>
<circle cx="-5052" cy="25" r="3"/>
<circle cx="-5052" cy="25" r="3"/>
<circle cx="-5062" cy="49" r="3"/>
<circle cx="-5072" cy="49" r="3"/>
<circle cx="-5021" cy="-67" r="3"/>
<circle cx="-5022" cy="100" r="3"/>
<circle cx="-4971" cy="58" r="3"/>
<circle cx="-5005" cy="15" r="3"/>
<circle cx="-4984" cy="139" r="3"/>
<circle cx="-4939" cy="145" r="3"/>
<circle cx="-4969" cy="109" r="3"/>
<circle cx="-4971" cy="78" r="3"/>
<circle cx="-4971" cy="81" r="3"/>
<circle cx="-4974" cy="104" r="3"/>
<circle cx="-5028" cy="237" r="3"/>
<circle cx="-5030" cy="102" r="3"/>
<circle cx="-5035" cy="106" r="3"/>
<circle cx="-5037" cy="80" r="3"/>
<circle cx="-5038" cy="108" r="3"/>
<circle cx="-4968" cy="32" r="3"/>
<circle cx="-4973" cy="88" r="3"/>
<circle cx="-5006" cy="250" r="3"/>
<circle cx="-4938" cy="0" r="3"/>
<circle cx="-4950" cy="88" r="3"/>
<circle cx="-4963" cy="11" r="3"/>
<circle cx="-4963" cy="11" r="3"/>
<circle cx="-4976" cy="118" r="3"/>
<circle cx="-4995" cy="-63" r="3"/>
<circle cx="-5029" cy="107" r="3"/>
<circle cx="-5046" cy="66" r="3"/>
<circle cx="-5016" cy="60" r="3"/>
<circle cx="-5076" cy="73" r="3"/>
<circle cx="-5017" cy="15" r="3"/>
<circle cx="-5038" cy="-58" r="3"/>
<circle cx="-5006" cy="17" r="3"/>
<circle cx="-5028" cy="-25" r="3"/>
<circle cx="-5033" cy="135" r="3"/>
<circle cx="-5012" cy="113" r="3"/>
<circle cx="-5037" cy="112" r="3"/>
<circle cx="-5052" cy="25" r="3"/>
<circle cx="-5066" cy="50" r="3"/>
<circle cx="-4919" cy="-38" r="3"/>
<circle cx="-4948" cy="-14" r="3"/>
<circle cx="-4972" cy="101" r="3"/>
<circle cx="-5030" cy="90" r="3"/>
<circle cx="-4938" cy="-17" r="3"/>
<circle cx="-4942" cy="-19" r="3"/>
<circle cx="-4950" cy="87" r="3"/>
<circle cx="-4969" cy="15" r="3"/>
<circle cx="-5024" cy="66" r="3"/>
<circle cx="-4951" cy="172" r="3"/>
<circle cx="-5024" cy="90" r="3"/>
<circle cx="-5025" cy="56" r="3"/>
<circle cx="-5025" cy="56" r="3"/>
<circle cx="-5040" cy="112" r="3"/>
<circle cx="-5044" cy="108" r="3"/>
<circle cx="-4971" cy="270" r="3"/>
<circle cx="-4979" cy="242" r="3"/>
<circle cx="-5022" cy="101" r="3"/>
<circle cx="-5051" cy="140" r="3"/>
<circle cx="-5052" cy="136" r="3"/>
<circle cx="-5085" cy="97" r="3"/>
<circle cx="-5011" cy="103" r="3"/>
<circle cx="-5091" cy="54" r="3"/>
<circle cx="-5099" cy="66" r="3"/>
<circle cx="-5067" cy="76" r="3"/>
<circle cx="-5102" cy="61" r="3"/>
<circle cx="-5010" cy="123" r="3"/>
<circle cx="-4923" cy="29" r="3"/>
<circle cx="-4924" cy="29" r="3"/>
<circle cx="-4929" cy="27" r="3"/>
<circle cx="-4931" cy="26" r="3"/>
<circle cx="-4936" cy="23" r="3"/>
<circle cx="-4943" cy="155" r="3"/>
<circle cx="-4961" cy="87" r="3"/>
<circle cx="-4923" cy="36" r="3"/>
<circle cx="-4958" cy="187" r="3"/>
<circle cx="-5012" cy="114" r="3"/>
<circle cx="-5028" cy="235" r="3"/>
<circle cx="-5065" cy="50" r="3"/>
<circle cx="-4946" cy="-12" r="3"/>
<circle cx="-4949" cy="-13" r="3"/>
<circle cx="-4957" cy="20" r="3"/>
<circle cx="-5008" cy="262" r="3"/>
<circle cx="-5030" cy="90" r="3"/>
<circle cx="-4939" cy="-20" r="3"/>
<circle cx="-4940" cy="-21" r="3"/>
<circle cx="-4941" cy="-19" r="3"/>
<circle cx="-4951" cy="8" r="3"/>
<circle cx="-4952" cy="14" r="3"/>
<circle cx="-4954" cy="23" r="3"/>
<circle cx="-4963" cy="117" r="3"/>
<circle cx="-4963" cy="118" r="3"/>
<circle cx="-4963" cy="9" r="3"/>
<circle cx="-4965" cy="14" r="3"/>
<circle cx="-4965" cy="17" r="3"/>
<circle cx="-4966" cy="17" r="3"/>
<circle cx="-4993" cy="96" r="3"/>
<circle cx="-4994" cy="100" r="3"/>
<circle cx="-5004" cy="199" r="3"/>
</g>
<g stroke-width="0.5px" stroke="rgb(192,153,106)" fill="none">
</g>
<g stroke="rgb(192,153,106)" fill="rgb(192,153,106)">
<circle cx="-4917" cy="165" r="2.25"/>
<circle cx="-4965" cy="71" r="2.25"/>
<circle cx="-4945" cy="91" r="2.25"/>
<circle cx="-4950" cy="3" r="2.25"/>
<circle cx="-4969" cy="59" r="2.25"/>
<circle cx="-4955" cy="181" r="2.25"/>
<circle cx="-4971" cy="58" r="2.25"/>
<circle cx="-5002" cy="297" r="2.25"/>
<circle cx="-5002" cy="297" r="2.25"/>
<circle cx="-5055" cy="259" r="2.25"/>
<circle cx="-5056" cy="254" r="2.25"/>
<circle cx="-4920" cy="60" r="2.25"/>
<circle cx="-4972" cy="103" r="2.25"/>
<circle cx="-4981" cy="-15" r="2.25"/>
<circle cx="-4924" cy="78" r="2.25"/>
<circle cx="-4953" cy="87" r="2.25"/>
<circle cx="-4984" cy="249" r="2.25"/>
<circle cx="-4963" cy="77" r="2.25"/>
<circle cx="-5055" cy="259" r="2.25"/>
<circle cx="-5057" cy="254" r="2.25"/>
<circle cx="-4919" cy="43" r="2.25"/>
<circle cx="-4923" cy="29" r="2.25"/>
<circle cx="-4930" cy="26" r="2.25"/>
<circle cx="-4931" cy="93" r="2.25"/>
<circle cx="-4931" cy="93" r="2.25"/>
<circle cx="-4932" cy="94" r="2.25"/>
<circle cx="-4960" cy="82" r="2.25"/>
<circle cx="-4963" cy="83" r="2.25"/>
<circle cx="-4972" cy="116" r="2.25"/>
<circle cx="-4972" cy="103" r="2.25"/>
<circle cx="-4982" cy="136" r="2.25"/>
<circle cx="-4991" cy="157" r="2.25"/>
<circle cx="-5040" cy="236" r="2.25"/>
<circle cx="-4923" cy="35" r="2.25"/>
<circle cx="-4958" cy="187" r="2.25"/>
<circle cx="-4962" cy="70" r="2.25"/>
<circle cx="-4966" cy="24" r="2.25"/>
<circle cx="-4968" cy="77" r="2.25"/>
<circle cx="-4969" cy="76" r="2.25"/>
<circle cx="-4971" cy="78" r="2.25"/>
<circle cx="-4972" cy="77" r="2.25"/>
<circle cx="-4981" cy="183" r="2.25"/>
<circle cx="-4982" cy="184" r="2.25"/>
<circle cx="-4988" cy="172" r="2.25"/>
<circle cx="-4971" cy="58" r="2.25"/>
<circle cx="-4984" cy="139" r="2.25"/>
<circle cx="-4939" cy="145" r="2.25"/>
<circle cx="-4969" cy="109" r="2.25"/>
<circle cx="-4971" cy="78" r="2.25"/>
<circle cx="-4971" cy="81" r="2.25"/>
<circle cx="-4974" cy="104" r="2.25"/>
<circle cx="-5028" cy="237" r="2.25"/>
<circle cx="-4968" cy="32" r="2.25"/>
<circle cx="-4973" cy="88" r="2.25"/>
<circle cx="-5006" cy="250" r="2.25"/>
<circle cx="-4938" cy="0" r="2.25"/>
<circle cx="-4950" cy="88" r="2.25"/>
<circle cx="-4963" cy="11" r="2.25"/>
<circle cx="-4963" cy="11" r="2.25"/>
<circle cx="-4976" cy="118" r="2.25"/>
<circle cx="-5012" cy="113" r="2.25"/>
<circle cx="-4919" cy="-38" r="2.25"/>
<circle cx="-4948" cy="-14" r="2.25"/>
<circle cx="-4972" cy="101" r="2.25"/>
<circle cx="-4938" cy="-17" r="2.25"/>
<circle cx="-4942" cy="-19" r="2.25"/>
<circle cx="-4950" cy="87" r="2.25"/>
<circle cx="-4969" cy="15" r="2.25"/>
<circle cx="-4951" cy="172" r="2.25"/>
<circle cx="-4971" cy="270" r="2.25"/>
<circle cx="-4979" cy="242" r="2.25"/>
<circle cx="-5011" cy="103" r="2.25"/>
<circle cx="-4923" cy="29" r="2.25"/>
<circle cx="-4924" cy="29" r="2.25"/>
<circle cx="-4929" cy="27" r="2.25"/>
<circle cx="-4931" cy="26" r="2.25"/>
<circle cx="-4936" cy="23" r="2.25"/>
<circle cx="-4943" cy="155" r="2.25"/>
<circle cx="-4961" cy="87" r="2.25"/>
<circle cx="-4923" cy="36" r="2.25"/>
<circle cx="-4958" cy="187" r="2.25"/>
<circle cx="-5012" cy="114" r="2.25"/>
<circle cx="-5028" cy="235" r="2.25"/>
<circle cx="-4946" cy="-12" r="2.25"/>
<circle cx="-4949" cy="-13" r="2.25"/>
<circle cx="-4957" cy="20" r="2.25"/>
<circle cx="-5008" cy="262" r="2.25"/>
<circle cx="-4939" cy="-20" r="2.25"/>
<circle cx="-4940" cy="-21" r="2.25"/>
<circle cx="-4941" cy="-19" r="2.25"/>
<circle cx="-4951" cy="8" r="2.25"/>
<circle cx="-4952" cy="14" r="2.25"/>
<circle cx="-4954" cy="23" r="2.25"/>
<circle cx="-4963" cy="117" r="2.25"/>
<circle cx="-4963" cy="118" r="2.25"/>
<circle cx="-4963" cy="9" r="2.25"/>
<circle cx="-4965" cy="14" r="2.25"/>
<circle cx="-4965" cy="17" r="2.25"/>
<circle cx="-4966" cy="17" r="2.25"/>
<circle cx="-4993" cy="96" r="2.25"/>
<circle cx="-4994" cy="100" r="2.25"/>
<circle cx="-5004" cy="199" r="2.25"/>
</g>
<g stroke-width="0.5px" stroke="rgb(254,233,0)" fill="none">
</g>
<g stroke="rgb(254,233,0)" fill="rgb(254,233,0)">
<circle cx="-5024" cy="90" r="2.25"/>
<circle cx="-5024" cy="91" r="2.25"/>
<circle cx="-5022" cy="110" r="2.25"/>
<circle cx="-5017" cy="73" r="2.25"/>
<circle cx="-5068" cy="44" r="2.25"/>
<circle cx="-5072" cy="70" r="2.25"/>
<circle cx="-5074" cy="12" r="2.25"/>
<circle cx="-5076" cy="61" r="2.25"/>
<circle cx="-5084" cy="62" r="2.25"/>
<circle cx="-5091" cy="53" r="2.25"/>
<circle cx="-5098" cy="60" r="2.25"/>
<circle cx="-5011" cy="-7" r="2.25"/>
<circle cx="-5061" cy="-4" r="2.25"/>
<circle cx="-5064" cy="46" r="2.25"/>
<circle cx="-5071" cy="88" r="2.25"/>
<circle cx="-5004" cy="16" r="2.25"/>
<circle cx="-5005" cy="15" r="2.25"/>
<circle cx="-5006" cy="16" r="2.25"/>
<circle cx="-5009" cy="60" r="2.25"/>
<circle cx="-5014" cy="124" r="2.25"/>
<circle cx="-5022" cy="137" r="2.25"/>
<circle cx="-5029" cy="119" r="2.25"/>
<circle cx="-5030" cy="120" r="2.25"/>
<circle cx="-5030" cy="-62" r="2.25"/>
<circle cx="-5030" cy="135" r="2.25"/>
<circle cx="-5033" cy="135" r="2.25"/>
<circle cx="-5034" cy="65" r="2.25"/>
<circle cx="-5079" cy="64" r="2.25"/>
<circle cx="-5024" cy="62" r="2.25"/>
<circle cx="-5047" cy="126" r="2.25"/>
<circle cx="-5020" cy="-67" r="2.25"/>
<circle cx="-5086" cy="66" r="2.25"/>
<circle cx="-5014" cy="76" r="2.25"/>
<circle cx="-5024" cy="99" r="2.25"/>
<circle cx="-5037" cy="-57" r="2.25"/>
<circle cx="-5081" cy="76" r="2.25"/>
<circle cx="-5102" cy="61" r="2.25"/>
<circle cx="-5029" cy="119" r="2.25"/>
<circle cx="-5029" cy="119" r="2.25"/>
<circle cx="-5031" cy="136" r="2.25"/>
<circle cx="-5031" cy="135" r="2.25"/>
<circle cx="-5031" cy="133" r="2.25"/>
<circle cx="-5031" cy="135" r="2.25"/>
<circle cx="-5033" cy="135" r="2.25"/>
<circle cx="-5033" cy="135" r="2.25"/>
<circle cx="-5017" cy="61" r="2.25"/>
<circle cx="-5033" cy="66" r="2.25"/>
<circle cx="-5045" cy="116" r="2.25"/>
<circle cx="-5060" cy="40" r="2.25"/>
<circle cx="-5083" cy="38" r="2.25"/>
<circle cx="-5032" cy="125" r="2.25"/>
<circle cx="-5052" cy="25" r="2.25"/>
<circle cx="-5052" cy="25" r="2.25"/>
<circle cx="-5062" cy="49" r="2.25"/>
<circle cx="-5072" cy="49" r="2.25"/>
<circle cx="-5021" cy="-67" r="2.25"/>
<circle cx="-5022" cy="100" r="2.25"/>
<circle cx="-5005" cy="15" r="2.25"/>
<circle cx="-5030" cy="102" r="2.25"/>
<circle cx="-5035" cy="106" r="2.25"/>
<circle cx="-5037" cy="80" r="2.25"/>
<circle cx="-5038" cy="108" r="2.25"/>
<circle cx="-4995" cy="-63" r="2.25"/>
<circle cx="-5029" cy="107" r="2.25"/>
<circle cx="-5046" cy="66" r="2.25"/>
<circle cx="-5016" cy="60" r="2.25"/>
<circle cx="-5076" cy="73" r="2.25"/>
<circle cx="-5017" cy="15" r="2.25"/>
<circle cx="-5038" cy="-58" r="2.25"/>
<circle cx="-5006" cy="17" r="2.25"/>
<circle cx="-5028" cy="-25" r="2.25"/>
<circle cx="-5033" cy="135" r="2.25"/>
<circle cx="-5037" cy="112" r="2.25"/>
<circle cx="-5052" cy="25" r="2.25"/>
<circle cx="-5066" cy="50" r="2.25"/>
<circle cx="-5030" cy="90" r="2.25"/>
<circle cx="-5024" cy="66" r="2.25"/>
<circle cx="-5024" cy="90" r="2.25"/>
<circle cx="-5025" cy="56" r="2.25"/>
<circle cx="-5025" cy="56" r="2.25"/>
<circle cx="-5040" cy="112" r="2.25"/>
<circle cx="-5044" cy="108" r="2.25"/>
<circle cx="-5022" cy="101" r="2.25"/>
<circle cx="-5051" cy="140" r="2.25"/>
<circle cx="-5052" cy="136" r="2.25"/>
<circle cx="-5085" cy="97" r="2.25"/>
<circle cx="-5091" cy="54" r="2.25"/>
<circle cx="-5099" cy="66" r="2.25"/>
<circle cx="-5067" cy="76" r="2.25"/>
<circle cx="-5102" cy="61" r="2.25"/>
<circle cx="-5010" cy="123" r="2.25"/>
<circle cx="-5065" cy="50" r="2.25"/>
<circle cx="-5030" cy="90" r="2.25"/>
</g>
</g>
</g>
</g>
<g inkscape:groupmode="layer" inkscape:label="PythonScript, line 0:11(FG)" id="PythonScript, line 0:11(FG)"><title>PythonScript, line 0:11(FG)</title>
<g id="Page0" inkscape:label="Page0">
<g id="drawing" inkscape:label="drawing" transform="translate(5193.9,-351.365)">
<g fill-rule="evenodd" stroke="none">
<path fill="rgb(180,241,241)" d="M-5131.73 264.243l1.43297 -1.46641l1.17827 -2.08385l0.884991 -0.987897l1.19628 -0.416769l1.14483 -0.267557l0.684326 -0.69976l0.99561 -2.05811l3.40361 -5.12472l1.98094 -2.06841l2.38742 -1.86774l2.58551 -1.45097l0.957024 -0.895284l0.378183 -1.32749l0.169792 -1.4201l0.427062 -1.32749l1.13196 -2.21762l1.69795 -2.13529l2.26907 -1.85231l10.0282 -5.97369l1.80342 -1.74426l2.67299 -3.91557l0.383323 -1.31719l0.509382 -0.205811l0.632874 -0.102906l0.563408 -0.329303l0.98275 -0.38075l4.39666 0.144072l1.21172 -0.267557l1.29661 -0.540255l1.02906 -0.833538l0.427062 -1.12682l0.174938 -0.694613l0.838685 -1.42525l0.277844 -0.689473l0.0205799 -0.617434l-0.136346 -0.452789l-0.0771792 -0.473369l0.192945 -0.648307l0.848972 -0.509382l0.391043 -0.746066l0.313864 -0.884991l0.607147 -0.884991l-0.640587 1.77513l-0.223824 0.427056l0.393616 1.29661l0.758932 -0.586561l0.355023 -1.98609l0.648307 -0.926151l1.72882 1.72882l0.859265 -0.36017l4.57417 -0.936444l0.787232 0.0771792l0.519675 0.128632l0.463075 0.0257264l0.607141 -0.231538l1.44069 -1.69795l0.285564 -0.246971l2.38999 -4.97036l0.668887 -0.895278l1.41496 0.267551l0.293284 1.50757l-0.447642 3.02029l0.67918 -0.40133l0.419342 -0.612294l0.357597 -0.704906l0.504235 -0.68432l0.576274 -0.457935l2.01181 -1.26574l0.936444 -1.08566l0.614861 -1.32234l0.34731 -1.42525l0.293284 -2.43887l1.02906 -2.28451l2.12758 -3.40104l0.540255 -1.26574l-0.630294 -1.1011l0.228964 -1.43039l0.833538 -2.46974l0.138919 -1.11138l1.97579 -6.44706l1.33521 -2.39256l0.144065 -0.416769l0.620014 -1.35321l0.234111 -1.47156l1.34292 -3.68403l0.725486 -1.08566l1.89604 -1.93978l0.540255 -1.12167l0.0848991 -1.52301l-0.406476 -2.82477l-0.854118 -2.20733l-0.205818 -0.349883l-1.38408 0.0823258l-0.715199 -0.0617459l-0.509382 -0.246971l-0.764079 -1.16798l-1.21943 -3.39075l-0.789805 -1.24516l-0.383323 -0.771792l-0.115766 -0.895284l0.0540261 -3.68403l-0.424489 -2.94311l-0.0257264 -0.823245l0.388469 -1.38923l0.100332 -0.854118l-0.293284 -0.38075l-0.102906 -0.257264l-0.802665 -1.08052l-0.195518 -0.174938l-0.0951922 -0.432203l-0.187798 -0.31901l-0.144072 -0.432203l0.0385928 -0.761506l0.316437 -0.694613l0.416769 -0.540261l0.146639 -0.571128l-0.491375 -0.776939l0.977604 -1.02906l0.99819 -0.293284l0.776939 -0.457929l0.308717 -1.48185l0.478515 -0.710053l1.04449 -0.473369l1.0445 -0.69976l0.457935 -1.36865l-3.75092 2.13015l-0.406476 0.308717l-0.164652 0.555694l-0.0385928 1.11653l-0.463075 0.200665l-2.0504 0.138925l-0.465649 0.529962l-0.108052 0.493948l-0.540255 1.53844l-0.537681 2.53149l-0.0874723 1.82658l0.385896 1.83173l1.92434 3.34959l0.144072 1.91919l-0.982757 12.3127l-0.668887 2.5675l-0.439922 0.689467l-1.73139 1.92949l-0.614867 0.401336l-1.01877 0.308717l-2.19189 1.26574l-0.910718 0.190378l-0.635447 -0.313864l-0.370463 -0.848978l-0.504235 -0.169792l-1.35321 0.149212l-0.452789 -0.154358l-0.805239 -0.617434l-0.337017 -1.03935l0.846405 -0.987897l1.88575 -1.27089l0.576274 -1.32749l0.282991 -0.951877l0.653453 -0.560841l1.70309 -0.185231l0.401336 0.262411l0.378176 0.540255l0.478515 0.488808l0.70748 0.0411597l0.604574 -0.36017l0.285564 -0.535114l-0.0463126 -0.648307l-0.375603 -0.689467l-0.282991 1.32749l-0.854118 -0.27785l-1.49214 -1.44583l-1.38666 0.159505l-1.26317 0.64316l-0.915864 0.282991l-0.355023 -0.884991l0.264984 -1.38923l1.18856 -2.70128l0.270131 -1.51786l0.236678 -0.782086l0.571128 -0.308717l0.720346 -0.138925l0.668887 -0.272697l0.478515 -0.493948l1.28632 -2.04783l-0.581421 0.154358l-0.32415 0.195518l-0.663747 0.689473l-0.524815 0.216098l-1.28118 -0.102906l-0.586561 0.0617459l-0.715199 0.488802l-0.560835 0.771792l-2.72958 7.03877l-4.31433 6.04572l-1.95007 2.10957l-2.05297 0.890138l-0.473369 0.828392l-0.473369 0.591708l-0.583994 0.344736l-0.604568 -0.0102931l-0.329303 -0.257264l-0.236684 -0.391043l-0.319004 -0.421916l-0.926157 -0.411623l-0.607141 0.473369l-0.221251 1.0445l0.221251 1.27089l0.241825 0.185231l1.72368 1.75454l0.221251 0.524821l0.0488796 0.715199l-0.074606 1.36865l-0.635447 0.576274l-1.45097 -0.195525l-2.66269 -1.04449l-2.67041 -2.26908l-0.931297 -0.524821l-0.818105 -0.802665l-0.370463 -0.288137l-0.396183 -0.113199l-1.12682 -0.154358l-0.594281 -0.164645l-2.408 -1.54359l-6.71461 -7.90832l-5.2199 -4.87259l-2.03699 -0.663196l-1.84545 -0.887628l-2.05247 0.0695985l-3.3472 -1.11201l-1.16541 -0.529962l-2.65754 -2.34626l-1.39438 -0.529968l-0.99561 0.0102931l-0.753786 -0.144065l-0.478515 -0.571128l-0.373036 -2.1353l-0.486229 -0.951884l-1.0342 -1.4767l-0.874698 -0.900425l-2.34368 -1.87803l-0.259837 -0.406476l-0.29843 -0.663747l-0.133779 -0.617434l0.241831 -0.277844l0.504242 0.123486l0.231538 0.267557l0.133779 0.298424l0.210952 0.174938l1.60791 0.385896l0.758926 0.0463126l0.337017 0.200665l0.318334 1.07894l0.822499 0.888715l1.57706 -0.0679483l2.2616 -0.819243l3.21887 -2.59432l2.46321 -1.22812l2.25861 -2.52451l0.476245 -3.7567l-0.891839 -1.91542l-0.503179 -1.97093l-0.190378 -0.514535l0.281043 -0.659593l0.683972 -0.136048l0.889822 -0.47653l0.187849 -1.5423l-0.177518 -1.60534l-1.7419 -6.72955l-0.951662 -2.66061l-0.411623 -1.16799l-0.555694 -0.972457l-0.596854 -0.725486l-0.751213 -1.17313l-1.48699 -3.6686l-0.869552 -1.12168l-0.288137 -0.812958l-0.0951922 -0.926151l0.254697 -0.72034l2.21683 -1.55936l-0.271907 -1.47636l0.0154333 -1.83173l0.570628 -0.525479l0.752148 -0.683884l0.774808 -0.195885l1.04373 0.00780201l0.273608 -0.81875l-0.0321628 -0.90277l0.135049 -1.23102l0.323992 -1.09201l-0.285001 -1.45245l0.270232 -0.903516l1.09716 -0.533287l-0.100743 -1.54198l-1.88314 -2.60682l-3.76497 -4.50849l-3.07033 -5.40379l-1.33391 -3.22369l-0.817612 -1.84958l0.415347 -1.30306l0.763263 -0.761367l0.886799 -0.750075l0.821993 -0.889765l0.48308 -0.618705l0.479267 -0.615651l0.817587 -0.886148l0.753261 -0.889379l0.206077 -0.547393l0.684175 -0.273741l0.890587 0.271414l0.889885 -0.0013467l0.889347 -0.547469l0.820116 -0.341752l0.957517 0.203813l0.751428 -0.273191l0.751895 -0.273633l-0.134638 0.553842l1.16162 0.545623l0.956411 0.0678788l0.753179 -0.652948l0.478129 -0.204907l0.477883 -0.614304l0.682828 -0.204838l0.614545 0.887261l0.546343 0.136333l1.16084 0.136175l1.57024 -0.614538l1.36577 -1.22946l1.4334 -1.50178l0.909535 -3.93405l0.239258 -1.23487l0.830162 -4.08726l1.16021 -3.1393l1.43283 -2.86563l0.785658 -1.84489l0.307484 -0.340798l0.546318 -0.409922l0.887564 -0.1367l0.818092 -0.271762l0.136124 1.63837l0.886041 1.29745l1.70877 0.749309l1.63921 0.20437l3.40562 0.0702308v-0.750707l-1.76737 -0.480254l-1.91105 -0.409783h-1.29772l-0.887457 -0.682651l-0.68291 -1.77464l-0.823271 -1.49621l-0.886629 -0.341588l-0.476878 -0.683631l-0.0691307 -1.49926l-0.68016 -1.77981l-0.194728 -1.82948l-0.896694 -1.99592l-1.16067 -1.3644l-0.750296 -2.66917l0.683663 -0.894867l1.29576 -0.124333l2.05049 -1.64809l1.97613 -2.98851l0.640005 -1.11105l0.162078 -0.854125l0.562731 -1.37968l0.546938 -1.02332l1.36403 -0.47837l0.819591 -1.29665l0.82193 -1.36462l1.15986 1.02389l1.36743 -0.682329l1.50346 -1.1606l1.77634 -1.29737l3.76275 -4.09841l3.00371 -3.87395l0.707891 -0.864437l0.362332 -0.442464l0.447642 -1.25545l0.128632 -0.776939l0.313864 -0.267557l0.414196 -0.136346l1.31576 -0.417926l0.955329 -2.38883l0.545547 -2.11601l0.363154 -3.32l-0.0900456 -1.52044l-0.493948 -2.69356l-0.144065 -4.78513l0.576268 -1.66965l0.0205862 -0.545401l0.159499 -0.236684l0.684326 0.329303l0.29071 0.313864l0.239258 0.465649l0.293284 0.949304h0.470789l0.0951922 -0.792372l0.648307 -1.23745l0.159505 -0.558261l-0.149218 -0.800098l-0.367883 -0.555688l-0.856692 -0.841258l-1.50243 -2.46202l-0.450209 -1.25031l-0.167225 -1.27346l0.180085 -1.39952l0.437349 -0.725486l0.560841 -0.596854l0.547975 -1.00591l0.123486 -1.31977l-0.342163 -1.28118l-0.452789 -1.10366l-0.432203 -1.80858l-0.571128 -0.753786l-0.887564 -0.475936l-1.14226 -0.164652l-0.810385 -0.308717l-0.560835 -0.761506l-0.365316 -0.977604l-0.208385 -0.972464l-0.0231531 -2.72186l0.717766 -2.67041l1.35579 -2.26393l1.87289 -1.48699l1.08051 0.545401l0.926157 0.110625l2.09671 -0.185231l0.941591 -0.270131l1.24259 -1.15769l0.856692 -0.262411l0.903004 -0.144072l1.58475 -0.620007l2.00409 -0.33959l1.19114 -0.895278l0.792372 -0.200671l0.468222 -0.234111l1.92434 -1.52815l0.455362 -0.478509l0.810379 -1.17827l0.463082 -0.463075l1.505 -0.684326l3.78436 -1.19885l1.65678 -1.18084l0.33959 0.648307l0.0257264 0.578841l-1.27089 3.95673l0.293284 0.944164l0.524821 0.553121l0.66374 0.457929l0.715199 0.67146l0.848972 1.71596l0.445069 0.483662l-1.0342 -2.83506l-0.815532 -0.692046l-0.264984 -0.40133l0.00257327 -0.352456l0.324157 -0.581414l0.0617396 -0.360176l-0.0951858 -1.58475l0.141498 -1.20399l0.553115 -0.887564l1.12682 -0.635447l2.72443 0.782086l2.98942 -1.69023l4.29632 -3.92071l1.35836 -0.35245l4.45068 0.35245l0.550548 -0.131205l1.44069 -0.565981l0.617434 -0.128632l1.72882 0.030873l0.797519 -0.131205l0.710053 -0.370463l1.52043 0.802665l1.79056 -0.249544l1.81372 -0.627727l1.60533 -0.357597l1.16541 -0.61744l4.77226 -6.321l0.923584 -0.504235l1.55902 0.535108l1.23487 1.02906l0.794952 1.29404l0.424483 1.54359l0.131205 1.78284l1.20915 -0.640587l0.6586 -0.939017l0.277844 -1.18342l0.200665 -2.77846l0.391043 -0.725486l0.560841 -0.578847l0.668887 -0.959597l0.208385 0.540255l0.370463 0.249551l0.511955 -0.0385928l0.632874 -0.319004l0.571128 -0.535114l0.0900393 -0.447642l-0.0282997 -0.496522l0.231538 -0.679174l1.03164 -1.17056l1.05221 -0.169798l2.66784 0.908144l-0.460509 -0.913291l-1.13196 -0.298424l-1.32234 -0.133779l-1.01362 -0.421916l-0.439922 -0.887564l0.218671 -0.833538l0.555694 -0.738346l2.36169 -2.3514l0.365316 -0.838685l-0.0282997 -0.957024l-0.223818 -0.859265l0.118339 -0.694613l1.00076 -0.473369l-0.424489 -1.13196l-0.782086 -0.674033l-0.838685 -0.535114l-0.586561 -0.717766l-0.0720327 -0.964744l0.133772 -1.19885l0.0102931 -1.19885l-0.465649 -0.957024l-0.403909 -0.113199l-0.815525 0.388476l-1.23954 0.557401l-0.526819 -0.614595l-0.643856 -0.585271l-0.819616 -0.117068l-0.614684 -0.555973l-1.37643 -0.760968l-0.565362 -0.271503l-0.875982 -0.551256h-140.021v366.882l2.1725 -1.47876z
M-4993.36 -79.1441L-4994.31 -80.1886L-4994.52 -81.3591L-4993.59 -82.72L-4988.59 -86.8826L-4988.58 -86.2806L-4988.49 -85.8587L-4988.19 -85.1126L-4988.13 -82.9927L-4988.44 -80.3866L-4989.27 -78.7324L-4990.78 -79.4631L-4991.39 -78.753L-4992.08 -78.1665L-4993.36 -79.1441z
M-5050.27 167.527L-5050.56 166.089L-5049.7 163.693L-5048.35 160.241L-5046.63 157.173L-5045.96 158.802L-5044.42 159.377L-5043.65 160.718L-5045 162.732L-5047.2 163.883L-5047.49 166.663L-5049.02 167.622L-5050.27 167.527z
M-5072.45 191.709L-5073.94 191.324L-5074.85 190.845L-5075.22 189.449L-5074.84 187.207L-5074.61 179.614L-5074.39 178.759L-5072.26 174.838L-5071.35 172.281L-5070.45 171.633L-5066.6 170.516L-5063.15 168.803L-5061.82 168.355L-5058.95 168.448L-5054.6 171.128L-5051.89 171.813L-5051.99 172.301L-5052.17 172.754L-5052.42 173.166L-5052.75 173.541L-5053.46 174.133L-5056.64 175.502L-5056.84 176.057L-5057.73 176.906L-5057.93 177.246L-5058.31 178.219L-5058.83 179.191L-5059.36 179.742L-5059.49 179.752L-5060.16 180.902L-5060.92 182.42L-5061.72 183.862L-5062.14 184.886L-5063.16 185.304L-5064 186.253L-5063.96 187.733L-5064.92 188.638L-5065.31 189.548L-5066.32 190.999L-5068.58 190.773L-5069.84 191.509L-5070.91 191.833L-5072.45 191.709"/>
<path fill="rgb(180,241,241)" d="M-5131.82 322.998l-0.275441 -1.35181l0.545521 -0.931108l1.0011 0.130244l1.12618 -0.62853l1.04656 1.06806l1.88513 -0.149857l0.958959 -1.39173l0.267779 -2.22293l-1.36987 -3.00682l-2.08995 -2.13898l-1.98089 -1.49348l-1.50049 -2.24934l-1.03448 -1.89161l-0.663778 -0.882127v17.2235h2.1046l-0.0209213 -0.0834702"/>
</g>
<g stroke-width="2px" stroke="rgb(0,0,255)" fill="none">
<path d="M-5065.31 189.548l-1.00727 1.45048l-2.26256 -0.2259l-1.2606 0.735777l-1.07279 0.324154l-1.54102 -0.123487l-1.48442 -0.385897l-0.908145 -0.478513l-0.373907 -1.39614l0.382863 -2.24147l0.227262 -7.5937l0.224286 -0.85499l2.13015 -3.92072l0.902999 -2.55721l0.902999 -0.648307l3.84611 -1.11653l3.45764 -1.71338l1.32749 -0.447641l2.8685 0.0926153l4.3452 2.6807l2.71672 0.684324l-0.100333 0.488803l-0.177513 0.452786l-0.254692 0.411624l-0.331872 0.375607l-0.704906 0.591709l-3.17979 1.36865l-0.200667 0.555692l-0.890136 0.848974l-0.203239 0.33959l-0.383325 0.972461l-0.519675 0.972461l-0.52482 0.550547l-0.133778 0.0102906l-0.670685 1.15041l-0.759105 1.51779l-0.797174 1.44192l-0.417616 1.02455l-1.02573 0.417798l-0.835778 0.949013l0.0384634 1.4798l-0.963234 0.904647l-0.385897 0.910717"/>
<path d="M-5047.49 166.663l-1.53475 0.959051l-1.24734 -0.0953664l-0.288418 -1.43761l0.862545 -2.39666l1.34185 -3.45149l1.72579 -3.06847l0.672275 1.62956l1.53548 0.574241l0.768202 1.34166l-1.34257 2.01393l-2.20635 1.15135l-0.286711 2.77981"/>
<path d="M-4988.44 -80.3867l-0.836111 1.65421l-1.51014 -0.730632l-0.604572 0.710051l-0.692042 0.586564l-1.28118 -0.977606l-0.944162 -1.0445l-0.210957 -1.17055l0.926153 -1.36093l5.00123 -4.16254l0.0102906 0.602l0.0874701 0.421914l0.298427 0.746068l0.0617435 2.11986l-0.306145 2.60609"/>
<path d="M-5131.82 322.998l-0.275445 -1.35181l0.545522 -0.931108l1.0011 0.130245l1.12618 -0.628531l1.04656 1.06806l1.88513 -0.149855l0.958956 -1.39173l0.267782 -2.22293l-1.36988 -3.00682l-2.08995 -2.13898l-1.98089 -1.49348l-1.50049 -2.24934l-1.03448 -1.89161"/>
<path d="M-5131.73 264.243l1.43296 -1.46641l1.17827 -2.08384l0.884991 -0.987897l1.19628 -0.416769l1.14483 -0.267555l0.684324 -0.69976l0.995615 -2.05812l3.40361 -5.12471l1.98094 -2.06841l2.38742 -1.86774l2.58551 -1.45097l0.957025 -0.895282l0.378179 -1.32749l0.169795 -1.4201l0.42706 -1.32749l1.13197 -2.21762l1.69795 -2.1353l2.26908 -1.85231l10.0282 -5.97369l1.80343 -1.74426l2.67298 -3.91557l0.383325 -1.3172l0.509384 -0.205812l0.632871 -0.102906l0.56341 -0.329299l0.982752 -0.380752l4.39666 0.144068l1.21172 -0.267555l1.29661 -0.540256l1.02906 -0.833538l0.42706 -1.12682l0.17494 -0.694615l0.838683 -1.42525l0.277846 -0.68947l0.0205812 -0.617436l-0.13635 -0.452786l-0.0771794 -0.473367l0.192949 -0.648307l0.848974 -0.509384l0.391043 -0.746068l0.313863 -0.884991l0.607145 -0.884991l-0.640589 1.77513l-0.22382 0.42706l0.393615 1.29661l0.758931 -0.586564l0.355025 -1.98608l0.648307 -0.926153l1.72882 1.72882l0.859264 -0.360171l4.57417 -0.936444l0.78723 0.0771794l0.519675 0.128632l0.463077 0.0257265l0.607145 -0.231538l1.44068 -1.69795l0.285564 -0.246974l2.38999 -4.97036l0.668889 -0.895282l1.41496 0.267555l0.293282 1.50757l-0.447641 3.02029l0.679179 -0.401333l0.419342 -0.61229l0.357598 -0.704906l0.504239 -0.684324l0.576273 -0.457931l2.01181 -1.26574l0.936444 -1.08566l0.614863 -1.32234l0.347307 -1.42525l0.293282 -2.43887l1.02906 -2.28451l2.12758 -3.40104l0.540256 -1.26574l-0.630299 -1.10109l0.228966 -1.43039l0.833538 -2.46974l0.138923 -1.11138l1.97579 -6.44706l1.3352 -2.39256l0.144068 -0.416769l0.620008 -1.35321l0.234111 -1.47155l1.34292 -3.68403l0.725487 -1.08566l1.89604 -1.93978l0.540256 -1.12167l0.0848974 -1.52301l-0.406478 -2.82477l-0.854119 -2.20733l-0.205812 -0.34988l-1.38408 0.0823247l-0.715196 -0.0617435l-0.509384 -0.246974l-0.764076 -1.16798l-1.21944 -3.39075l-0.789803 -1.24516l-0.383325 -0.771794l-0.115769 -0.895282l0.0540256 -3.68403l-0.424487 -2.94311l-0.0257265 -0.823247l0.38847 -1.38923l0.100333 -0.854119l-0.293282 -0.380752l-0.102906 -0.257265l-0.802666 -1.08051l-0.195521 -0.17494l-0.0951879 -0.432205l-0.187803 -0.319008l-0.144068 -0.432205l0.0385897 -0.761504l0.316436 -0.694615l0.416769 -0.540256l0.146641 -0.571128l-0.491376 -0.77694l0.977606 -1.02906l0.998187 -0.293282l0.77694 -0.457931l0.308718 -1.48185l0.478513 -0.710051l1.0445 -0.473367l1.0445 -0.69976l0.457931 -1.36865l-3.75092 2.13015l-0.406478 0.308718l-0.164649 0.555692l-0.0385897 1.11653l-0.463077 0.200667l-2.0504 0.138923l-0.465649 0.529966l-0.108051 0.493948l-0.540256 1.53844l-0.537683 2.53149l-0.0874701 1.82658l0.385897 1.83173l1.92434 3.34959l0.144068 1.9192l-0.982752 12.3127l-0.668888 2.5675l-0.439923 0.68947l-1.73139 1.92949l-0.614863 0.401333l-1.01877 0.308718l-2.1919 1.26574l-0.910717 0.190376l-0.635444 -0.313863l-0.370461 -0.848974l-0.504239 -0.169795l-1.35321 0.149214l-0.452786 -0.154359l-0.805239 -0.617436l-0.337017 -1.03935l0.846401 -0.987897l1.88575 -1.27089l0.576273 -1.32749l0.282991 -0.95188l0.653453 -0.560837l1.70309 -0.185231l0.401333 0.26241l0.378179 0.540256l0.478513 0.488803l0.707478 0.0411624l0.604572 -0.360171l0.285564 -0.535111l-0.0463077 -0.648307l-0.375607 -0.68947l-0.282991 1.32749l-0.854119 -0.277846l-1.49214 -1.44583l-1.38666 0.159504l-1.26317 0.643162l-0.915863 0.282991l-0.355025 -0.884991l0.264983 -1.38923l1.18856 -2.70128l0.270128 -1.51786l0.236684 -0.782085l0.571128 -0.308718l0.720341 -0.138923l0.668888 -0.272701l0.478513 -0.493948l1.28632 -2.04783l-0.581418 0.154359l-0.324154 0.195521l-0.663743 0.68947l-0.52482 0.216102l-1.28118 -0.102906l-0.586564 0.0617436l-0.715196 0.488803l-0.560837 0.771794l-2.72958 7.03877l-4.31433 6.04572l-1.95007 2.10957l-2.05297 0.890136l-0.473367 0.828393l-0.473367 0.591709l-0.583991 0.344735l-0.604572 -0.0102906l-0.329299 -0.257265l-0.236684 -0.391043l-0.319008 -0.421914l-0.926153 -0.411624l-0.607145 0.473367l-0.221248 1.0445l0.221248 1.27089l0.241829 0.185231l1.72367 1.75455l0.221248 0.52482l0.0488803 0.715196l-0.0746068 1.36865l-0.635444 0.576273l-1.45097 -0.195521l-2.66269 -1.0445l-2.67041 -2.26908l-0.931299 -0.52482l-0.818102 -0.802666l-0.370461 -0.288137l-0.396188 -0.113196l-1.12682 -0.154359l-0.594282 -0.164649l-2.408 -1.54359l-6.71461 -7.90832l-5.2199 -4.8726l-2.03698 -0.663196l-1.84545 -0.887626l-2.05248 0.0695985l-3.3472 -1.11201l-1.16541 -0.529966l-2.65755 -2.34626l-1.39438 -0.529965l-0.995615 0.0102906l-0.753786 -0.144068l-0.478513 -0.571128l-0.373034 -2.1353l-0.48623 -0.95188l-1.0342 -1.4767l-0.8747 -0.900427l-2.34368 -1.87803l-0.259837 -0.406478l-0.298427 -0.663743l-0.133778 -0.617436l0.241829 -0.277846l0.504239 0.123487l0.231538 0.267555l0.133778 0.298427l0.210957 0.17494l1.60791 0.385897l0.758931 0.0463077l0.337017 0.200667l0.318334 1.07894l0.822498 0.88871l1.57706 -0.0679442l2.2616 -0.819242l3.21887 -2.59433l2.46321 -1.22812l2.25861 -2.52451l0.476247 -3.75669l-0.891835 -1.91542l-0.503183 -1.97093l-0.190376 -0.51453l0.281045 -0.659594l0.683968 -0.136051l0.889823 -0.476526l0.187846 -1.54231l-0.177513 -1.60533l-1.7419 -6.72955l-0.951661 -2.66062l-0.411624 -1.16798l-0.555692 -0.972461l-0.596854 -0.725487l-0.751213 -1.17313l-1.48699 -3.6686l-0.869555 -1.12167l-0.288137 -0.812957l-0.0951879 -0.926153l0.254692 -0.720341l2.21683 -1.55936l-0.271908 -1.47637l0.0154358 -1.83173l0.570624 -0.525479l0.752148 -0.683883l0.774813 -0.195883l1.04373 0.0077993l0.273609 -0.818753l-0.0321624 -0.90277l0.135047 -1.23102l0.323993 -1.09201l-0.285001 -1.45245l0.270233 -0.903516l1.09716 -0.533285l-0.100743 -1.54198l-1.88314 -2.60683l-3.76496 -4.50849l-3.07033 -5.40379l-1.33391 -3.2237l-0.817608 -1.84958l0.415347 -1.30306l0.763259 -0.761369l0.886799 -0.750072l0.821997 -0.889762l0.483081 -0.618705l0.479268 -0.615653l0.817584 -0.886146l0.753262 -0.889383l0.206075 -0.547389l0.684173 -0.273743l0.890588 0.271413l0.889888 -0.0013474l0.889349 -0.547464l0.820112 -0.341757l0.957515 0.203817l0.751432 -0.273193l0.751892 -0.273636l-0.134638 0.553842l1.16162 0.545625l0.956413 0.0678786l0.753176 -0.652946l0.478131 -0.204911l0.477882 -0.614302l0.682831 -0.204837l0.614543 0.88726l0.546345 0.136336l1.16083 0.136175l1.57025 -0.614543l1.36577 -1.22946l1.43339 -1.50178l0.909539 -3.93405l0.239256 -1.23487l0.830163 -4.08726l1.1602 -3.1393l1.43282 -2.86563l0.785662 -1.84489l0.30748 -0.340796l0.546316 -0.409923l0.887564 -0.136699l0.818096 -0.271763l0.136121 1.63838l0.886046 1.29745l1.70876 0.749309l1.63921 0.204372l3.40562 0.0702286l0.000689157 -0.750702l-1.76737 -0.480259l-1.91105 -0.409779l-1.29772 0.000362471l-0.887453 -0.682646l-0.682909 -1.77464l-0.823273 -1.49621l-0.886632 -0.34159l-0.476873 -0.683633l-0.0691307 -1.49925l-0.680163 -1.77981l-0.194726 -1.82948l-0.896692 -1.99593l-1.16067 -1.3644l-0.750298 -2.66917l0.683664 -0.894865l1.29576 -0.124337l2.05049 -1.64809l1.97613 -2.9885l0.640009 -1.11106l0.162077 -0.854119l0.56273 -1.37968l0.546939 -1.02332l1.36403 -0.478365l0.819588 -1.29665l0.82193 -1.36462l1.15986 1.02389l1.36742 -0.682328l1.50346 -1.1606l1.77634 -1.29737l3.76275 -4.09841l3.00371 -3.87395l0.70789 -0.864443l0.362332 -0.442463l0.447641 -1.25545l0.128632 -0.77694l0.313863 -0.267555l0.414196 -0.13635l1.31577 -0.417926l0.955327 -2.38883l0.545548 -2.11601l0.363153 -3.32l-0.0900426 -1.52044l-0.493948 -2.69356l-0.144068 -4.78513l0.576273 -1.66965l0.0205812 -0.545401l0.159504 -0.236684l0.684324 0.329299l0.290709 0.313863l0.239256 0.465649l0.293282 0.949307l0.470795 0l0.095188 -0.792376l0.648307 -1.23744l0.159504 -0.558265l-0.149214 -0.800094l-0.367889 -0.555692l-0.856692 -0.841256l-1.50243 -2.46202l-0.450213 -1.25031l-0.167222 -1.27346l0.180085 -1.39952l0.43735 -0.725487l0.560837 -0.596854l0.547974 -1.00591l0.123487 -1.31977l-0.342162 -1.28118l-0.452786 -1.10367l-0.432205 -1.80857l-0.571128 -0.753786l-0.887564 -0.47594l-1.14226 -0.164649l-0.810384 -0.308718l-0.560837 -0.761504l-0.365316 -0.977606l-0.208384 -0.972461l-0.0231538 -2.72186l0.717769 -2.67041l1.35579 -2.26393l1.87289 -1.48699l1.08051 0.545401l0.926153 0.110624l2.09671 -0.185231l0.941589 -0.270128l1.24259 -1.15769l0.856692 -0.26241l0.902999 -0.144068l1.58475 -0.620008l2.00409 -0.339589l1.19114 -0.895282l0.792376 -0.200667l0.468222 -0.234111l1.92434 -1.52815l0.455359 -0.478513l0.810384 -1.17827l0.463077 -0.463077l1.505 -0.684324l3.78437 -1.19885l1.65679 -1.18085l0.33959 0.648307l0.0257265 0.578846l-1.27089 3.95673l0.293282 0.944162l0.52482 0.553119l0.663743 0.457931l0.715196 0.671461l0.848974 1.71596l0.445068 0.483658l-1.0342 -2.83506l-0.815529 -0.692042l-0.264983 -0.401333l0.00257264 -0.352453l0.324154 -0.581418l0.0617436 -0.360171l-0.095188 -1.58475l0.141496 -1.204l0.553119 -0.887564l1.12682 -0.635444l2.72443 0.782085l2.98942 -1.69023l4.29632 -3.92072l1.35836 -0.352453l4.45068 0.352453l0.550547 -0.131205l1.44068 -0.565983l0.617436 -0.128632l1.72882 0.0308718l0.797521 -0.131205l0.710051 -0.370461l1.52044 0.802666l1.79056 -0.249547l1.81372 -0.627726l1.60533 -0.357598l1.16541 -0.617436l4.77226 -6.321l0.923581 -0.504239l1.55902 0.535111l1.23487 1.02906l0.794948 1.29404l0.424487 1.54359l0.131205 1.78285l1.20914 -0.640589l0.658598 -0.939017l0.277846 -1.18342l0.200667 -2.77846l0.391043 -0.725487l0.560837 -0.578846l0.668888 -0.959598l0.208384 0.540256l0.370461 0.249547l0.511957 -0.0385897l0.632871 -0.319008l0.571128 -0.535111l0.0900426 -0.447641l-0.0282991 -0.496521l0.231538 -0.679179l1.03163 -1.17055l1.05221 -0.169795l2.66784 0.908145l-0.460504 -0.91329l-1.13197 -0.298427l-1.32234 -0.133778l-1.01362 -0.421914l-0.439923 -0.887564l0.218675 -0.833538l0.555692 -0.73835l2.36169 -2.3514l0.365316 -0.838683l-0.0282991 -0.957025l-0.22382 -0.859264l0.118342 -0.694615l1.00076 -0.473367l-0.424487 -1.13197l-0.782085 -0.674034l-0.838683 -0.535111l-0.586564 -0.717769l-0.0720342 -0.964743l0.133778 -1.19885l0.0102906 -1.19885l-0.465649 -0.957025l-0.403906 -0.113196l-0.815529 0.38847l-1.23954 0.557407l-0.52682 -0.614598l-0.643858 -0.585272l-0.819616 -0.117064l-0.614682 -0.555975l-1.37643 -0.760967l-0.565357 -0.271502"/>
<path d="M-4972.13 -79.6265l-1.48007 -0.457417l-1.23993 -0.96384l-0.952408 -1.27424l-0.622416 -1.39839l-0.650185 -1.0684l-1.8656 -1.50457l-1.32651 -1.84927l-3.7105 -2.54319"/>
<path d="M-4967.62 -75.6078l-0.35613 -1.01938l-1.32324 -1.39839l-0.241774 -0.653453l-0.107818 -1.21543l-0.59301 -0.17643"/>
<path d="M-4972.13 -79.6265l0.993246 -0.163362l0.887065 -0.280986"/>
<path d="M-4927.04 -55.1547l-0.686128 -0.0130687l-4.29972 -1.62056l-4.48268 -0.163368l-2.65955 -1.29383l-8.2286 -6.22087l-1.29384 -0.686122l-3.75898 -1.01285l-1.21052 -0.58811l-1.49151 -1.13701l-5.94969 -6.61294l-0.708852 -0.55266l-0.447762 -0.349105l-3.5025 -0.803747"/>
<path d="M-4965.76 -76.209l-0.94914 0.0784185l-0.913202 0.52276"/>
<path d="M-4920.69 -51.1425l-1.28077 -0.0228686l-1.34938 -0.303855l-1.47353 -0.568504l-0.669791 -0.571773l-0.130693 -0.68286l0.0196062 -0.702459l-0.225443 -0.643647l-0.614241 -0.646922l-0.303861 -0.0392061"/>
<path d="M-4927.04 -55.1547l0.323455 -0.169899"/>
<path d="M-4902.71 -41.5041l-2.30669 -0.914834l-4.15596 -2.86866l-1.34284 -1.9865l-0.41168 -4.54803l-1.88847 -1.48334l-1.56176 -0.0130687"/>
<path d="M-4920.69 -51.1425l1.27096 -0.26138l5.04138 -1.91462"/>
<path d="M-4881.44 -21.1295l-0.986708 -0.294049l-0.931171 -0.477023l-1.19255 -0.431279l-6.7273 -1.36571l-2.20867 -0.810284l-1.70224 -1.30691l-0.653453 -1.61402l-0.277718 -1.88848l-0.571766 -2.12372l-0.405142 -6.64561l-0.852759 -3.06469l-2.61054 -0.653453"/>
<path d="M-4900.56 -41.8047l-0.302907 0.0423484l-1.84695 0.258238"/>
<path d="M-4816.36 -25.2985l-1.54868 -0.10455l-1.36899 -0.313661l-1.26116 -0.548898l-1.21542 -0.797215l-1.74472 -1.84274l-0.630585 -0.28098"/>
<path d="M-4824.13 -29.1865l-0.702459 0.19603l-1.14681 0.869096l-0.329992 0.196037l-0.352867 0.320192l-1.57156 1.8754l-0.588104 0.215643l-0.67306 0.130687l-1.36571 0.0849496"/>
<path d="M-4831.46 -25.4096l0.59791 0.111087"/>
<path d="M-4840.88 -13.6605l0.924634 -0.117625l1.6369 -0.842953l6.27315 -0.725334l1.1174 -0.744934l-0.653453 -4.19516l0.156831 -4.7114l-0.0326749 -0.411673"/>
<path d="M-4812.69 -22.2403l-0.323455 -0.496629l-0.356136 -1.67284l-0.378998 -0.673053l-0.529298 -0.235243l-0.705728 -0.0522811"/>
<path d="M-4816.36 -25.2985l1.37552 -0.071881"/>
<path d="M-4808.51 -22.9853l0.60771 0.947508l0.274449 0.751472l4.23764 5.35831l0.313655 0.797215l0.287517 1.21542l0.695928 1.01939l1.57156 1.45066l3.8423 2.37203l0.529291 0.86909l2.5354 1.87541l1.78066 0.993246l1.04226 0.418211l1.22522 0.300586l1.40493 0.117625"/>
<path d="M-4808.51 -22.9853l-1.42453 0.176437l-1.60096 0.509692l-1.15335 0.0588123"/>
<path d="M-4859.97 -15.1438l-0.957308 -0.0392124l-0.908302 -0.326724l-1.0782 -0.790678l-1.37879 -1.39186l-0.643647 -0.457417l-1.0488 -0.36593l-0.787409 -0.130693l-2.52886 -0.0457373l-1.87868 -0.633854l-2.41777 -2.73143l-1.3274 -0.333337l-0.858399 -0.215561"/>
<path d="M-4875.78 -22.6063l-1.0978 0.202568l-3.18558 1.19582l-1.37552 0.0784121"/>
<path d="M-4840.88 -13.6605l-1.19582 -0.41168l-1.68917 -1.57482l-0.999783 -0.699197l-0.908296 -0.267911l-3.08103 -0.339799l-2.1858 -0.594641"/>
<path d="M-4850.94 -17.5485l-0.780872 0.294055l0.160093 2.51579l-0.96384 0.0261437"/>
<path d="M-4852.52 -14.7126l-2.25442 -1.01285l-0.797209 -0.0784185"/>
<path d="M-4859.97 -15.1438l4.3912 -0.659991"/>
<path d="M-4759.83 6.76643l-1.16804 -0.69266l-4.01383 -1.47027l-3.53845 -0.673053l-1.23176 -0.888696l-1.51927 -0.529298l-3.67894 -2.26095l-2.97321 -2.65301l-1.12721 -0.372473l-0.650185 -0.411673l-0.803747 -0.901765l-0.999783 -0.901765l-1.25789 -0.411673"/>
<path d="M-4782.79 -5.40085l-1.19092 0.143762l-2.72653 0.620779l-1.45393 0.137224"/>
<path d="M-4741.9 9.81016l-0.576097 -0.625957l-0.395342 -0.300586l-0.589741 -0.176437l-1.10923 -0.0261374l-0.537466 -0.189499l-0.731866 -0.705728l-2.48639 -3.41756l-1.20235 -0.947502l-1.32978 -0.67306l-2.84579 -0.771072l-1.2677 -0.137224"/>
<path d="M-4754.98 1.8394l-0.970377 0.209105l-0.60771 0.646916l-0.215637 1.22196l-0.316924 0.810278l-0.784147 0.93444l-0.999783 0.771072l-0.957308 0.333261"/>
<path d="M-4778.02 7.69433l-0.986708 -0.189499l-1.15335 -0.463954l-1.13701 -0.300586"/>
<path d="M-4781.29 6.74029l-0.923002 0.307124l-0.354498 1.0978l0.303855 1.39839l0.61751 1.23503l0.57341 0.659985l0.596272 0.130693"/>
<path d="M-4764.67 9.47826l1.00959 -0.0522811l0.841315 -0.28098l0.808653 -0.398611l1.42943 -1.01285l0.749834 -0.967108"/>
<path d="M-4769.06 10.3473l-1.62873 -0.156831l-4.45655 -2.39817l-0.85439 -0.202568l-0.887059 -0.0130687"/>
<path d="M-4776.89 7.57671l-1.13048 0.117618"/>
<path d="M-4764.67 9.47826l-2.16293 -0.307124"/>
<path d="M-4766.83 9.17113l-0.52766 0.0457373l-1.70224 1.13048"/>
<path d="M-4765.01 29.6373l-0.648553 -0.111087l-0.717166 -0.444342l-1.17784 -1.11087l-1.80843 -2.48966l-1.16968 -2.67915l-2.0257 -7.14224l-0.722066 -0.921371l-1.00958 -0.633847l-1.35101 -0.444348l-0.782509 -0.398605l-1.32324 -1.24809l-0.767809 -0.463954l-0.615879 -0.0849496"/>
<path d="M-4780.48 11.5693l1.35428 -0.104556"/>
<path d="M-4759.98 33.4469l-0.320186 -0.0653498l-0.245049 -0.300586l-0.326724 -0.725334l-0.269549 -0.294049l-2.46515 -1.91462l-0.258111 -0.372467l-0.361036 -0.202574"/>
<path d="M-4765.01 29.6373l0.77924 -0.0653434"/>
<path d="M-4762.51 61.676l2.68406 -0.320186l2.98955 0l0.565235 -0.0392124l-0.0147062 -0.424742l-0.459048 -0.627316l-0.606079 -0.529298l-0.488454 -0.718797l-0.115987 -0.588104l0.101287 -1.09127l-0.0196062 -0.568504l-2.80821 -9.5404l0.0261374 -0.790678l0.401873 -1.13701l0.133962 -0.646922l-0.0326749 -0.640378l-0.271186 -1.16315l-0.0653434 -0.620779l0.287517 -0.751472l0.674691 -0.450879l0.766178 -0.392073l0.000379352 -0.00039832l0.568124 -0.600774l0.130687 -0.561973l-0.0882184 -0.477017l-0.147024 -0.457423l-0.0522748 -0.52276l0.196037 -2.48312l-0.23198 -1.16968l-0.717159 -1.12394l-0.284255 -0.0980183"/>
<path d="M-4759.98 33.4469l0.59301 -0.307124"/>
<path d="M-4767.6 57.8599l1.7921 1.6467l0.862552 0.993246l0.367567 0.633854l0.624047 0.509692l1.44086 0.0326686"/>
<path d="M-4945.89 221.733l0.860928 -0.411673l1.00141 -0.816815l1.12067 -0.24178l0.973646 -0.411673l0.581573 -1.29384l-0.133956 -1.73818l-0.793947 -0.908302l-0.996514 -0.705728l-0.730234 -1.15008l0.00653751 -1.38532l0.746566 -0.895234l2.30342 -1.71204l0.780878 -1.12394l1.95382 -3.74428l0.888696 -0.973646l3.05489 -2.5354l6.39077 -8.56023l4.65586 -4.06448l1.18928 -0.60771l2.44345 -0.853208l1.74845 -0.61053l7.94925 -2.77717l7.95252 -2.77718l7.94925 -2.78371l7.94925 -2.77718l7.94925 -2.78371l7.95578 -2.77718l7.94925 -2.77718l7.95252 -2.78371l5.82226 -2.03224l0.943924 -0.572272l2.8069 -1.70174l3.58092 -2.7445l3.77369 -2.88826l3.77369 -2.88826l3.77042 -2.88173l3.77696 -2.89479l3.77042 -2.88826l3.77695 -2.88173l3.77042 -2.88826l3.77042 -2.88826l3.15944 -3.67894l3.15618 -3.6724l3.15944 -3.67893l3.15617 -3.67894l3.15617 -3.67893l3.16108 -3.67894l3.15617 -3.67894l3.15454 -3.6724l2.5452 -2.96667l3.4731 -3.22152l0.999195 -1.20782l0.487411 -0.589179l0.821715 -2.1956l0.92954 -3.6528l1.89828 -7.44936l1.89828 -7.45589l1.89828 -7.45589l1.89828 -7.44936l0.800478 -3.1235l0.390436 -0.555435"/>
<path d="M-4945.89 221.733l-0.604441 -1.15008l-0.87399 -4.06448l-0.473754 -0.947502l-0.790678 -0.633854l-2.7396 -0.76454l-1.32488 -0.182962"/>
<path d="M-4952.7 213.989l-1.0635 0.320192l-0.691022 1.19581l0.0588059 0.405142l0.385536 1.24156l-0.0375685 0.69266l-0.483554 2.73143l-0.817738 2.56834l-0.0872953 0.274177l-1.16478 2.5354l-0.424742 1.30037l-0.147024 1.22849l0.0294061 2.27402l0.263011 1.2873l-0.0408436 0.614247l-0.481917 0.365936l-0.805384 0.137224l-0.300586 0.10455l-0.0359373 0.32673l0.00326243 0.797209l0.808653 4.08408l-0.385542 1.21543l-1.54214 1.50294l-0.501529 0.320192l-0.77924 0.365936l-0.382267 0.287517l-0.651822 1.22196l-0.452517 1.20889l-0.624047 4.67872l0.00489997 0.437817l-0.26138 0.26138l-0.882159 0.483554l-0.816815 0.254849l-0.766172 0.0588059l-0.704097 0.182968l-0.643654 0.666522l-0.305486 1.03899l0.0620747 3.76389l-0.676322 2.80331l-3.85373 8.05054l-0.60281 2.7641l-0.545635 1.23503l-1.16315 0.967115l-0.524398 1.32651l0.0767809 2.37203l0.509692 2.3459l0.76944 1.20888l1.50294 0.914834l-0.169899 1.01939l-0.976908 1.19582l-0.913202 1.47026l-0.163362 1.16315l0.0588123 1.26116l-0.0767809 1.21542l-0.570141 1.01938l-1.72329 1.13794l-0.681412 0.449956l-5.78959 2.30668l-2.64158 1.48987l-2.88173 2.65302l-1.18274 1.62709l-0.712266 1.73819l0.0457436 1.73165l1.42616 2.84252l0.323461 1.50947l-0.669791 1.25463l-1.46373 0.326724l-1.66304 0.0130687l-1.26933 0.320192l-0.674691 1.03899l-0.700828 3.08103l-0.454148 1.32651l-1.632 1.73165l-1.82313 1.50947"/>
<path d="M-5078.61 253.876l1.31998 -0.646916l1.0635 -1.31344l0.918096 -1.46374l0.898502 -1.11086l4.92703 -2.26095l1.00468 -1.13048l0.0115955 -0.591139l0.00147315 -0.0753836l-0.382267 -0.372467l-0.566873 -0.36593l-0.550529 -0.640385l-0.169899 -0.542366l0 -1.16968l-0.0800497 -0.568504l-0.558704 -1.27423l-1.26933 -2.0257l-0.295686 -1.27423l0.117625 -0.483554l0.269549 -0.437811l0.210737 -0.490092l-0.0637122 -0.620779l-0.387167 -1.18275l-0.0604498 -0.490092l0 -0.633847l0.104556 -0.555435l0.411673 -1.22849l0.0996559 -0.627316l-0.0751497 -0.69266l-0.362667 -1.20889l-0.00979994 -0.705728l-0.171531 -0.594641l-0.548904 -0.254849l-0.624047 -0.202568l-0.406773 -0.437811l0.00489997 -0.490092l0.491723 -1.70551l0.117625 -1.20889l-0.00163754 -0.620779l-0.150293 -0.561966l-0.405136 -0.457417l-1.04226 -0.431279l-0.383905 -0.352867l-0.142124 -1.31998l0.385536 -1.31344l0.133956 -1.10433l-0.890327 -0.686128l-2.3949 -0.633847l-1.02919 -0.535829l-0.431545 -0.22476"/>
<path d="M-5078.61 253.876l-1.18601 -0.241774l-2.66772 -1.43106l-1.30528 -0.411673l-1.2873 -0.071881"/>
<path d="M-5085.06 251.72l-1.27913 0.0914808l-1.16641 0.339799l-0.94424 0.673053l-0.689391 1.01939l-0.733503 1.52908l-0.545629 1.58789l-0.0051339 0.0530271l-0.112491 1.16239l0.316924 0.784147l1.04063 1.43106l0.343061 0.810278l0.0212374 0.594641l-0.243411 1.20235l-0.00489997 0.58811l1.33794 2.79678l2.2054 0.235243"/>
<path d="M-5079.86 265.449l-0.697559 1.39839l-8.36093 11.0891l-0.23688 1.0782l0.553804 1.32651l0.857653 0.76454l2.83599 1.60749l1.05043 0.379005"/>
<path d="M-5079.86 265.449l-2.91767 0.359398l-2.73796 0.810278"/>
<path d="M-5066.9 270.8l0.403511 0.686122l1.05206 0.32673l1.2873 0.235243l1.088 0.392067l1.14028 0.973646l2.04531 2.22827l1.27586 0.895234l1.71205 0.934433l1.64343 0.196037l1.62383 0.0196062l1.65977 0.418211l1.60259 1.4768l1.32814 1.97996l1.57155 1.62056l2.34753 0.365936"/>
<path d="M-5066.9 270.8l-0.179699 0.0653434l-2.57623 0.333261l-0.691028 0.235243l-0.650185 0.320192l-0.530929 0.424742l-0.537466 0.888696l-0.648553 2.2152l-0.472117 0.999783l-0.994883 1.07166l-4.86169 3.72468l-2.58931 1.38532l-0.60771 0.548904l-0.49826 0.0457373l-1.1223 0.0326749"/>
<path d="M-5029.68 285.771l-0.388805 -0.209105l-0.901765 -0.666522l-0.493354 -0.235243l-3.19212 -3.14964l-1.74799 -0.86909"/>
<path d="M-5036.41 280.641l-2.28545 0.307124l-2.17927 1.29383l-4.24581 1.30691"/>
<path d="M-5012.53 314.062l-1.45067 -0.385536l-0.882159 -1.06513l-0.674691 -1.33631l-0.834784 -1.20235l-0.557066 -0.365936l-1.23339 -0.463948l-0.550535 -0.398611l-0.338161 -0.54236l-0.411673 -1.24809l-0.34143 -0.561973l-1.0978 -0.810278l-1.30364 -0.686128l-1.09126 -0.86909l-0.454148 -1.33958l-0.193982 -1.17304l-0.0134923 -0.0815861l-1.65487 -3.11044l-0.726966 -3.75082l-1.84274 -2.69223l0.0424748 -1.35918l1.4572 -2.58767l0.158462 -0.927902l-0.352867 -0.594641l-1.28567 -0.751472"/>
<path d="M-5028.16 285.758l-1.52254 0.0130687"/>
<path d="M-5003.71 315.069l-1.10433 -0.248311l-2.11392 -0.738397l-1.11087 -0.182968"/>
<path d="M-5012.53 314.062l2.94527 -0.107256l1.54068 -0.0561062"/>
<path d="M-4998.85 316.846l-1.17131 -1.15661l-0.691028 -0.50316l-0.681222 -0.320192l-0.655091 -0.0784121"/>
<path d="M-5003.71 315.069l0.643647 -0.0261374l1.02102 -0.254843"/>
</g>
<g stroke-width="0.5px" stroke="rgb(0,0,0)" fill="none">
<path d="M-5058.03 323.082l0 -424.242"/>
<path d="M-4741.9 -0l-391.997 0"/>
</g>
</g>
<g id="left" inkscape:label="left" transform="translate(385.839,-351.365)">
<g text-anchor="end" font-size="0.15cm" font-family="Helvetica" fill="rgb(0,0,0)">
<text x="-328.533" y="-0" dominant-baseline="middle">0<tspan dominant-baseline="middle" font-size="0.15cm" font-family="Helvetica" fill="rgb(0,0,0)"></tspan><tspan dominant-baseline="middle" font-size="0.15cm" font-family="Helvetica" fill="rgb(0,0,0)">N</tspan></text>
</g>
</g>
<g id="right" inkscape:label="right" transform="translate(804.773,-351.365)">
<g text-anchor="start" font-size="0.15cm" font-family="Helvetica" fill="rgb(0,0,0)">
<text x="-350.081" y="-0" dominant-baseline="middle">0<tspan dominant-baseline="middle" font-size="0.15cm" font-family="Helvetica" fill="rgb(0,0,0)"></tspan><tspan dominant-baseline="middle" font-size="0.15cm" font-family="Helvetica" fill="rgb(0,0,0)">N</tspan></text>
</g>
</g>
<g id="top" inkscape:label="top" transform="translate(5193.9,-462.782)">
<g text-anchor="middle" font-size="0.15cm" font-family="Helvetica" fill="rgb(0,0,0)">
<text x="-5058.03" y="7.56296" dominant-baseline="no-change">80<tspan dominant-baseline="no-change" font-size="0.15cm" font-family="Helvetica" fill="rgb(0,0,0)"></tspan><tspan dominant-baseline="no-change" font-size="0.15cm" font-family="Helvetica" fill="rgb(0,0,0)">W</tspan></text>
</g>
</g>
<g id="bottom" inkscape:label="bottom" transform="translate(5193.9,-25.0714)">
<g text-anchor="middle" font-size="0.15cm" font-family="Helvetica" fill="rgb(0,0,0)">
<text x="-5058.03" y="-0.517846" dominant-baseline="hanging">80<tspan dominant-baseline="hanging" font-size="0.15cm" font-family="Helvetica" fill="rgb(0,0,0)"></tspan><tspan dominant-baseline="hanging" font-size="0.15cm" font-family="Helvetica" fill="rgb(0,0,0)">W</tspan></text>
</g>
</g>
</g>
</g>
<g inkscape:groupmode="layer" inkscape:label="Coastline" id="Coastline"><title>Coastline</title>
<g id="Page0" inkscape:label="Page0">
<g id="drawing" inkscape:label="drawing" transform="translate(5193.9,-351.365)">
<g stroke-width="1px" stroke="rgb(51,51,51)" fill="none">
<path d="M-5133.9 323.082l0 -424.242l391.997 0l0 424.242l-391.997 0"/>
</g>
</g>
</g>
</g>
<g id="Clone of page" inkscape:label="Clone of page">
<g>
<g id="TextVisitor0" inkscape:label="TextVisitor0" transform="translate(60,-494.276)">
<g text-anchor="middle" font-size="0.18cm" font-family="Arial" fill="rgb(0,0,102)">
<text x="195.999" y="-2.6936" dominant-baseline="no-change">Monday 13 December 2021 12 UTC ecmf t+12 VT:Tuesday 14 December 2021 00 UTC surface  Total precipitation </text>
</g>
</g>
</g>
</g>
<g id="Clone for legend" inkscape:label="Clone for legend">
<g>
<g id="legend" inkscape:label="legend" transform="translate(60,-465.993)">
<g transform="translate(19.5999,-26.8687)">
<g text-anchor="middle" font-size="0.12cm" font-family="Helvetica" fill="rgb(0,0,102)">
<text x="0" y="4.45455" dominant-baseline="no-change">0.1</text>
<text x="58.7996" y="4.45455" dominant-baseline="no-change">3.1</text>
</g>
<g fill-rule="evenodd" stroke="rgb(0,0,0)">
<path fill="rgb(0,0,0)" d="M0 7.63636v15.2727h58.7996v-15.2727h-58.7996"/>
</g>
<g stroke-width="0.5px" stroke="rgb(0,0,0)" fill="none">
<path d="M0 7.63636l0 15.2727l58.7996 0l0 -15.2727l-58.7996 0"/>
</g>
<g stroke-width="1px" stroke="rgb(0,0,0)" fill="none">
<path d="M0 22.9091l58.7996 0"/>
<path d="M0 7.63636l58.7996 0"/>
<path d="M58.7996 7.63636l0 15.2727"/>
</g>
<g text-anchor="middle" font-size="0.12cm" font-family="Helvetica" fill="rgb(0,0,102)">
<text x="176.399" y="4.45455" dominant-baseline="no-change">0.1</text>
</g>
<g fill-rule="evenodd" stroke="rgb(254,233,0)">
<path fill="rgb(254,233,0)" d="M176.399 7.63636v15.2727h58.7996v-15.2727h-58.7996"/>
</g>
<g stroke-width="0.5px" stroke="rgb(0,0,0)" fill="none">
<path d="M176.399 7.63636l0 15.2727l58.7996 0l0 -15.2727l-58.7996 0"/>
</g>
<g stroke-width="1px" stroke="rgb(0,0,0)" fill="none">
<path d="M176.399 22.9091l58.7996 0"/>
<path d="M176.399 7.63636l58.7996 0"/>
</g>
<g text-anchor="middle" font-size="0.12cm" font-family="Helvetica" fill="rgb(0,0,102)">
<text x="235.198" y="4.45455" dominant-baseline="no-change">1.1</text>
</g>
<g fill-rule="evenodd" stroke="rgb(192,153,106)">
<path fill="rgb(192,153,106)" d="M235.198 7.63636v15.2727h58.7996v-15.2727h-58.7996"/>
</g>
<g stroke-width="0.5px" stroke="rgb(0,0,0)" fill="none">
<path d="M235.198 7.63636l0 15.2727l58.7996 0l0 -15.2727l-58.7996 0"/>
</g>
<g stroke-width="1px" stroke="rgb(0,0,0)" fill="none">
<path d="M235.198 22.9091l58.7996 0"/>
<path d="M235.198 7.63636l58.7996 0"/>
</g>
<g text-anchor="middle" font-size="0.12cm" font-family="Helvetica" fill="rgb(0,0,102)">
<text x="293.998" y="4.45455" dominant-baseline="no-change">2.1</text>
<text x="352.798" y="4.45455" dominant-baseline="no-change">3.1</text>
</g>
<g fill-rule="evenodd" stroke="rgb(169,254,0)">
<path fill="rgb(169,254,0)" d="M293.998 7.63636v15.2727h58.7996v-15.2727h-58.7996"/>
</g>
<g stroke-width="0.5px" stroke="rgb(0,0,0)" fill="none">
<path d="M293.998 7.63636l0 15.2727l58.7996 0l0 -15.2727l-58.7996 0"/>
</g>
<g stroke-width="1px" stroke="rgb(0,0,0)" fill="none">
<path d="M293.998 22.9091l58.7996 0"/>
<path d="M293.998 7.63636l58.7996 0"/>
<path d="M352.798 7.63636l0 15.2727"/>
</g>
</g>
</g>
</g>
</g>
<g id="Page0" inkscape:label="Page0">
</g>
</g><!--ePage-->
</svg>
