<?xml version="1.0" ?>
<svg version="1.1" encoding="iso-8859-1" baseProfile="full"
xmlns:dc="http://purl.org/dc/elements/1.1/"
xmlns:cc="http://creativecommons.org/ns#"
xmlns:rdf="http://www.w3.org/1999/02/22-rdf-syntax-ns#"
xmlns="http://www.w3.org/2000/svg"
xmlns:xlink="http://www.w3.org/1999/xlink"
xmlns:ev="http://www.w3.org/2001/xml-events"
xmlns:sodipodi="http://sodipodi.sourceforge.net/DTD/sodipodi-0.dtd"
xmlns:inkscape="http://www.inkscape.org/namespaces/inkscape"
inkscape:version="0.46"
inkscape:output_extension="org.inkscape.output.svg.inkscape"
viewBox="0 0 801 566" xml:space="preserve">
<title>MAGICS++ PLOT</title>
<metadata id="MAGICSmetadata">
<rdf:RDF><cc:Work rdf:about="">
	<dc:format>image/svg+xml</dc:format>
	<dc:title>MAGICS++ PLOT</dc:title>
	<dc:author>mofp on ac6-100.bullx</dc:author>
	<dc:date>Mon Oct  9 16:02:24 2023</dc:date>
	<dc:language>en-GB</dc:language>
	<dc:creator><cc:Agent><dc:title>Metview 5.19.1</dc:title></cc:Agent></dc:creator>
	<dc:publisher><cc:Agent>
	 <dc:title>Magics 4.13.0</dc:title>
	</cc:Agent></dc:publisher>
	<dc:coverage>Plot of meteorological data</dc:coverage>
</cc:Work></rdf:RDF>
</metadata>
<g id="page" transform="translate(0,565.657)" vector-effect="non-scaling-stroke">
<g id="Page0" inkscape:label="Page0">
</g>
<g inkscape:groupmode="layer" inkscape:label="Coastline" id="Coastline"><title>Coastline</title>
<g id="Page0" inkscape:label="Page0">
<g id="drawing" inkscape:label="drawing" transform="translate(4670.1,-339.394)">
</g>
</g>
</g>
<g inkscape:groupmode="layer" inkscape:label="PythonScript, line 0:2(BG)" id="PythonScript, line 0:2(BG)"><title>PythonScript, line 0:2(BG)</title>
<g id="Page0" inkscape:label="Page0">
<g id="drawing" inkscape:label="drawing" transform="translate(4670.1,-339.394)">
<g fill-rule="evenodd" stroke="none">
<path fill="rgb(164,230,243)" d="M-4577.96 309.064l-1.71069 -1.91015l-5.27308 -5.097l-0.956446 -1.18891l-1.25912 -0.33247l-0.743171 0.249788l-1.35829 -0.964852l-1.18163 -1.8513l-1.45465 -1.64799l-1.14623 -1.72164l0.279259 -0.554762l0.376795 -0.467849l0.74493 -0.306688l0.436732 -1.14689l-0.203337 -0.631035l-0.466107 -0.583248l0.0640776 -0.733928l0.796065 -0.200474l-0.250444 -0.999074l-0.246428 -1.20942l0.48806 -0.833031l0.895649 0.116525l1.00755 -0.562325l0.93632 0.955558l1.68656 -0.134072l0.857948 -1.24513l0.239573 -1.98878l-1.22558 -2.6901l-1.86981 -1.91368l-1.77224 -1.33617l-1.34244 -2.01241l-0.92551 -1.69236l-1.91751 -2.54828l-4.53008 -4.85163l-1.9273 -2.39917l0.275458 -0.783836l0.695707 -0.353767l0.856178 -0.827301l-0.150493 -1.11269l-0.486719 -1.28097l0.485656 -2.89549l0.0253131 -0.893047l-0.31993 -1.01733l-0.53859 -1.15543l-0.354452 -1.08638l0.232468 -0.851619l0.593826 -0.524777l0.393584 -0.280803l0.34065 -0.322232l0.425804 -0.635261l0.807882 -1.92419l0.02072 -1.28893l-0.828602 -3.17169l0.273897 -1.11861l0.639865 -1.33957l0.771058 -1.22909l0.635255 -0.77336l4.93016 -3.35582l1.28203 -1.31195l1.05416 -1.86435l0.791772 -0.883838l1.07027 -0.372869l1.02424 -0.239375l0.612244 -0.626052l0.890739 -1.84133l3.0451 -4.58491l1.77228 -1.85054l2.13594 -1.67101l2.31317 -1.29814l0.856217 -0.800981l0.338347 -1.18766l0.151907 -1.27052l0.382078 -1.18766l1.01273 -1.98403l1.5191 -1.91037l2.03006 -1.6572l8.97188 -5.34446l1.61346 -1.56053l2.39143 -3.50313l0.342946 -1.17845l0.455727 -0.184133l0.566211 -0.0920663l0.504062 -0.294617l0.879234 -0.340644l3.93354 0.128896l1.08409 -0.239375l1.16004 -0.483348l0.920663 -0.745739l0.382078 -1.00813l0.156512 -0.621447l0.750343 -1.27512l0.248578 -0.616848l0.0184121 -0.552398l-0.121984 -0.405095l-0.0690497 -0.423507l0.172621 -0.580019l0.759547 -0.455727l0.349853 -0.66748l0.280803 -0.791772l0.543194 -0.791772l-0.573112 1.58815l-0.200248 0.382073l0.352155 1.16004l0.678992 -0.524777l0.317627 -1.77689l0.580019 -0.828596l1.54672 1.54671l0.768756 -0.322232l4.09236 -0.837805l0.70431 0.0690497l0.464936 0.115083l0.414298 0.0230166l0.543189 -0.207149l1.28893 -1.5191l0.255484 -0.220957l2.13824 -4.44681l0.598431 -0.800975l1.26592 0.239369l0.262391 1.34877l-0.400491 2.70215l0.60764 -0.359056l0.375172 -0.547799l0.31993 -0.630656l0.451122 -0.612238l0.515573 -0.409699l1.7999 -1.13242l0.837805 -0.9713l0.550095 -1.18305l0.310726 -1.27513l0.262391 -2.18197l0.920663 -2.04388l1.90347 -3.0428l0.483348 -1.13242l-0.563903 -0.985114l0.204847 -1.27972l0.745739 -2.2096l0.124286 -0.994317l1.76768 -5.76797l1.19456 -2.14055l0.128891 -0.372869l0.554705 -1.21067l0.209451 -1.31655l1.20147 -3.29598l0.649068 -0.9713l1.69632 -1.73546l0.483348 -1.00352l0.0759564 -1.36259l-0.363661 -2.52722l-0.764151 -1.97483l-0.184138 -0.313029l-1.23829 0.0736541l-0.639865 -0.055242l-0.455727 -0.220957l-0.683596 -1.04495l-1.09099 -3.03359l-0.706613 -1.114l-0.342946 -0.690497l-0.103572 -0.800981l0.0483354 -3.29598l-0.379776 -2.6331l-0.0230166 -0.73653l0.347551 -1.2429l0.089764 -0.764151l-0.262391 -0.340644l-0.0920663 -0.230166l-0.718118 -0.966701l-0.174924 -0.156512l-0.0851653 -0.386677l-0.168017 -0.285408l-0.128896 -0.386677l0.0345277 -0.681294l0.283105 -0.621447l0.372869 -0.483354l0.131193 -0.510969l-0.439617 -0.695101l0.874629 -0.920663l0.893047 -0.262391l0.695101 -0.409694l0.276199 -1.32576l0.428112 -0.635261l0.93447 -0.423507l0.934476 -0.626052l0.409699 -1.22448l-3.35583 1.90578l-0.363661 0.276199l-0.147308 0.497161l-0.0345277 0.998921l-0.414298 0.179528l-1.83442 0.124292l-0.4166 0.474139l-0.0966707 0.441919l-0.483348 1.3764l-0.481046 2.26484l-0.0782586 1.63418l0.345248 1.63879l1.72164 2.99676l0.128896 1.71704l-0.87924 11.0158l-0.598431 2.29706l-0.393584 0.616843l-1.54902 1.72625l-0.550101 0.359062l-0.911459 0.276199l-1.96101 1.13242l-0.814789 0.170325l-0.568513 -0.280803l-0.331441 -0.759552l-0.451122 -0.151907l-1.21067 0.133495l-0.405095 -0.138099l-0.72042 -0.552398l-0.301518 -0.929872l0.75725 -0.883838l1.68712 -1.13702l0.515573 -1.18766l0.253182 -0.851613l0.584623 -0.501766l1.5237 -0.16572l0.359062 0.23477l0.338342 0.483348l0.428112 0.43732l0.632958 0.0368242l0.540892 -0.322232l0.255484 -0.478749l-0.0414343 -0.580019l-0.33604 -0.616843l-0.253182 1.18766l-0.764151 -0.248583l-1.33497 -1.29353l-1.2406 0.142704l-1.13011 0.575414l-0.819393 0.253182l-0.317627 -0.791772l0.237072 -1.24289l1.06337 -2.41675l0.241677 -1.35798l0.211748 -0.699706l0.510969 -0.276199l0.644469 -0.124292l0.598431 -0.243973l0.428112 -0.441919l1.15083 -1.83212l-0.520178 0.138099l-0.290006 0.174924l-0.593832 0.616848l-0.469535 0.193336l-1.14623 -0.0920663l-0.524777 0.055242l-0.639865 0.437315l-0.50176 0.690497l-2.44206 6.29735l-3.85989 5.4089l-1.74466 1.88736l-1.83673 0.796377l-0.423507 0.741135l-0.423507 0.529381l-0.52248 0.308424l-0.540886 -0.00920889l-0.294617 -0.230166l-0.211754 -0.349853l-0.285402 -0.377474l-0.828602 -0.368265l-0.543189 0.423507l-0.197946 0.934476l0.197946 1.13702l0.216352 0.16572l1.54212 1.56973l0.197946 0.46954l0.0437309 0.639865l-0.0667475 1.22448l-0.568513 0.515573l-1.29814 -0.174929l-2.38222 -0.93447l-2.38912 -2.03007l-0.833201 -0.46954l-0.731931 -0.718118l-0.331441 -0.257787l-0.354452 -0.101275l-1.00813 -0.138099l-0.531683 -0.147303l-2.15435 -1.381l-6.00734 -7.07531l-4.67007 -4.35935l-1.82243 -0.59334l-1.65106 -0.794131l-1.83628 0.0622675l-2.99463 -0.994877l-1.04266 -0.474139l-2.37761 -2.09912l-1.2475 -0.474145l-0.890739 0.00920889l-0.674387 -0.128891l-0.428112 -0.510969l-0.333743 -1.91038l-0.435013 -0.851619l-0.925267 -1.32115l-0.782563 -0.80558l-2.09682 -1.68021l-0.232468 -0.363661l-0.266996 -0.593832l-0.119687 -0.552398l0.216358 -0.248578l0.451128 0.110478l0.207149 0.239375l0.119687 0.26699l0.188731 0.156512l1.43854 0.345248l0.678986 0.0414343l0.301518 0.179528l0.284802 0.965287l0.735863 0.795104l1.41094 -0.0607911l2.02338 -0.732949l2.87981 -2.32105l2.20375 -1.09876l2.02071 -2.2586l0.426081 -3.36099l-0.797898 -1.71366l-0.450178 -1.76333l-0.170325 -0.460337l0.25144 -0.590116l0.611927 -0.121718l0.796094 -0.426335l0.168062 -1.37985l-0.158819 -1.43624l-1.55842 -6.0207l-0.851421 -2.38036l-0.368265 -1.04496l-0.497161 -0.870025l-0.533985 -0.649068l-0.672085 -1.04956l-1.33036 -3.28217l-0.777959 -1.00353l-0.257787 -0.727327l-0.0851653 -0.828596l0.227869 -0.644464l1.98332 -1.39511l-0.243266 -1.32085l0.0138077 -1.63879l0.510522 -0.470128l0.672922 -0.611848l0.693195 -0.175252l0.933792 0.0069802l0.244788 -0.732508l-0.0287749 -0.807678l0.120824 -1.10136l0.289865 -0.976985l-0.254981 -1.29945l0.241767 -0.808346l0.981589 -0.477114l-0.0901317 -1.37956l-1.68478 -2.33224l-3.36839 -4.0336l-2.74692 -4.83459l-1.19341 -2.88413l-0.73149 -1.65476l0.371597 -1.1658l0.682866 -0.681169l0.79339 -0.671067l0.73541 -0.796043l0.432196 -0.553535l0.428785 -0.550802l0.731467 -0.792807l0.673918 -0.795698l0.18437 -0.489734l0.612108 -0.244907l0.796778 0.242825l0.79615 -0.00120485l0.795669 -0.489802l0.73373 -0.305754l0.856659 0.182345l0.672277 -0.244415l0.672696 -0.244811l-0.120457 0.495504l1.03926 0.48815l0.855669 0.0607289l0.673844 -0.584171l0.427766 -0.183324l0.427546 -0.549598l0.610903 -0.183261l0.549813 0.793803l0.488795 0.121973l1.03856 0.121831l1.40484 -0.549807l1.22191 -1.09996l1.28241 -1.34359l0.813731 -3.51966l0.214056 -1.1048l0.742718 -3.65674l1.038 -2.80863l1.2819 -2.56379l0.702902 -1.65056l0.275096 -0.3049l0.488773 -0.366743l0.794074 -0.122301l0.73192 -0.243136l0.121786 1.4658l0.792711 1.16079l1.52878 0.670382l1.46654 0.182843l3.04689 0.0628331v-0.671632l-1.58121 -0.429667l-1.70975 -0.366619h-1.16103l-0.793978 -0.610745l-0.610977 -1.58771l-0.736553 -1.33861l-0.793237 -0.305607l-0.426646 -0.611622l-0.0618489 -1.34134l-0.608516 -1.59233l-0.174217 -1.63678l-0.802242 -1.78569l-1.03841 -1.22069l-0.671265 -2.38802l0.61165 -0.800608l1.15927 -0.111236l1.8345 -1.47449l1.76798 -2.67372l0.572592 -0.994023l0.145006 -0.764157l0.503457 -1.23435l0.489327 -0.915532l1.22035 -0.427981l0.733261 -1.16007l0.735354 -1.22088l1.03769 0.916041l1.22339 -0.610457l1.3451 -1.03835l1.58923 -1.16071l3.3664 -3.66671l2.68732 -3.4659l0.633326 -0.773383l0.324166 -0.395858l0.400491 -1.12321l0.115083 -0.695101l0.280803 -0.239375l0.370567 -0.121984l1.17717 -0.373905l0.854701 -2.1372l0.488082 -1.89313l0.324902 -2.97029l-0.0805608 -1.36029l-0.441919 -2.40984l-0.128891 -4.28109l0.515568 -1.49378l0.0184178 -0.487952l0.142698 -0.211754l0.612244 0.294617l0.260089 0.280803l0.214056 0.4166l0.262391 0.849311h0.421199l0.0851653 -0.708909l0.580019 -1.1071l0.142704 -0.499458l-0.133501 -0.715821l-0.329133 -0.497156l-0.766453 -0.752646l-1.34418 -2.20269l-0.402787 -1.11861l-0.149611 -1.13932l0.161116 -1.2521l0.391282 -0.649068l0.501766 -0.533985l0.490255 -0.899954l0.110478 -1.18075l-0.306122 -1.14623l-0.405095 -0.98741l-0.386677 -1.61807l-0.510969 -0.674387l-0.794074 -0.425804l-1.02194 -0.147308l-0.725025 -0.276199l-0.50176 -0.681294l-0.326836 -0.874629l-0.186435 -0.870031l-0.0207143 -2.43516l0.642162 -2.38912l1.21298 -2.02546l1.67561 -1.33036l0.966696 0.487952l0.828602 0.0989729l1.87585 -0.16572l0.84241 -0.241677l1.1117 -1.03575l0.766453 -0.23477l0.807888 -0.128896l1.41782 -0.5547l1.79299 -0.30382l1.06567 -0.800975l0.708909 -0.179534l0.418903 -0.209451l1.72164 -1.36719l0.407397 -0.428106l0.725019 -1.05416l0.414304 -0.414298l1.34647 -0.612244l3.38574 -1.07258l1.48227 -1.05646l0.30382 0.580019l0.0230166 0.51787l-1.13702 3.53996l0.262391 0.844712l0.46954 0.494859l0.593826 0.409694l0.639865 0.600733l0.759547 1.53521l0.398188 0.432716l-0.925267 -2.53643l-0.729629 -0.619151l-0.237072 -0.359056l0.00230222 -0.315331l0.290012 -0.520172l0.0552364 -0.322238l-0.0851596 -1.41782l0.126594 -1.07717l0.494853 -0.794074l1.00813 -0.568513l2.43746 0.699706l2.67453 -1.51219l3.84378 -3.50773l1.21528 -0.315325l3.98187 0.315325l0.492557 -0.117385l1.28893 -0.506364l0.552398 -0.115083l1.54672 0.027621l0.713514 -0.117385l0.635261 -0.331441l1.36028 0.718118l1.60196 -0.223259l1.62268 -0.561606l1.43624 -0.31993l1.04265 -0.552403l4.26958 -5.65519l0.8263 -0.451122l1.39481 0.478743l1.1048 0.920668l0.711217 1.15773l0.379771 1.381l0.117385 1.59505l1.08178 -0.573112l0.589227 -0.840107l0.248578 -1.05877l0.179528 -2.48579l0.349853 -0.649068l0.501766 -0.517876l0.598431 -0.85852l0.186435 0.483348l0.331441 0.223265l0.458029 -0.0345277l0.566211 -0.285402l0.510969 -0.478749l0.0805552 -0.400491l-0.0253188 -0.444221l0.207149 -0.607634l0.922971 -1.04726l0.941377 -0.151913l2.38683 0.812486l-0.412002 -0.817091l-1.01273 -0.26699l-1.18305 -0.119687l-0.906855 -0.377474l-0.393584 -0.794074l0.195638 -0.745739l0.497161 -0.660574l2.11293 -2.10372l0.326836 -0.750343l-0.0253188 -0.856217l-0.200242 -0.768756l0.105874 -0.621447l0.895349 -0.423507l-0.379776 -1.01273l-0.699706 -0.603035l-0.750343 -0.478749l-0.524777 -0.642162l-0.0644453 -0.863124l0.119682 -1.07258l0.00920889 -1.07258l-0.4166 -0.856217l-0.361364 -0.101275l-0.729623 0.347556l-1.10898 0.498688l-0.471328 -0.549858l-0.576036 -0.523623l-0.733283 -0.104737l-0.549937 -0.49741l-1.23145 -0.680813l-0.50581 -0.242904l-1.49713 -0.942146l-0.831872 -0.886746l-0.499203 -0.831345l0.277172 -0.942061l0.443577 -0.554089l0.887238 -0.332261l1.10897 -0.276753l0.997801 -0.941971l0.886763 -1.71841l0.776109 -1.05325l1.44154 -1.44156l1.1645 -1.331l0.77646 -0.832188l1.16486 -0.943538l2.63963 -0.590087l1.27512 0.20255l0.984073 -0.119393l1.23582 0.268489l1.07451 0.48332l1.20764 0.292852l1.89657 0.131193l1.2521 0.276199l1.63786 0.201736l0.288343 0.14405l0.396582 0.468098l0.540423 0.396175l0.576138 0.180173l0.540638 -0.107888l-0.0349689 -0.792219l0.0726699 -0.432145l0.217054 -0.900316l0.757935 -0.828347l0.397764 -1.44083l-0.439566 -0.923293l0.0690497 -0.847014l0.0943685 -0.186435l0.188737 -0.273897l0.151907 -0.372869l-0.0138077 -0.499463l-0.166914 -0.33221l-0.223389 0.224424l-0.349762 0.705691l-0.736134 0.416549l-1.12399 -0.00205899l-0.354282 -0.737746l-0.0327345 -1.05678l0.248227 -1.14896l0.0736541 -0.858525l0.285402 -1.38099l0.0623297 -0.652162h-3.10146l-0.35487 1.09504l-0.609178 0.319539l-0.416448 -0.44817l-0.0812 -0.966413h-160.248v424.242h33.0805l-0.94123 -2.04681z
M-4467.4 -70.8076L-4468.24 -71.742L-4468.43 -72.7893L-4467.6 -74.0069L-4463.13 -77.731L-4463.12 -77.1924L-4463.04 -76.8149L-4462.77 -76.1474L-4462.72 -74.2508L-4462.99 -71.9193L-4463.74 -70.4393L-4465.09 -71.093L-4465.63 -70.4577L-4466.25 -69.9329L-4467.4 -70.8076z
M-4518.31 149.881L-4518.57 148.595L-4517.79 146.45L-4516.59 143.362L-4515.05 140.617L-4514.45 142.075L-4513.08 142.589L-4512.39 143.789L-4513.59 145.591L-4515.56 146.621L-4515.82 149.108L-4517.19 149.966L-4518.31 149.881z
M-4538.16 171.516L-4539.48 171.171L-4540.3 170.743L-4540.63 169.494L-4540.29 167.488L-4540.08 160.694L-4539.88 159.93L-4537.98 156.422L-4537.17 154.134L-4536.36 153.554L-4532.92 152.555L-4529.83 151.022L-4528.64 150.622L-4526.07 150.704L-4522.19 153.103L-4519.76 153.715L-4519.85 154.152L-4520 154.557L-4520.23 154.926L-4520.53 155.262L-4521.16 155.791L-4524 157.016L-4524.18 157.513L-4524.98 158.272L-4525.16 158.576L-4525.51 159.446L-4525.97 160.316L-4526.44 160.809L-4526.56 160.818L-4527.16 161.847L-4527.84 163.205L-4528.55 164.495L-4528.93 165.412L-4529.84 165.786L-4530.59 166.635L-4530.56 167.959L-4531.42 168.768L-4531.76 169.583L-4532.66 170.88L-4534.69 170.678L-4535.82 171.337L-4536.78 171.627L-4538.16 171.516"/>
</g>
<g stroke-width="0.5px" stroke="rgb(51,51,51)" fill="none">
<path d="M-4531.76 169.583l-0.901172 1.2977l-2.02424 -0.202106l-1.12781 0.658275l-0.959793 0.29001l-1.3787 -0.11048l-1.32806 -0.345249l-0.812487 -0.428109l-0.334522 -1.24908l0.342535 -2.00536l0.203324 -6.79383l0.200662 -0.764931l1.90578 -3.50773l0.807884 -2.28785l0.807883 -0.580019l3.44099 -0.998922l3.09343 -1.53291l1.18766 -0.400489l2.56635 0.0828599l3.88751 2.39833l2.43056 0.612242l-0.0897648 0.437316l-0.158815 0.405093l-0.227865 0.368266l-0.296914 0.336043l-0.630656 0.529382l-2.84485 1.22448l-0.17953 0.497159l-0.796375 0.759549l-0.181831 0.303819l-0.342948 0.870028l-0.464936 0.870028l-0.469539 0.492556l-0.119686 0.00920663l-0.60004 1.02923l-0.679146 1.35792l-0.713205 1.29003l-0.373628 0.916629l-0.917687 0.37379l-0.747743 0.84905l0.0344119 1.32393l-0.861773 0.809358l-0.345249 0.814789"/>
<path d="M-4515.82 149.108l-1.37309 0.858031l-1.11596 -0.0853211l-0.258038 -1.28619l0.77169 -2.14421l1.2005 -3.08793l1.54401 -2.74526l0.601462 1.45791l1.37374 0.513754l0.687285 1.20034l-1.20116 1.80179l-1.97394 1.03007l-0.256511 2.487"/>
<path d="M-4462.99 -71.9193l-0.74804 1.47997l-1.35108 -0.653672l-0.540891 0.635259l-0.619147 0.524779l-1.14623 -0.874632l-0.84471 -0.934475l-0.188736 -1.04726l0.828598 -1.21758l4.47443 -3.72409l0.00920663 0.538589l0.0782565 0.377473l0.266993 0.667482l0.0552399 1.89657l-0.273898 2.33158"/>
<path d="M-4577.96 309.064l-1.71069 -1.91015l-5.27308 -5.097l-0.956446 -1.18892l-1.25912 -0.332468l-0.74317 0.249787l-1.35829 -0.964851l-1.18164 -1.85131l-1.45465 -1.64799l-1.14623 -1.72164l0.279255 -0.554763l0.376798 -0.467845l0.744927 -0.306692l0.436735 -1.14688l-0.203335 -0.631033l-0.466108 -0.583247l0.0640775 -0.733932l0.796064 -0.200473l-0.250443 -0.999073l-0.246432 -1.20942l0.48806 -0.833031l0.895651 0.116526l1.00755 -0.562326l0.93632 0.95556l1.68656 -0.13407l0.857946 -1.24514l0.239575 -1.98878l-1.22558 -2.6901l-1.86981 -1.91368l-1.77224 -1.33617l-1.34244 -2.01241l-0.925512 -1.69236l-1.91751 -2.54828l-4.53008 -4.85163l-1.9273 -2.39917l0.275458 -0.78384l0.695703 -0.353768l0.85618 -0.827298l-0.150496 -1.11269l-0.486714 -1.28098l0.485651 -2.89549l0.0253183 -0.893045l-0.319931 -1.01733l-0.538589 -1.15543l-0.354456 -1.08638l0.232468 -0.851615l0.593829 -0.524779l0.393584 -0.280803l0.340646 -0.322233l0.425808 -0.635259l0.807883 -1.92419l0.020715 -1.28893l-0.828598 -3.17169l0.273898 -1.11861l0.639862 -1.33957l0.771057 -1.22909l0.635259 -0.773359l4.93016 -3.35582l1.28203 -1.31195l1.05416 -1.86435l0.791772 -0.883838l1.07027 -0.372869l1.02424 -0.239373l0.612242 -0.626052l0.890743 -1.84133l3.0451 -4.58491l1.77228 -1.85054l2.13594 -1.67101l2.31317 -1.29814l0.856218 -0.800979l0.338344 -1.18766l0.15191 -1.27052l0.382076 -1.18766l1.01273 -1.98403l1.5191 -1.91038l2.03007 -1.6572l8.97188 -5.34446l1.61347 -1.56053l2.39143 -3.50313l0.342948 -1.17845l0.455729 -0.184133l0.566209 -0.0920665l0.504064 -0.294613l0.879235 -0.340646l3.93354 0.128893l1.08408 -0.239373l1.16004 -0.483349l0.920665 -0.745739l0.382076 -1.00813l0.156513 -0.621449l0.750342 -1.27512l0.24858 -0.616845l0.0184133 -0.552399l-0.121988 -0.405093l-0.0690499 -0.423506l0.172625 -0.580019l0.759549 -0.455729l0.349853 -0.667482l0.280803 -0.791772l0.543192 -0.791772l-0.573114 1.58815l-0.200245 0.382076l0.352154 1.16004l0.67899 -0.524779l0.317629 -1.77688l0.580019 -0.828599l1.54672 1.54672l0.768755 -0.322233l4.09236 -0.837805l0.704309 0.0690499l0.464936 0.115083l0.414299 0.0230166l0.543192 -0.20715l1.28893 -1.5191l0.255485 -0.22096l2.13824 -4.44681l0.598432 -0.800979l1.26591 0.239373l0.26239 1.34877l-0.400489 2.70215l0.607639 -0.359059l0.375171 -0.547796l0.319931 -0.630656l0.451126 -0.612242l0.515572 -0.409696l1.7999 -1.13242l0.837805 -0.971302l0.550097 -1.18305l0.310724 -1.27512l0.26239 -2.18198l0.920665 -2.04388l1.90347 -3.0428l0.483349 -1.13242l-0.563907 -0.985111l0.204848 -1.27972l0.745739 -2.2096l0.12429 -0.994318l1.76768 -5.76797l1.19456 -2.14055l0.128893 -0.372869l0.554701 -1.21067l0.209451 -1.31655l1.20147 -3.29598l0.649069 -0.971302l1.69633 -1.73545l0.483349 -1.00352l0.0759549 -1.36258l-0.363663 -2.52723l-0.764152 -1.97483l-0.184133 -0.313026l-1.23829 0.0736532l-0.639862 -0.0552399l-0.455729 -0.22096l-0.683594 -1.04495l-1.09099 -3.03359l-0.70661 -1.114l-0.342948 -0.690499l-0.103575 -0.800979l0.0483349 -3.29598l-0.379774 -2.6331l-0.0230166 -0.736532l0.347551 -1.2429l0.0897648 -0.764152l-0.26239 -0.340646l-0.0920665 -0.230166l-0.718119 -0.966698l-0.174926 -0.156513l-0.0851615 -0.386679l-0.168021 -0.285406l-0.128893 -0.386679l0.034525 -0.681292l0.283104 -0.621449l0.372869 -0.483349l0.131195 -0.510969l-0.439618 -0.695102l0.874632 -0.920665l0.893045 -0.26239l0.695102 -0.409696l0.276199 -1.32576l0.428109 -0.635259l0.934475 -0.423506l0.934475 -0.626052l0.409696 -1.22448l-3.35582 1.90578l-0.363663 0.2762l-0.147306 0.497159l-0.034525 0.998921l-0.414299 0.17953l-1.83442 0.12429l-0.416601 0.474142l-0.0966699 0.441919l-0.483349 1.37639l-0.481047 2.26484l-0.0782565 1.63418l0.345249 1.63878l1.72164 2.99676l0.128893 1.71704l-0.879235 11.0158l-0.598432 2.29706l-0.393584 0.616846l-1.54902 1.72625l-0.550097 0.359059l-0.911458 0.276199l-1.96102 1.13242l-0.814789 0.170323l-0.568511 -0.280803l-0.331439 -0.759549l-0.451126 -0.15191l-1.21067 0.133496l-0.405093 -0.1381l-0.72042 -0.552399l-0.301518 -0.929872l0.757247 -0.883838l1.68712 -1.13702l0.515572 -1.18766l0.253183 -0.851615l0.584622 -0.501762l1.5237 -0.16572l0.359059 0.23477l0.338344 0.483349l0.428109 0.437316l0.632957 0.0368266l0.540891 -0.322233l0.255485 -0.478746l-0.0414299 -0.580019l-0.336043 -0.616846l-0.253183 1.18766l-0.764152 -0.24858l-1.33496 -1.29353l-1.2406 0.142703l-1.13012 0.575416l-0.819392 0.253183l-0.317629 -0.791772l0.237071 -1.2429l1.06337 -2.41675l0.241675 -1.35798l0.211753 -0.699705l0.510969 -0.2762l0.644465 -0.12429l0.598432 -0.243976l0.428109 -0.441919l1.15083 -1.83212l-0.520176 0.1381l-0.290009 0.174926l-0.593829 0.616846l-0.469539 0.19334l-1.14623 -0.0920665l-0.524779 0.0552399l-0.639862 0.437316l-0.501762 0.690499l-2.44206 6.29735l-3.85989 5.40891l-1.74466 1.88736l-1.83673 0.796375l-0.423506 0.741135l-0.423506 0.529382l-0.522477 0.308423l-0.540891 -0.00920668l-0.294613 -0.230166l-0.211753 -0.349853l-0.285406 -0.377473l-0.828598 -0.368266l-0.543192 0.423506l-0.197943 0.934475l0.197943 1.13702l0.216356 0.16572l1.54211 1.56973l0.197943 0.469539l0.0437316 0.639862l-0.0667482 1.22448l-0.568511 0.515572l-1.29814 -0.174926l-2.38222 -0.934475l-2.38913 -2.03007l-0.833202 -0.469539l-0.731929 -0.718119l-0.331439 -0.257786l-0.354456 -0.101273l-1.00813 -0.1381l-0.531684 -0.147306l-2.15436 -1.381l-6.00734 -7.07531l-4.67007 -4.35935l-1.82242 -0.593339l-1.65106 -0.794129l-1.83628 0.0622674l-2.99463 -0.994875l-1.04265 -0.474142l-2.37762 -2.09912l-1.2475 -0.474142l-0.890743 0.00920663l-0.674387 -0.128893l-0.428109 -0.510969l-0.333741 -1.91038l-0.435014 -0.851615l-0.925268 -1.32115l-0.782565 -0.805582l-2.09681 -1.68021l-0.232468 -0.363663l-0.266993 -0.593829l-0.119686 -0.552399l0.216356 -0.24858l0.451126 0.11048l0.20715 0.239373l0.119686 0.266993l0.188736 0.156513l1.43854 0.345249l0.67899 0.0414299l0.301518 0.17953l0.284802 0.96529l0.735862 0.7951l1.41094 -0.0607874l2.02337 -0.732949l2.87982 -2.32106l2.20375 -1.09876l2.0207 -2.2586l0.426083 -3.36099l-0.797895 -1.71366l-0.450181 -1.76333l-0.170323 -0.460333l0.251442 -0.590117l0.611923 -0.12172l0.796095 -0.426332l0.168059 -1.37985l-0.158815 -1.43624l-1.55842 -6.0207l-0.851419 -2.38036l-0.368266 -1.04495l-0.497159 -0.870028l-0.533986 -0.649069l-0.672085 -1.04956l-1.33036 -3.28217l-0.777962 -1.00352l-0.257786 -0.727325l-0.0851615 -0.828599l0.227865 -0.644465l1.98332 -1.39511l-0.243267 -1.32086l0.0138099 -1.63878l0.510518 -0.470129l0.672922 -0.611847l0.6932 -0.17525l0.933789 0.00697777l0.244789 -0.732511l-0.0287747 -0.807678l0.120822 -1.10135l0.289866 -0.976987l-0.254981 -1.29945l0.241769 -0.808346l0.981589 -0.477112l-0.0901317 -1.37956l-1.68478 -2.33224l-3.36838 -4.03359l-2.74693 -4.83459l-1.19341 -2.88413l-0.731487 -1.65476l0.371597 -1.1658l0.682862 -0.681172l0.793389 -0.671064l0.735413 -0.796041l0.432197 -0.553535l0.428785 -0.550804l0.731465 -0.792806l0.673918 -0.795702l0.184368 -0.48973l0.612107 -0.244909l0.79678 0.242824l0.796153 -0.00120547l0.795671 -0.489798l0.733727 -0.305759l0.856657 0.182349l0.672281 -0.244416l0.672693 -0.244813l-0.120456 0.495504l1.03926 0.488152l0.855671 0.0607287l0.673841 -0.584169l0.427768 -0.183327l0.427545 -0.549595l0.610906 -0.183261l0.549811 0.793802l0.488797 0.121975l1.03856 0.121831l1.40485 -0.549811l1.22191 -1.09996l1.28241 -1.34359l0.813734 -3.51966l0.214055 -1.1048l0.742719 -3.65674l1.038 -2.80863l1.2819 -2.56379l0.702906 -1.65056l0.275092 -0.304899l0.488771 -0.366745l0.794074 -0.1223l0.731923 -0.243138l0.121783 1.4658l0.792716 1.16079l1.52877 0.670382l1.46655 0.182845l3.04689 0.0628312l0.000616566 -0.671628l-1.58121 -0.429671l-1.70976 -0.366616l-1.16103 0.000324291l-0.793974 -0.610741l-0.610976 -1.58771l-0.736554 -1.33861l-0.79324 -0.305609l-0.426642 -0.611623l-0.0618489 -1.34133l-0.608519 -1.59234l-0.174215 -1.63678l-0.802241 -1.78569l-1.03841 -1.22068l-0.671267 -2.38802l0.611651 -0.800606l1.15927 -0.11124l1.8345 -1.47449l1.76798 -2.67371l0.572595 -0.994026l0.145005 -0.764152l0.503456 -1.23436l0.489328 -0.915533l1.22035 -0.427977l0.733258 -1.16007l0.735353 -1.22088l1.03769 0.916043l1.22339 -0.610456l1.3451 -1.03835l1.58923 -1.16071l3.36641 -3.66671l2.68732 -3.4659l0.633326 -0.773388l0.324166 -0.395856l0.400489 -1.12321l0.115083 -0.695102l0.280803 -0.239373l0.370568 -0.121988l1.17717 -0.373905l0.854699 -2.1372l0.488083 -1.89312l0.324901 -2.97029l-0.0805581 -1.36028l-0.441919 -2.40984l-0.128893 -4.28109l0.515572 -1.49378l0.0184133 -0.487952l0.142703 -0.211753l0.612242 0.294613l0.260088 0.280803l0.214055 0.416601l0.262389 0.849313l0.421204 0l0.0851615 -0.708912l0.580019 -1.1071l0.142703 -0.499461l-0.133496 -0.715817l-0.329138 -0.497159l-0.766454 -0.752644l-1.34417 -2.20269l-0.402791 -1.11861l-0.149608 -1.13932l0.161116 -1.2521l0.391283 -0.649069l0.501762 -0.533986l0.490254 -0.89995l0.11048 -1.18075l-0.306121 -1.14623l-0.405093 -0.987413l-0.386679 -1.61807l-0.510969 -0.674387l-0.794074 -0.425808l-1.02194 -0.147306l-0.725024 -0.276199l-0.501762 -0.681292l-0.326836 -0.874632l-0.186435 -0.870028l-0.020715 -2.43516l0.642164 -2.38913l1.21298 -2.02546l1.67561 -1.33036l0.966698 0.487952l0.828599 0.0989715l1.87585 -0.16572l0.842408 -0.241675l1.1117 -1.03575l0.766454 -0.23477l0.807883 -0.128893l1.41782 -0.554701l1.793 -0.303819l1.06567 -0.800979l0.708912 -0.17953l0.418903 -0.209451l1.72164 -1.36719l0.407394 -0.428109l0.725024 -1.05416l0.414299 -0.414299l1.34647 -0.612242l3.38575 -1.07257l1.48227 -1.05646l0.303819 0.580019l0.0230166 0.517874l-1.13702 3.53996l0.26239 0.84471l0.469539 0.494857l0.593829 0.409696l0.639862 0.600734l0.759549 1.53521l0.398188 0.432713l-0.925268 -2.53643l-0.729627 -0.619147l-0.237071 -0.359059l0.00230166 -0.315328l0.290009 -0.520176l0.0552399 -0.322233l-0.0851615 -1.41782l0.126591 -1.07718l0.494857 -0.794074l1.00813 -0.568511l2.43746 0.699705l2.67453 -1.51219l3.84378 -3.50773l1.21528 -0.315328l3.98188 0.315328l0.492556 -0.117385l1.28893 -0.506366l0.552399 -0.115083l1.54672 0.02762l0.713515 -0.117385l0.635259 -0.331439l1.36028 0.718119l1.60196 -0.223261l1.62267 -0.561606l1.43624 -0.319931l1.04265 -0.552399l4.26958 -5.65518l0.826297 -0.451126l1.39481 0.478746l1.1048 0.920665l0.711214 1.15774l0.379774 1.381l0.117385 1.59505l1.08178 -0.573114l0.589226 -0.840107l0.24858 -1.05876l0.17953 -2.4858l0.349853 -0.649069l0.501762 -0.517874l0.598432 -0.85852l0.186435 0.483349l0.331439 0.223261l0.458031 -0.034525l0.566209 -0.285406l0.510969 -0.478746l0.0805581 -0.400489l-0.0253183 -0.444221l0.20715 -0.607639l0.922967 -1.04726l0.94138 -0.15191l2.38682 0.812487l-0.411998 -0.81709l-1.01273 -0.266993l-1.18305 -0.119686l-0.906855 -0.377473l-0.393584 -0.794074l0.195641 -0.745739l0.497159 -0.660577l2.11293 -2.10372l0.326836 -0.750342l-0.0253183 -0.856218l-0.200245 -0.768755l0.105876 -0.621449l0.895347 -0.423506l-0.379774 -1.01273l-0.699705 -0.603036l-0.750342 -0.478746l-0.524779 -0.642164l-0.0644466 -0.863123l0.119686 -1.07257l0.00920663 -1.07257l-0.416601 -0.856218l-0.361361 -0.101273l-0.729627 0.347551l-1.10897 0.498693l-0.471328 -0.54986l-0.576038 -0.523623l-0.733283 -0.104733l-0.549935 -0.497412l-1.23145 -0.680812l-0.505806 -0.242904l-1.49713 -0.942148l-0.831868 -0.886747l-0.499205 -0.831345l0.277172 -0.942062l0.443575 -0.554087l0.887238 -0.332261l1.10897 -0.276752l0.997801 -0.941969l0.886761 -1.71841l0.776112 -1.05325l1.44153 -1.44156l1.1645 -1.331l0.776459 -0.832185l1.16486 -0.943541l2.63962 -0.590084l1.27512 0.202546l0.984076 -0.119392l1.23582 0.268491l1.07451 0.48332l1.20764 0.292849l1.89657 0.131195l1.2521 0.2762l1.63786 0.201734l0.288345 0.144049l0.39658 0.4681l0.540425 0.396174l0.576137 0.18017l0.540639 -0.107887l-0.0349689 -0.792217l0.0726689 -0.432145l0.217055 -0.900319l0.757933 -0.828346l0.397766 -1.44084l-0.439567 -0.923292l0.0690499 -0.847012l0.0943681 -0.186435l0.188736 -0.273898l0.15191 -0.372869l-0.0138099 -0.499461l-0.166914 -0.332214l-0.223391 0.224428l-0.349759 0.705687l-0.736138 0.416551l-1.12398 -0.00205899l-0.354281 -0.737746l-0.0327376 -1.05678l0.248227 -1.14896l0.0736532 -0.85852l0.285406 -1.381"/>
<path d="M-4448.75 -112.036l-0.609181 0.319539l-0.416447 -0.44817"/>
</g>
</g>
</g>
</g>
<g id="singlelayer" inkscape:label="singlelayer">
<g id="drawing" inkscape:label="drawing" transform="translate(4670.1,-339.394)">
<g fill-rule="evenodd" stroke="none">
<path fill="rgb(254,233,0)" d="M-4533.6 254.446v-15.9029h-7.90514v-15.9029h7.90514v-7.95144h15.8103v-15.9029h7.90514v-15.9029h-7.90514v-7.95144h7.90514v-15.9029h7.90514v-7.95144h7.90514v-7.95144h7.90514v-7.95144h7.90514v-31.8058h-7.90514v-7.95144h-86.9565v23.8543h-15.8103v7.95144h7.90514v7.95144h15.8103v7.95144h7.90514v7.95144h7.90514v7.95144h15.8103v-7.95144h15.8103v15.9029h-7.90514v7.95144h-7.90514v7.95144h-15.8103v15.9029h7.90514v23.8543h-15.8103v31.8058h23.7154"/>
<path fill="rgb(192,153,106)" d="M-4533.6 238.543v15.9029h31.6206v15.9029h7.90514v15.9029h31.6206v-15.9029h7.90514v-7.95144h7.90514v-23.8543h7.90514v-23.8543h7.90514v-15.9029h15.8103v-15.9029h7.90514v-87.4658h-79.0514v7.95144h7.90514v31.8058h-7.90514v7.95144h-7.90514v7.95144h-7.90514v7.95144h-7.90514v15.9029h-7.90514v7.95144h7.90514v15.9029h-7.90514v15.9029h-15.8103v7.95144h-7.90514v15.9029h7.90514"/>
<path fill="rgb(254,233,0)" d="M-4486.17 95.4173v-23.8543h7.90514v-31.8058h-7.90514v-15.9029h7.90514v-15.9029h7.90514v-39.7572h7.90514v-7.95144h15.8103v-7.95144h7.90514v-7.95144h7.90514v-15.9029h-15.8103v-7.95144h-7.90514v-7.95144h-7.90514v15.9029h-15.8103v7.95144h-31.6206v7.95144h-15.8103v7.95144h-7.90514v47.7086h-7.90514v7.95144h-7.90514v7.95144h-7.90514v31.8058h-15.8103v7.95144h-7.90514v7.95144h7.90514v23.8543h-7.90514v7.95144h94.8617"/>
<path fill="rgb(192,153,106)" d="M-4407.11 95.4173v-151.077h-15.8103v-7.95144h-7.90514v7.95144h-7.90514v7.95144h-7.90514v7.95144h-15.8103v7.95144h-7.90514v39.7572h-7.90514v15.9029h-7.90514v15.9029h7.90514v31.8058h-7.90514v23.8543h79.0514"/>
<path fill="rgb(192,153,106)" d="M-4399.21 159.029v-23.8543h7.90514v-15.9029h7.90514v-15.9029h-7.90514v-7.95144h-15.8103v63.6115h7.90514"/>
<path fill="rgb(169,254,0)" d="M-4399.21 174.932v-7.95144h23.7154v-7.95144h23.7154v-7.95144h23.7154v-7.95144h7.90514v-7.95144h7.90514v-7.95144h7.90514v-7.95144h7.90514v-7.95144h7.90514v-7.95144h7.90514v-7.95144h-110.672v7.95144h7.90514v15.9029h-7.90514v15.9029h-7.90514v23.8543h-7.90514v15.9029h7.90514"/>
<path fill="rgb(192,153,106)" d="M-4383.4 95.4173v-7.95144h-7.90514v-7.95144h7.90514v-7.95144h-15.8103v-15.9029h15.8103v-7.95144h7.90514v-63.6115h7.90514v-7.95144h-7.90514v-15.9029h-15.8103v-7.95144h-15.8103v143.126h23.7154"/>
<path fill="rgb(169,254,0)" d="M-4383.4 71.5629v7.95144h-7.90514v7.95144h7.90514v7.95144h110.672v-15.9029h7.90514v-23.8543h15.8103v-7.95144h-7.90514v-23.8543h-7.90514v-15.9029h7.90514v-7.95144h-15.8103v-7.95144h-15.8103v-7.95144h-7.90514v-7.95144h-15.8103v-7.95144h-7.90514v7.95144h-7.90514v7.95144h-23.7154v-7.95144h-15.8103v7.95144h-7.90514v63.6115h-7.90514v7.95144h-15.8103v15.9029h15.8103"/>
</g>
</g>
</g>
<g inkscape:groupmode="layer" inkscape:label="marsQfel0Q" id="marsQfel0Q"><title>marsQfel0Q</title>
<g id="Page0" inkscape:label="Page0">
<g id="drawing" inkscape:label="drawing" transform="translate(4670.1,-339.394)">
<g stroke-width="0.5px" stroke="rgb(51,51,51)" fill="none">
</g>
<g stroke="rgb(51,51,51)" fill="rgb(51,51,51)">
<circle cx="-4512" cy="188" r="3"/>
<circle cx="-4284" cy="17" r="3"/>
<circle cx="-4348" cy="-3" r="3"/>
<circle cx="-4463" cy="-57" r="3"/>
<circle cx="-4464" cy="-45" r="3"/>
<circle cx="-4466" cy="-48" r="3"/>
<circle cx="-4468" cy="-51" r="3"/>
<circle cx="-4472" cy="-50" r="3"/>
<circle cx="-4472" cy="-44" r="3"/>
<circle cx="-4491" cy="-7" r="3"/>
<circle cx="-4491" cy="-7" r="3"/>
<circle cx="-4491" cy="-7" r="3"/>
<circle cx="-4507" cy="118" r="3"/>
<circle cx="-4508" cy="118" r="3"/>
<circle cx="-4509" cy="110" r="3"/>
<circle cx="-4514" cy="120" r="3"/>
<circle cx="-4516" cy="122" r="3"/>
<circle cx="-4519" cy="77" r="3"/>
<circle cx="-4522" cy="118" r="3"/>
<circle cx="-4523" cy="91" r="3"/>
<circle cx="-4523" cy="91" r="3"/>
<circle cx="-4523" cy="91" r="3"/>
<circle cx="-4524" cy="104" r="3"/>
<circle cx="-4524" cy="97" r="3"/>
<circle cx="-4525" cy="105" r="3"/>
<circle cx="-4525" cy="111" r="3"/>
<circle cx="-4533" cy="106" r="3"/>
<circle cx="-4513" cy="100" r="3"/>
<circle cx="-4546" cy="149" r="3"/>
<circle cx="-4301" cy="-6" r="3"/>
<circle cx="-4320" cy="-14" r="3"/>
<circle cx="-4495" cy="57" r="3"/>
<circle cx="-4512" cy="170" r="3"/>
<circle cx="-4552" cy="52" r="3"/>
<circle cx="-4511" cy="101" r="3"/>
<circle cx="-4552" cy="58" r="3"/>
<circle cx="-4318" cy="7" r="3"/>
<circle cx="-4431" cy="12" r="3"/>
<circle cx="-4489" cy="32" r="3"/>
<circle cx="-4499" cy="91" r="3"/>
<circle cx="-4520" cy="124" r="3"/>
<circle cx="-4523" cy="196" r="3"/>
<circle cx="-4549" cy="70" r="3"/>
<circle cx="-4550" cy="59" r="3"/>
<circle cx="-4552" cy="50" r="3"/>
<circle cx="-4577" cy="127" r="3"/>
<circle cx="-4577" cy="127" r="3"/>
<circle cx="-4291" cy="-6" r="3"/>
<circle cx="-4302" cy="26" r="3"/>
<circle cx="-4491" cy="-7" r="3"/>
<circle cx="-4491" cy="-60" r="3"/>
<circle cx="-4492" cy="54" r="3"/>
<circle cx="-4499" cy="-35" r="3"/>
<circle cx="-4507" cy="101" r="3"/>
<circle cx="-4551" cy="55" r="3"/>
<circle cx="-4455" cy="219" r="3"/>
<circle cx="-4487" cy="188" r="3"/>
<circle cx="-4489" cy="32" r="3"/>
<circle cx="-4494" cy="94" r="3"/>
<circle cx="-4498" cy="101" r="3"/>
<circle cx="-4499" cy="101" r="3"/>
<circle cx="-4394" cy="69" r="3"/>
<circle cx="-4452" cy="212" r="3"/>
<circle cx="-4511" cy="168" r="3"/>
<circle cx="-4517" cy="91" r="3"/>
<circle cx="-4517" cy="97" r="3"/>
<circle cx="-4521" cy="110" r="3"/>
<circle cx="-4529" cy="200" r="3"/>
<circle cx="-4534" cy="39" r="3"/>
<circle cx="-4538" cy="44" r="3"/>
<circle cx="-4539" cy="64" r="3"/>
<circle cx="-4548" cy="63" r="3"/>
<circle cx="-4548" cy="64" r="3"/>
<circle cx="-4549" cy="56" r="3"/>
<circle cx="-4415" cy="174" r="3"/>
<circle cx="-4512" cy="188" r="3"/>
<circle cx="-4534" cy="47" r="3"/>
<circle cx="-4389" cy="6" r="3"/>
<circle cx="-4515" cy="212" r="3"/>
<circle cx="-4541" cy="133" r="3"/>
<circle cx="-4551" cy="56" r="3"/>
<circle cx="-4447" cy="147" r="3"/>
<circle cx="-4453" cy="215" r="3"/>
<circle cx="-4454" cy="223" r="3"/>
<circle cx="-4494" cy="94" r="3"/>
<circle cx="-4496" cy="188" r="3"/>
<circle cx="-4539" cy="38" r="3"/>
<circle cx="-4542" cy="36" r="3"/>
<circle cx="-4551" cy="48" r="3"/>
<circle cx="-4490" cy="96" r="3"/>
<circle cx="-4491" cy="110" r="3"/>
<circle cx="-4549" cy="55" r="3"/>
<circle cx="-4561" cy="54" r="3"/>
<circle cx="-4427" cy="-44" r="3"/>
<circle cx="-4431" cy="3" r="3"/>
<circle cx="-4498" cy="109" r="3"/>
<circle cx="-4501" cy="15" r="3"/>
<circle cx="-4505" cy="59" r="3"/>
<circle cx="-4527" cy="-20" r="3"/>
<circle cx="-4527" cy="-4" r="3"/>
<circle cx="-4528" cy="-4" r="3"/>
<circle cx="-4530" cy="39" r="3"/>
<circle cx="-4564" cy="55" r="3"/>
<circle cx="-4565" cy="54" r="3"/>
<circle cx="-4494" cy="81" r="3"/>
<circle cx="-4495" cy="82" r="3"/>
<circle cx="-4493" cy="98" r="3"/>
<circle cx="-4399" cy="148" r="3"/>
<circle cx="-4442" cy="64" r="3"/>
<circle cx="-4489" cy="65" r="3"/>
<circle cx="-4534" cy="39" r="3"/>
<circle cx="-4537" cy="62" r="3"/>
<circle cx="-4540" cy="11" r="3"/>
<circle cx="-4542" cy="54" r="3"/>
<circle cx="-4548" cy="56" r="3"/>
<circle cx="-4555" cy="48" r="3"/>
<circle cx="-4561" cy="54" r="3"/>
<circle cx="-4424" cy="81" r="3"/>
<circle cx="-4429" cy="2" r="3"/>
<circle cx="-4446" cy="53" r="3"/>
<circle cx="-4483" cy="-6" r="3"/>
<circle cx="-4527" cy="-4" r="3"/>
<circle cx="-4530" cy="41" r="3"/>
<circle cx="-4537" cy="78" r="3"/>
<circle cx="-4433" cy="162" r="3"/>
<circle cx="-4447" cy="52" r="3"/>
<circle cx="-4475" cy="266" r="3"/>
<circle cx="-4475" cy="266" r="3"/>
<circle cx="-4477" cy="15" r="3"/>
<circle cx="-4478" cy="14" r="3"/>
<circle cx="-4479" cy="14" r="3"/>
<circle cx="-4481" cy="54" r="3"/>
<circle cx="-4486" cy="110" r="3"/>
<circle cx="-4493" cy="123" r="3"/>
<circle cx="-4500" cy="106" r="3"/>
<circle cx="-4500" cy="107" r="3"/>
<circle cx="-4500" cy="-55" r="3"/>
<circle cx="-4500" cy="121" r="3"/>
<circle cx="-4503" cy="120" r="3"/>
<circle cx="-4504" cy="58" r="3"/>
<circle cx="-4522" cy="232" r="3"/>
<circle cx="-4524" cy="227" r="3"/>
<circle cx="-4544" cy="58" r="3"/>
<circle cx="-4402" cy="54" r="3"/>
<circle cx="-4448" cy="92" r="3"/>
<circle cx="-4495" cy="56" r="3"/>
<circle cx="-4515" cy="112" r="3"/>
<circle cx="-4491" cy="-60" r="3"/>
<circle cx="-4456" cy="-13" r="3"/>
<circle cx="-4551" cy="59" r="3"/>
<circle cx="-4405" cy="70" r="3"/>
<circle cx="-4431" cy="78" r="3"/>
<circle cx="-4459" cy="223" r="3"/>
<circle cx="-4486" cy="68" r="3"/>
<circle cx="-4495" cy="88" r="3"/>
<circle cx="-4507" cy="-51" r="3"/>
<circle cx="-4546" cy="68" r="3"/>
<circle cx="-4565" cy="54" r="3"/>
<circle cx="-4440" cy="69" r="3"/>
<circle cx="-4500" cy="106" r="3"/>
<circle cx="-4500" cy="106" r="3"/>
<circle cx="-4501" cy="122" r="3"/>
<circle cx="-4501" cy="120" r="3"/>
<circle cx="-4501" cy="119" r="3"/>
<circle cx="-4501" cy="121" r="3"/>
<circle cx="-4503" cy="120" r="3"/>
<circle cx="-4503" cy="121" r="3"/>
<circle cx="-4522" cy="231" r="3"/>
<circle cx="-4524" cy="227" r="3"/>
<circle cx="-4401" cy="39" r="3"/>
<circle cx="-4404" cy="26" r="3"/>
<circle cx="-4411" cy="24" r="3"/>
<circle cx="-4411" cy="84" r="3"/>
<circle cx="-4412" cy="83" r="3"/>
<circle cx="-4412" cy="84" r="3"/>
<circle cx="-4438" cy="73" r="3"/>
<circle cx="-4440" cy="74" r="3"/>
<circle cx="-4448" cy="103" r="3"/>
<circle cx="-4448" cy="92" r="3"/>
<circle cx="-4457" cy="121" r="3"/>
<circle cx="-4466" cy="140" r="3"/>
<circle cx="-4488" cy="55" r="3"/>
<circle cx="-4503" cy="59" r="3"/>
<circle cx="-4509" cy="211" r="3"/>
<circle cx="-4513" cy="104" r="3"/>
<circle cx="-4527" cy="36" r="3"/>
<circle cx="-4547" cy="34" r="3"/>
<circle cx="-4405" cy="31" r="3"/>
<circle cx="-4436" cy="167" r="3"/>
<circle cx="-4439" cy="63" r="3"/>
<circle cx="-4443" cy="21" r="3"/>
<circle cx="-4445" cy="69" r="3"/>
<circle cx="-4445" cy="68" r="3"/>
<circle cx="-4447" cy="70" r="3"/>
<circle cx="-4448" cy="69" r="3"/>
<circle cx="-4457" cy="164" r="3"/>
<circle cx="-4458" cy="165" r="3"/>
<circle cx="-4463" cy="154" r="3"/>
<circle cx="-4502" cy="112" r="3"/>
<circle cx="-4519" cy="22" r="3"/>
<circle cx="-4520" cy="22" r="3"/>
<circle cx="-4529" cy="43" r="3"/>
<circle cx="-4538" cy="44" r="3"/>
<circle cx="-4492" cy="-60" r="3"/>
<circle cx="-4493" cy="89" r="3"/>
<circle cx="-4447" cy="52" r="3"/>
<circle cx="-4478" cy="14" r="3"/>
<circle cx="-4459" cy="124" r="3"/>
<circle cx="-4418" cy="130" r="3"/>
<circle cx="-4445" cy="98" r="3"/>
<circle cx="-4447" cy="70" r="3"/>
<circle cx="-4447" cy="72" r="3"/>
<circle cx="-4450" cy="93" r="3"/>
<circle cx="-4498" cy="212" r="3"/>
<circle cx="-4500" cy="91" r="3"/>
<circle cx="-4505" cy="94" r="3"/>
<circle cx="-4506" cy="72" r="3"/>
<circle cx="-4507" cy="96" r="3"/>
<circle cx="-4445" cy="29" r="3"/>
<circle cx="-4449" cy="79" r="3"/>
<circle cx="-4479" cy="224" r="3"/>
<circle cx="-4418" cy="0" r="3"/>
<circle cx="-4429" cy="79" r="3"/>
<circle cx="-4440" cy="9" r="3"/>
<circle cx="-4441" cy="10" r="3"/>
<circle cx="-4452" cy="105" r="3"/>
<circle cx="-4469" cy="-56" r="3"/>
<circle cx="-4499" cy="96" r="3"/>
<circle cx="-4515" cy="59" r="3"/>
<circle cx="-4488" cy="53" r="3"/>
<circle cx="-4541" cy="65" r="3"/>
<circle cx="-4488" cy="13" r="3"/>
<circle cx="-4507" cy="-52" r="3"/>
<circle cx="-4479" cy="15" r="3"/>
<circle cx="-4498" cy="-22" r="3"/>
<circle cx="-4502" cy="121" r="3"/>
<circle cx="-4484" cy="101" r="3"/>
<circle cx="-4507" cy="100" r="3"/>
<circle cx="-4519" cy="22" r="3"/>
<circle cx="-4533" cy="44" r="3"/>
<circle cx="-4401" cy="-34" r="3"/>
<circle cx="-4426" cy="-12" r="3"/>
<circle cx="-4448" cy="90" r="3"/>
<circle cx="-4500" cy="80" r="3"/>
<circle cx="-4418" cy="-15" r="3"/>
<circle cx="-4421" cy="-17" r="3"/>
<circle cx="-4429" cy="78" r="3"/>
<circle cx="-4445" cy="14" r="3"/>
<circle cx="-4494" cy="59" r="3"/>
<circle cx="-4429" cy="154" r="3"/>
<circle cx="-4494" cy="81" r="3"/>
<circle cx="-4495" cy="50" r="3"/>
<circle cx="-4496" cy="50" r="3"/>
<circle cx="-4509" cy="100" r="3"/>
<circle cx="-4513" cy="97" r="3"/>
<circle cx="-4448" cy="242" r="3"/>
<circle cx="-4455" cy="216" r="3"/>
<circle cx="-4493" cy="91" r="3"/>
<circle cx="-4519" cy="125" r="3"/>
<circle cx="-4520" cy="122" r="3"/>
<circle cx="-4549" cy="87" r="3"/>
<circle cx="-4483" cy="92" r="3"/>
<circle cx="-4555" cy="48" r="3"/>
<circle cx="-4562" cy="59" r="3"/>
<circle cx="-4533" cy="68" r="3"/>
<circle cx="-4565" cy="54" r="3"/>
<circle cx="-4482" cy="110" r="3"/>
<circle cx="-4405" cy="26" r="3"/>
<circle cx="-4406" cy="26" r="3"/>
<circle cx="-4410" cy="24" r="3"/>
<circle cx="-4412" cy="23" r="3"/>
<circle cx="-4416" cy="20" r="3"/>
<circle cx="-4422" cy="139" r="3"/>
<circle cx="-4439" cy="78" r="3"/>
<circle cx="-4404" cy="32" r="3"/>
<circle cx="-4436" cy="167" r="3"/>
<circle cx="-4484" cy="102" r="3"/>
<circle cx="-4498" cy="210" r="3"/>
<circle cx="-4532" cy="45" r="3"/>
<circle cx="-4425" cy="-11" r="3"/>
<circle cx="-4428" cy="-12" r="3"/>
<circle cx="-4435" cy="18" r="3"/>
<circle cx="-4480" cy="234" r="3"/>
<circle cx="-4500" cy="80" r="3"/>
<circle cx="-4419" cy="-18" r="3"/>
<circle cx="-4419" cy="-18" r="3"/>
<circle cx="-4420" cy="-17" r="3"/>
<circle cx="-4429" cy="7" r="3"/>
<circle cx="-4431" cy="12" r="3"/>
<circle cx="-4433" cy="21" r="3"/>
<circle cx="-4440" cy="104" r="3"/>
<circle cx="-4440" cy="106" r="3"/>
<circle cx="-4440" cy="8" r="3"/>
<circle cx="-4442" cy="13" r="3"/>
<circle cx="-4442" cy="15" r="3"/>
<circle cx="-4443" cy="15" r="3"/>
<circle cx="-4467" cy="86" r="3"/>
<circle cx="-4468" cy="89" r="3"/>
<circle cx="-4477" cy="178" r="3"/>
</g>
<g stroke-width="0.5px" stroke="rgb(254,233,0)" fill="none">
</g>
<g stroke="rgb(254,233,0)" fill="rgb(254,233,0)">
<circle cx="-4512" cy="188" r="2.25"/>
<circle cx="-4463" cy="-57" r="2.25"/>
<circle cx="-4464" cy="-45" r="2.25"/>
<circle cx="-4466" cy="-48" r="2.25"/>
<circle cx="-4468" cy="-51" r="2.25"/>
<circle cx="-4472" cy="-50" r="2.25"/>
<circle cx="-4472" cy="-44" r="2.25"/>
<circle cx="-4491" cy="-7" r="2.25"/>
<circle cx="-4491" cy="-7" r="2.25"/>
<circle cx="-4491" cy="-7" r="2.25"/>
<circle cx="-4507" cy="118" r="2.25"/>
<circle cx="-4508" cy="118" r="2.25"/>
<circle cx="-4509" cy="110" r="2.25"/>
<circle cx="-4514" cy="120" r="2.25"/>
<circle cx="-4516" cy="122" r="2.25"/>
<circle cx="-4519" cy="77" r="2.25"/>
<circle cx="-4522" cy="118" r="2.25"/>
<circle cx="-4523" cy="91" r="2.25"/>
<circle cx="-4523" cy="91" r="2.25"/>
<circle cx="-4523" cy="91" r="2.25"/>
<circle cx="-4524" cy="104" r="2.25"/>
<circle cx="-4524" cy="97" r="2.25"/>
<circle cx="-4525" cy="105" r="2.25"/>
<circle cx="-4525" cy="111" r="2.25"/>
<circle cx="-4533" cy="106" r="2.25"/>
<circle cx="-4513" cy="100" r="2.25"/>
<circle cx="-4546" cy="149" r="2.25"/>
<circle cx="-4495" cy="57" r="2.25"/>
<circle cx="-4512" cy="170" r="2.25"/>
<circle cx="-4552" cy="52" r="2.25"/>
<circle cx="-4511" cy="101" r="2.25"/>
<circle cx="-4552" cy="58" r="2.25"/>
<circle cx="-4489" cy="32" r="2.25"/>
<circle cx="-4499" cy="91" r="2.25"/>
<circle cx="-4520" cy="124" r="2.25"/>
<circle cx="-4523" cy="196" r="2.25"/>
<circle cx="-4549" cy="70" r="2.25"/>
<circle cx="-4550" cy="59" r="2.25"/>
<circle cx="-4552" cy="50" r="2.25"/>
<circle cx="-4577" cy="127" r="2.25"/>
<circle cx="-4577" cy="127" r="2.25"/>
<circle cx="-4491" cy="-7" r="2.25"/>
<circle cx="-4491" cy="-60" r="2.25"/>
<circle cx="-4492" cy="54" r="2.25"/>
<circle cx="-4499" cy="-35" r="2.25"/>
<circle cx="-4507" cy="101" r="2.25"/>
<circle cx="-4551" cy="55" r="2.25"/>
<circle cx="-4489" cy="32" r="2.25"/>
<circle cx="-4494" cy="94" r="2.25"/>
<circle cx="-4498" cy="101" r="2.25"/>
<circle cx="-4499" cy="101" r="2.25"/>
<circle cx="-4511" cy="168" r="2.25"/>
<circle cx="-4517" cy="91" r="2.25"/>
<circle cx="-4517" cy="97" r="2.25"/>
<circle cx="-4521" cy="110" r="2.25"/>
<circle cx="-4529" cy="200" r="2.25"/>
<circle cx="-4534" cy="39" r="2.25"/>
<circle cx="-4538" cy="44" r="2.25"/>
<circle cx="-4539" cy="64" r="2.25"/>
<circle cx="-4548" cy="63" r="2.25"/>
<circle cx="-4548" cy="64" r="2.25"/>
<circle cx="-4549" cy="56" r="2.25"/>
<circle cx="-4512" cy="188" r="2.25"/>
<circle cx="-4534" cy="47" r="2.25"/>
<circle cx="-4541" cy="133" r="2.25"/>
<circle cx="-4551" cy="56" r="2.25"/>
<circle cx="-4494" cy="94" r="2.25"/>
<circle cx="-4539" cy="38" r="2.25"/>
<circle cx="-4542" cy="36" r="2.25"/>
<circle cx="-4551" cy="48" r="2.25"/>
<circle cx="-4490" cy="96" r="2.25"/>
<circle cx="-4491" cy="110" r="2.25"/>
<circle cx="-4549" cy="55" r="2.25"/>
<circle cx="-4561" cy="54" r="2.25"/>
<circle cx="-4498" cy="109" r="2.25"/>
<circle cx="-4501" cy="15" r="2.25"/>
<circle cx="-4505" cy="59" r="2.25"/>
<circle cx="-4527" cy="-20" r="2.25"/>
<circle cx="-4527" cy="-4" r="2.25"/>
<circle cx="-4528" cy="-4" r="2.25"/>
<circle cx="-4530" cy="39" r="2.25"/>
<circle cx="-4564" cy="55" r="2.25"/>
<circle cx="-4565" cy="54" r="2.25"/>
<circle cx="-4494" cy="81" r="2.25"/>
<circle cx="-4495" cy="82" r="2.25"/>
<circle cx="-4493" cy="98" r="2.25"/>
<circle cx="-4489" cy="65" r="2.25"/>
<circle cx="-4534" cy="39" r="2.25"/>
<circle cx="-4537" cy="62" r="2.25"/>
<circle cx="-4540" cy="11" r="2.25"/>
<circle cx="-4542" cy="54" r="2.25"/>
<circle cx="-4548" cy="56" r="2.25"/>
<circle cx="-4555" cy="48" r="2.25"/>
<circle cx="-4561" cy="54" r="2.25"/>
<circle cx="-4483" cy="-6" r="2.25"/>
<circle cx="-4527" cy="-4" r="2.25"/>
<circle cx="-4530" cy="41" r="2.25"/>
<circle cx="-4537" cy="78" r="2.25"/>
<circle cx="-4477" cy="15" r="2.25"/>
<circle cx="-4478" cy="14" r="2.25"/>
<circle cx="-4479" cy="14" r="2.25"/>
<circle cx="-4481" cy="54" r="2.25"/>
<circle cx="-4486" cy="110" r="2.25"/>
<circle cx="-4493" cy="123" r="2.25"/>
<circle cx="-4500" cy="106" r="2.25"/>
<circle cx="-4500" cy="107" r="2.25"/>
<circle cx="-4500" cy="-55" r="2.25"/>
<circle cx="-4500" cy="121" r="2.25"/>
<circle cx="-4503" cy="120" r="2.25"/>
<circle cx="-4504" cy="58" r="2.25"/>
<circle cx="-4544" cy="58" r="2.25"/>
<circle cx="-4495" cy="56" r="2.25"/>
<circle cx="-4515" cy="112" r="2.25"/>
<circle cx="-4491" cy="-60" r="2.25"/>
<circle cx="-4551" cy="59" r="2.25"/>
<circle cx="-4486" cy="68" r="2.25"/>
<circle cx="-4495" cy="88" r="2.25"/>
<circle cx="-4507" cy="-51" r="2.25"/>
<circle cx="-4546" cy="68" r="2.25"/>
<circle cx="-4565" cy="54" r="2.25"/>
<circle cx="-4500" cy="106" r="2.25"/>
<circle cx="-4500" cy="106" r="2.25"/>
<circle cx="-4501" cy="122" r="2.25"/>
<circle cx="-4501" cy="120" r="2.25"/>
<circle cx="-4501" cy="119" r="2.25"/>
<circle cx="-4501" cy="121" r="2.25"/>
<circle cx="-4503" cy="120" r="2.25"/>
<circle cx="-4503" cy="121" r="2.25"/>
<circle cx="-4488" cy="55" r="2.25"/>
<circle cx="-4503" cy="59" r="2.25"/>
<circle cx="-4513" cy="104" r="2.25"/>
<circle cx="-4527" cy="36" r="2.25"/>
<circle cx="-4547" cy="34" r="2.25"/>
<circle cx="-4502" cy="112" r="2.25"/>
<circle cx="-4519" cy="22" r="2.25"/>
<circle cx="-4520" cy="22" r="2.25"/>
<circle cx="-4529" cy="43" r="2.25"/>
<circle cx="-4538" cy="44" r="2.25"/>
<circle cx="-4492" cy="-60" r="2.25"/>
<circle cx="-4493" cy="89" r="2.25"/>
<circle cx="-4478" cy="14" r="2.25"/>
<circle cx="-4500" cy="91" r="2.25"/>
<circle cx="-4505" cy="94" r="2.25"/>
<circle cx="-4506" cy="72" r="2.25"/>
<circle cx="-4507" cy="96" r="2.25"/>
<circle cx="-4469" cy="-56" r="2.25"/>
<circle cx="-4499" cy="96" r="2.25"/>
<circle cx="-4515" cy="59" r="2.25"/>
<circle cx="-4488" cy="53" r="2.25"/>
<circle cx="-4541" cy="65" r="2.25"/>
<circle cx="-4488" cy="13" r="2.25"/>
<circle cx="-4507" cy="-52" r="2.25"/>
<circle cx="-4479" cy="15" r="2.25"/>
<circle cx="-4498" cy="-22" r="2.25"/>
<circle cx="-4502" cy="121" r="2.25"/>
<circle cx="-4507" cy="100" r="2.25"/>
<circle cx="-4519" cy="22" r="2.25"/>
<circle cx="-4533" cy="44" r="2.25"/>
<circle cx="-4500" cy="80" r="2.25"/>
<circle cx="-4494" cy="59" r="2.25"/>
<circle cx="-4494" cy="81" r="2.25"/>
<circle cx="-4495" cy="50" r="2.25"/>
<circle cx="-4496" cy="50" r="2.25"/>
<circle cx="-4509" cy="100" r="2.25"/>
<circle cx="-4513" cy="97" r="2.25"/>
<circle cx="-4493" cy="91" r="2.25"/>
<circle cx="-4519" cy="125" r="2.25"/>
<circle cx="-4520" cy="122" r="2.25"/>
<circle cx="-4549" cy="87" r="2.25"/>
<circle cx="-4555" cy="48" r="2.25"/>
<circle cx="-4562" cy="59" r="2.25"/>
<circle cx="-4533" cy="68" r="2.25"/>
<circle cx="-4565" cy="54" r="2.25"/>
<circle cx="-4482" cy="110" r="2.25"/>
<circle cx="-4532" cy="45" r="2.25"/>
<circle cx="-4500" cy="80" r="2.25"/>
</g>
<g stroke-width="0.5px" stroke="rgb(192,153,106)" fill="none">
</g>
<g stroke="rgb(192,153,106)" fill="rgb(192,153,106)">
<circle cx="-4431" cy="12" r="2.25"/>
<circle cx="-4455" cy="219" r="2.25"/>
<circle cx="-4487" cy="188" r="2.25"/>
<circle cx="-4394" cy="69" r="2.25"/>
<circle cx="-4452" cy="212" r="2.25"/>
<circle cx="-4415" cy="174" r="2.25"/>
<circle cx="-4389" cy="6" r="2.25"/>
<circle cx="-4515" cy="212" r="2.25"/>
<circle cx="-4447" cy="147" r="2.25"/>
<circle cx="-4453" cy="215" r="2.25"/>
<circle cx="-4454" cy="223" r="2.25"/>
<circle cx="-4496" cy="188" r="2.25"/>
<circle cx="-4427" cy="-44" r="2.25"/>
<circle cx="-4431" cy="3" r="2.25"/>
<circle cx="-4399" cy="148" r="2.25"/>
<circle cx="-4442" cy="64" r="2.25"/>
<circle cx="-4424" cy="81" r="2.25"/>
<circle cx="-4429" cy="2" r="2.25"/>
<circle cx="-4446" cy="53" r="2.25"/>
<circle cx="-4433" cy="162" r="2.25"/>
<circle cx="-4447" cy="52" r="2.25"/>
<circle cx="-4475" cy="266" r="2.25"/>
<circle cx="-4475" cy="266" r="2.25"/>
<circle cx="-4522" cy="232" r="2.25"/>
<circle cx="-4524" cy="227" r="2.25"/>
<circle cx="-4402" cy="54" r="2.25"/>
<circle cx="-4448" cy="92" r="2.25"/>
<circle cx="-4456" cy="-13" r="2.25"/>
<circle cx="-4405" cy="70" r="2.25"/>
<circle cx="-4431" cy="78" r="2.25"/>
<circle cx="-4459" cy="223" r="2.25"/>
<circle cx="-4440" cy="69" r="2.25"/>
<circle cx="-4522" cy="231" r="2.25"/>
<circle cx="-4524" cy="227" r="2.25"/>
<circle cx="-4401" cy="39" r="2.25"/>
<circle cx="-4404" cy="26" r="2.25"/>
<circle cx="-4411" cy="24" r="2.25"/>
<circle cx="-4411" cy="84" r="2.25"/>
<circle cx="-4412" cy="83" r="2.25"/>
<circle cx="-4412" cy="84" r="2.25"/>
<circle cx="-4438" cy="73" r="2.25"/>
<circle cx="-4440" cy="74" r="2.25"/>
<circle cx="-4448" cy="103" r="2.25"/>
<circle cx="-4448" cy="92" r="2.25"/>
<circle cx="-4457" cy="121" r="2.25"/>
<circle cx="-4466" cy="140" r="2.25"/>
<circle cx="-4509" cy="211" r="2.25"/>
<circle cx="-4405" cy="31" r="2.25"/>
<circle cx="-4436" cy="167" r="2.25"/>
<circle cx="-4439" cy="63" r="2.25"/>
<circle cx="-4443" cy="21" r="2.25"/>
<circle cx="-4445" cy="69" r="2.25"/>
<circle cx="-4445" cy="68" r="2.25"/>
<circle cx="-4447" cy="70" r="2.25"/>
<circle cx="-4448" cy="69" r="2.25"/>
<circle cx="-4457" cy="164" r="2.25"/>
<circle cx="-4458" cy="165" r="2.25"/>
<circle cx="-4463" cy="154" r="2.25"/>
<circle cx="-4447" cy="52" r="2.25"/>
<circle cx="-4459" cy="124" r="2.25"/>
<circle cx="-4418" cy="130" r="2.25"/>
<circle cx="-4445" cy="98" r="2.25"/>
<circle cx="-4447" cy="70" r="2.25"/>
<circle cx="-4447" cy="72" r="2.25"/>
<circle cx="-4450" cy="93" r="2.25"/>
<circle cx="-4498" cy="212" r="2.25"/>
<circle cx="-4445" cy="29" r="2.25"/>
<circle cx="-4449" cy="79" r="2.25"/>
<circle cx="-4479" cy="224" r="2.25"/>
<circle cx="-4418" cy="0" r="2.25"/>
<circle cx="-4429" cy="79" r="2.25"/>
<circle cx="-4440" cy="9" r="2.25"/>
<circle cx="-4441" cy="10" r="2.25"/>
<circle cx="-4452" cy="105" r="2.25"/>
<circle cx="-4484" cy="101" r="2.25"/>
<circle cx="-4401" cy="-34" r="2.25"/>
<circle cx="-4426" cy="-12" r="2.25"/>
<circle cx="-4448" cy="90" r="2.25"/>
<circle cx="-4418" cy="-15" r="2.25"/>
<circle cx="-4421" cy="-17" r="2.25"/>
<circle cx="-4429" cy="78" r="2.25"/>
<circle cx="-4445" cy="14" r="2.25"/>
<circle cx="-4429" cy="154" r="2.25"/>
<circle cx="-4448" cy="242" r="2.25"/>
<circle cx="-4455" cy="216" r="2.25"/>
<circle cx="-4483" cy="92" r="2.25"/>
<circle cx="-4405" cy="26" r="2.25"/>
<circle cx="-4406" cy="26" r="2.25"/>
<circle cx="-4410" cy="24" r="2.25"/>
<circle cx="-4412" cy="23" r="2.25"/>
<circle cx="-4416" cy="20" r="2.25"/>
<circle cx="-4422" cy="139" r="2.25"/>
<circle cx="-4439" cy="78" r="2.25"/>
<circle cx="-4404" cy="32" r="2.25"/>
<circle cx="-4436" cy="167" r="2.25"/>
<circle cx="-4484" cy="102" r="2.25"/>
<circle cx="-4498" cy="210" r="2.25"/>
<circle cx="-4425" cy="-11" r="2.25"/>
<circle cx="-4428" cy="-12" r="2.25"/>
<circle cx="-4435" cy="18" r="2.25"/>
<circle cx="-4480" cy="234" r="2.25"/>
<circle cx="-4419" cy="-18" r="2.25"/>
<circle cx="-4419" cy="-18" r="2.25"/>
<circle cx="-4420" cy="-17" r="2.25"/>
<circle cx="-4429" cy="7" r="2.25"/>
<circle cx="-4431" cy="12" r="2.25"/>
<circle cx="-4433" cy="21" r="2.25"/>
<circle cx="-4440" cy="104" r="2.25"/>
<circle cx="-4440" cy="106" r="2.25"/>
<circle cx="-4440" cy="8" r="2.25"/>
<circle cx="-4442" cy="13" r="2.25"/>
<circle cx="-4442" cy="15" r="2.25"/>
<circle cx="-4443" cy="15" r="2.25"/>
<circle cx="-4467" cy="86" r="2.25"/>
<circle cx="-4468" cy="89" r="2.25"/>
<circle cx="-4477" cy="178" r="2.25"/>
</g>
<g stroke-width="0.5px" stroke="rgb(169,254,0)" fill="none">
</g>
<g stroke="rgb(169,254,0)" fill="rgb(169,254,0)">
<circle cx="-4284" cy="17" r="2.25"/>
<circle cx="-4348" cy="-3" r="2.25"/>
<circle cx="-4301" cy="-6" r="2.25"/>
<circle cx="-4320" cy="-14" r="2.25"/>
<circle cx="-4318" cy="7" r="2.25"/>
<circle cx="-4291" cy="-6" r="2.25"/>
<circle cx="-4302" cy="26" r="2.25"/>
</g>
</g>
</g>
</g>
<g inkscape:groupmode="layer" inkscape:label="PythonScript, line 0:2(FG)" id="PythonScript, line 0:2(FG)"><title>PythonScript, line 0:2(FG)</title>
<g id="Page0" inkscape:label="Page0">
<g id="drawing" inkscape:label="drawing" transform="translate(4670.1,-339.394)">
<g fill-rule="evenodd" stroke="none">
<path fill="rgb(164,230,243)" d="M-4577.96 309.064l-1.71069 -1.91015l-5.27308 -5.097l-0.956446 -1.18891l-1.25912 -0.33247l-0.743171 0.249788l-1.35829 -0.964852l-1.18163 -1.8513l-1.45465 -1.64799l-1.14623 -1.72164l0.279259 -0.554762l0.376795 -0.467849l0.74493 -0.306688l0.436732 -1.14689l-0.203337 -0.631035l-0.466107 -0.583248l0.0640776 -0.733928l0.796065 -0.200474l-0.250444 -0.999074l-0.246428 -1.20942l0.48806 -0.833031l0.895649 0.116525l1.00755 -0.562325l0.93632 0.955558l1.68656 -0.134072l0.857948 -1.24513l0.239573 -1.98878l-1.22558 -2.6901l-1.86981 -1.91368l-1.77224 -1.33617l-1.34244 -2.01241l-0.92551 -1.69236l-1.91751 -2.54828l-4.53008 -4.85163l-1.9273 -2.39917l0.275458 -0.783836l0.695707 -0.353767l0.856178 -0.827301l-0.150493 -1.11269l-0.486719 -1.28097l0.485656 -2.89549l0.0253131 -0.893047l-0.31993 -1.01733l-0.53859 -1.15543l-0.354452 -1.08638l0.232468 -0.851619l0.593826 -0.524777l0.393584 -0.280803l0.34065 -0.322232l0.425804 -0.635261l0.807882 -1.92419l0.02072 -1.28893l-0.828602 -3.17169l0.273897 -1.11861l0.639865 -1.33957l0.771058 -1.22909l0.635255 -0.77336l4.93016 -3.35582l1.28203 -1.31195l1.05416 -1.86435l0.791772 -0.883838l1.07027 -0.372869l1.02424 -0.239375l0.612244 -0.626052l0.890739 -1.84133l3.0451 -4.58491l1.77228 -1.85054l2.13594 -1.67101l2.31317 -1.29814l0.856217 -0.800981l0.338347 -1.18766l0.151907 -1.27052l0.382078 -1.18766l1.01273 -1.98403l1.5191 -1.91037l2.03006 -1.6572l8.97188 -5.34446l1.61346 -1.56053l2.39143 -3.50313l0.342946 -1.17845l0.455727 -0.184133l0.566211 -0.0920663l0.504062 -0.294617l0.879234 -0.340644l3.93354 0.128896l1.08409 -0.239375l1.16004 -0.483348l0.920663 -0.745739l0.382078 -1.00813l0.156512 -0.621447l0.750343 -1.27512l0.248578 -0.616848l0.0184121 -0.552398l-0.121984 -0.405095l-0.0690497 -0.423507l0.172621 -0.580019l0.759547 -0.455727l0.349853 -0.66748l0.280803 -0.791772l0.543194 -0.791772l-0.573112 1.58815l-0.200248 0.382073l0.352155 1.16004l0.678992 -0.524777l0.317627 -1.77689l0.580019 -0.828596l1.54672 1.54671l0.768756 -0.322232l4.09236 -0.837805l0.70431 0.0690497l0.464936 0.115083l0.414298 0.0230166l0.543189 -0.207149l1.28893 -1.5191l0.255484 -0.220957l2.13824 -4.44681l0.598431 -0.800975l1.26592 0.239369l0.262391 1.34877l-0.400491 2.70215l0.60764 -0.359056l0.375172 -0.547799l0.31993 -0.630656l0.451122 -0.612238l0.515573 -0.409699l1.7999 -1.13242l0.837805 -0.9713l0.550095 -1.18305l0.310726 -1.27513l0.262391 -2.18197l0.920663 -2.04388l1.90347 -3.0428l0.483348 -1.13242l-0.563903 -0.985114l0.204847 -1.27972l0.745739 -2.2096l0.124286 -0.994317l1.76768 -5.76797l1.19456 -2.14055l0.128891 -0.372869l0.554705 -1.21067l0.209451 -1.31655l1.20147 -3.29598l0.649068 -0.9713l1.69632 -1.73546l0.483348 -1.00352l0.0759564 -1.36259l-0.363661 -2.52722l-0.764151 -1.97483l-0.184138 -0.313029l-1.23829 0.0736541l-0.639865 -0.055242l-0.455727 -0.220957l-0.683596 -1.04495l-1.09099 -3.03359l-0.706613 -1.114l-0.342946 -0.690497l-0.103572 -0.800981l0.0483354 -3.29598l-0.379776 -2.6331l-0.0230166 -0.73653l0.347551 -1.2429l0.089764 -0.764151l-0.262391 -0.340644l-0.0920663 -0.230166l-0.718118 -0.966701l-0.174924 -0.156512l-0.0851653 -0.386677l-0.168017 -0.285408l-0.128896 -0.386677l0.0345277 -0.681294l0.283105 -0.621447l0.372869 -0.483354l0.131193 -0.510969l-0.439617 -0.695101l0.874629 -0.920663l0.893047 -0.262391l0.695101 -0.409694l0.276199 -1.32576l0.428112 -0.635261l0.93447 -0.423507l0.934476 -0.626052l0.409699 -1.22448l-3.35583 1.90578l-0.363661 0.276199l-0.147308 0.497161l-0.0345277 0.998921l-0.414298 0.179528l-1.83442 0.124292l-0.4166 0.474139l-0.0966707 0.441919l-0.483348 1.3764l-0.481046 2.26484l-0.0782586 1.63418l0.345248 1.63879l1.72164 2.99676l0.128896 1.71704l-0.87924 11.0158l-0.598431 2.29706l-0.393584 0.616843l-1.54902 1.72625l-0.550101 0.359062l-0.911459 0.276199l-1.96101 1.13242l-0.814789 0.170325l-0.568513 -0.280803l-0.331441 -0.759552l-0.451122 -0.151907l-1.21067 0.133495l-0.405095 -0.138099l-0.72042 -0.552398l-0.301518 -0.929872l0.75725 -0.883838l1.68712 -1.13702l0.515573 -1.18766l0.253182 -0.851613l0.584623 -0.501766l1.5237 -0.16572l0.359062 0.23477l0.338342 0.483348l0.428112 0.43732l0.632958 0.0368242l0.540892 -0.322232l0.255484 -0.478749l-0.0414343 -0.580019l-0.33604 -0.616843l-0.253182 1.18766l-0.764151 -0.248583l-1.33497 -1.29353l-1.2406 0.142704l-1.13011 0.575414l-0.819393 0.253182l-0.317627 -0.791772l0.237072 -1.24289l1.06337 -2.41675l0.241677 -1.35798l0.211748 -0.699706l0.510969 -0.276199l0.644469 -0.124292l0.598431 -0.243973l0.428112 -0.441919l1.15083 -1.83212l-0.520178 0.138099l-0.290006 0.174924l-0.593832 0.616848l-0.469535 0.193336l-1.14623 -0.0920663l-0.524777 0.055242l-0.639865 0.437315l-0.50176 0.690497l-2.44206 6.29735l-3.85989 5.4089l-1.74466 1.88736l-1.83673 0.796377l-0.423507 0.741135l-0.423507 0.529381l-0.52248 0.308424l-0.540886 -0.00920889l-0.294617 -0.230166l-0.211754 -0.349853l-0.285402 -0.377474l-0.828602 -0.368265l-0.543189 0.423507l-0.197946 0.934476l0.197946 1.13702l0.216352 0.16572l1.54212 1.56973l0.197946 0.46954l0.0437309 0.639865l-0.0667475 1.22448l-0.568513 0.515573l-1.29814 -0.174929l-2.38222 -0.93447l-2.38912 -2.03007l-0.833201 -0.46954l-0.731931 -0.718118l-0.331441 -0.257787l-0.354452 -0.101275l-1.00813 -0.138099l-0.531683 -0.147303l-2.15435 -1.381l-6.00734 -7.07531l-4.67007 -4.35935l-1.82243 -0.59334l-1.65106 -0.794131l-1.83628 0.0622675l-2.99463 -0.994877l-1.04266 -0.474139l-2.37761 -2.09912l-1.2475 -0.474145l-0.890739 0.00920889l-0.674387 -0.128891l-0.428112 -0.510969l-0.333743 -1.91038l-0.435013 -0.851619l-0.925267 -1.32115l-0.782563 -0.80558l-2.09682 -1.68021l-0.232468 -0.363661l-0.266996 -0.593832l-0.119687 -0.552398l0.216358 -0.248578l0.451128 0.110478l0.207149 0.239375l0.119687 0.26699l0.188731 0.156512l1.43854 0.345248l0.678986 0.0414343l0.301518 0.179528l0.284802 0.965287l0.735863 0.795104l1.41094 -0.0607911l2.02338 -0.732949l2.87981 -2.32105l2.20375 -1.09876l2.02071 -2.2586l0.426081 -3.36099l-0.797898 -1.71366l-0.450178 -1.76333l-0.170325 -0.460337l0.25144 -0.590116l0.611927 -0.121718l0.796094 -0.426335l0.168062 -1.37985l-0.158819 -1.43624l-1.55842 -6.0207l-0.851421 -2.38036l-0.368265 -1.04496l-0.497161 -0.870025l-0.533985 -0.649068l-0.672085 -1.04956l-1.33036 -3.28217l-0.777959 -1.00353l-0.257787 -0.727327l-0.0851653 -0.828596l0.227869 -0.644464l1.98332 -1.39511l-0.243266 -1.32085l0.0138077 -1.63879l0.510522 -0.470128l0.672922 -0.611848l0.693195 -0.175252l0.933792 0.0069802l0.244788 -0.732508l-0.0287749 -0.807678l0.120824 -1.10136l0.289865 -0.976985l-0.254981 -1.29945l0.241767 -0.808346l0.981589 -0.477114l-0.0901317 -1.37956l-1.68478 -2.33224l-3.36839 -4.0336l-2.74692 -4.83459l-1.19341 -2.88413l-0.73149 -1.65476l0.371597 -1.1658l0.682866 -0.681169l0.79339 -0.671067l0.73541 -0.796043l0.432196 -0.553535l0.428785 -0.550802l0.731467 -0.792807l0.673918 -0.795698l0.18437 -0.489734l0.612108 -0.244907l0.796778 0.242825l0.79615 -0.00120485l0.795669 -0.489802l0.73373 -0.305754l0.856659 0.182345l0.672277 -0.244415l0.672696 -0.244811l-0.120457 0.495504l1.03926 0.48815l0.855669 0.0607289l0.673844 -0.584171l0.427766 -0.183324l0.427546 -0.549598l0.610903 -0.183261l0.549813 0.793803l0.488795 0.121973l1.03856 0.121831l1.40484 -0.549807l1.22191 -1.09996l1.28241 -1.34359l0.813731 -3.51966l0.214056 -1.1048l0.742718 -3.65674l1.038 -2.80863l1.2819 -2.56379l0.702902 -1.65056l0.275096 -0.3049l0.488773 -0.366743l0.794074 -0.122301l0.73192 -0.243136l0.121786 1.4658l0.792711 1.16079l1.52878 0.670382l1.46654 0.182843l3.04689 0.0628331v-0.671632l-1.58121 -0.429667l-1.70975 -0.366619h-1.16103l-0.793978 -0.610745l-0.610977 -1.58771l-0.736553 -1.33861l-0.793237 -0.305607l-0.426646 -0.611622l-0.0618489 -1.34134l-0.608516 -1.59233l-0.174217 -1.63678l-0.802242 -1.78569l-1.03841 -1.22069l-0.671265 -2.38802l0.61165 -0.800608l1.15927 -0.111236l1.8345 -1.47449l1.76798 -2.67372l0.572592 -0.994023l0.145006 -0.764157l0.503457 -1.23435l0.489327 -0.915532l1.22035 -0.427981l0.733261 -1.16007l0.735354 -1.22088l1.03769 0.916041l1.22339 -0.610457l1.3451 -1.03835l1.58923 -1.16071l3.3664 -3.66671l2.68732 -3.4659l0.633326 -0.773383l0.324166 -0.395858l0.400491 -1.12321l0.115083 -0.695101l0.280803 -0.239375l0.370567 -0.121984l1.17717 -0.373905l0.854701 -2.1372l0.488082 -1.89313l0.324902 -2.97029l-0.0805608 -1.36029l-0.441919 -2.40984l-0.128891 -4.28109l0.515568 -1.49378l0.0184178 -0.487952l0.142698 -0.211754l0.612244 0.294617l0.260089 0.280803l0.214056 0.4166l0.262391 0.849311h0.421199l0.0851653 -0.708909l0.580019 -1.1071l0.142704 -0.499458l-0.133501 -0.715821l-0.329133 -0.497156l-0.766453 -0.752646l-1.34418 -2.20269l-0.402787 -1.11861l-0.149611 -1.13932l0.161116 -1.2521l0.391282 -0.649068l0.501766 -0.533985l0.490255 -0.899954l0.110478 -1.18075l-0.306122 -1.14623l-0.405095 -0.98741l-0.386677 -1.61807l-0.510969 -0.674387l-0.794074 -0.425804l-1.02194 -0.147308l-0.725025 -0.276199l-0.50176 -0.681294l-0.326836 -0.874629l-0.186435 -0.870031l-0.0207143 -2.43516l0.642162 -2.38912l1.21298 -2.02546l1.67561 -1.33036l0.966696 0.487952l0.828602 0.0989729l1.87585 -0.16572l0.84241 -0.241677l1.1117 -1.03575l0.766453 -0.23477l0.807888 -0.128896l1.41782 -0.5547l1.79299 -0.30382l1.06567 -0.800975l0.708909 -0.179534l0.418903 -0.209451l1.72164 -1.36719l0.407397 -0.428106l0.725019 -1.05416l0.414304 -0.414298l1.34647 -0.612244l3.38574 -1.07258l1.48227 -1.05646l0.30382 0.580019l0.0230166 0.51787l-1.13702 3.53996l0.262391 0.844712l0.46954 0.494859l0.593826 0.409694l0.639865 0.600733l0.759547 1.53521l0.398188 0.432716l-0.925267 -2.53643l-0.729629 -0.619151l-0.237072 -0.359056l0.00230222 -0.315331l0.290012 -0.520172l0.0552364 -0.322238l-0.0851596 -1.41782l0.126594 -1.07717l0.494853 -0.794074l1.00813 -0.568513l2.43746 0.699706l2.67453 -1.51219l3.84378 -3.50773l1.21528 -0.315325l3.98187 0.315325l0.492557 -0.117385l1.28893 -0.506364l0.552398 -0.115083l1.54672 0.027621l0.713514 -0.117385l0.635261 -0.331441l1.36028 0.718118l1.60196 -0.223259l1.62268 -0.561606l1.43624 -0.31993l1.04265 -0.552403l4.26958 -5.65519l0.8263 -0.451122l1.39481 0.478743l1.1048 0.920668l0.711217 1.15773l0.379771 1.381l0.117385 1.59505l1.08178 -0.573112l0.589227 -0.840107l0.248578 -1.05877l0.179528 -2.48579l0.349853 -0.649068l0.501766 -0.517876l0.598431 -0.85852l0.186435 0.483348l0.331441 0.223265l0.458029 -0.0345277l0.566211 -0.285402l0.510969 -0.478749l0.0805552 -0.400491l-0.0253188 -0.444221l0.207149 -0.607634l0.922971 -1.04726l0.941377 -0.151913l2.38683 0.812486l-0.412002 -0.817091l-1.01273 -0.26699l-1.18305 -0.119687l-0.906855 -0.377474l-0.393584 -0.794074l0.195638 -0.745739l0.497161 -0.660574l2.11293 -2.10372l0.326836 -0.750343l-0.0253188 -0.856217l-0.200242 -0.768756l0.105874 -0.621447l0.895349 -0.423507l-0.379776 -1.01273l-0.699706 -0.603035l-0.750343 -0.478749l-0.524777 -0.642162l-0.0644453 -0.863124l0.119682 -1.07258l0.00920889 -1.07258l-0.4166 -0.856217l-0.361364 -0.101275l-0.729623 0.347556l-1.10898 0.498688l-0.471328 -0.549858l-0.576036 -0.523623l-0.733283 -0.104737l-0.549937 -0.49741l-1.23145 -0.680813l-0.50581 -0.242904l-1.49713 -0.942146l-0.831872 -0.886746l-0.499203 -0.831345l0.277172 -0.942061l0.443577 -0.554089l0.887238 -0.332261l1.10897 -0.276753l0.997801 -0.941971l0.886763 -1.71841l0.776109 -1.05325l1.44154 -1.44156l1.1645 -1.331l0.77646 -0.832188l1.16486 -0.943538l2.63963 -0.590087l1.27512 0.20255l0.984073 -0.119393l1.23582 0.268489l1.07451 0.48332l1.20764 0.292852l1.89657 0.131193l1.2521 0.276199l1.63786 0.201736l0.288343 0.14405l0.396582 0.468098l0.540423 0.396175l0.576138 0.180173l0.540638 -0.107888l-0.0349689 -0.792219l0.0726699 -0.432145l0.217054 -0.900316l0.757935 -0.828347l0.397764 -1.44083l-0.439566 -0.923293l0.0690497 -0.847014l0.0943685 -0.186435l0.188737 -0.273897l0.151907 -0.372869l-0.0138077 -0.499463l-0.166914 -0.33221l-0.223389 0.224424l-0.349762 0.705691l-0.736134 0.416549l-1.12399 -0.00205899l-0.354282 -0.737746l-0.0327345 -1.05678l0.248227 -1.14896l0.0736541 -0.858525l0.285402 -1.38099l0.0623297 -0.652162h-3.10146l-0.35487 1.09504l-0.609178 0.319539l-0.416448 -0.44817l-0.0812 -0.966413h-160.248v424.242h33.0805l-0.94123 -2.04681z
M-4467.4 -70.8076L-4468.24 -71.742L-4468.43 -72.7893L-4467.6 -74.0069L-4463.13 -77.731L-4463.12 -77.1924L-4463.04 -76.8149L-4462.77 -76.1474L-4462.72 -74.2508L-4462.99 -71.9193L-4463.74 -70.4393L-4465.09 -71.093L-4465.63 -70.4577L-4466.25 -69.9329L-4467.4 -70.8076z
M-4518.31 149.881L-4518.57 148.595L-4517.79 146.45L-4516.59 143.362L-4515.05 140.617L-4514.45 142.075L-4513.08 142.589L-4512.39 143.789L-4513.59 145.591L-4515.56 146.621L-4515.82 149.108L-4517.19 149.966L-4518.31 149.881z
M-4538.16 171.516L-4539.48 171.171L-4540.3 170.743L-4540.63 169.494L-4540.29 167.488L-4540.08 160.694L-4539.88 159.93L-4537.98 156.422L-4537.17 154.134L-4536.36 153.554L-4532.92 152.555L-4529.83 151.022L-4528.64 150.622L-4526.07 150.704L-4522.19 153.103L-4519.76 153.715L-4519.85 154.152L-4520 154.557L-4520.23 154.926L-4520.53 155.262L-4521.16 155.791L-4524 157.016L-4524.18 157.513L-4524.98 158.272L-4525.16 158.576L-4525.51 159.446L-4525.97 160.316L-4526.44 160.809L-4526.56 160.818L-4527.16 161.847L-4527.84 163.205L-4528.55 164.495L-4528.93 165.412L-4529.84 165.786L-4530.59 166.635L-4530.56 167.959L-4531.42 168.768L-4531.76 169.583L-4532.66 170.88L-4534.69 170.678L-4535.82 171.337L-4536.78 171.627L-4538.16 171.516"/>
</g>
<g stroke-width="0.5px" stroke="rgb(51,51,51)" fill="none">
<path d="M-4531.76 169.583l-0.901172 1.2977l-2.02424 -0.202106l-1.12781 0.658275l-0.959793 0.29001l-1.3787 -0.11048l-1.32806 -0.345249l-0.812487 -0.428109l-0.334522 -1.24908l0.342535 -2.00536l0.203324 -6.79383l0.200662 -0.764931l1.90578 -3.50773l0.807884 -2.28785l0.807883 -0.580019l3.44099 -0.998922l3.09343 -1.53291l1.18766 -0.400489l2.56635 0.0828599l3.88751 2.39833l2.43056 0.612242l-0.0897648 0.437316l-0.158815 0.405093l-0.227865 0.368266l-0.296914 0.336043l-0.630656 0.529382l-2.84485 1.22448l-0.17953 0.497159l-0.796375 0.759549l-0.181831 0.303819l-0.342948 0.870028l-0.464936 0.870028l-0.469539 0.492556l-0.119686 0.00920663l-0.60004 1.02923l-0.679146 1.35792l-0.713205 1.29003l-0.373628 0.916629l-0.917687 0.37379l-0.747743 0.84905l0.0344119 1.32393l-0.861773 0.809358l-0.345249 0.814789"/>
<path d="M-4515.82 149.108l-1.37309 0.858031l-1.11596 -0.0853211l-0.258038 -1.28619l0.77169 -2.14421l1.2005 -3.08793l1.54401 -2.74526l0.601462 1.45791l1.37374 0.513754l0.687285 1.20034l-1.20116 1.80179l-1.97394 1.03007l-0.256511 2.487"/>
<path d="M-4462.99 -71.9193l-0.74804 1.47997l-1.35108 -0.653672l-0.540891 0.635259l-0.619147 0.524779l-1.14623 -0.874632l-0.84471 -0.934475l-0.188736 -1.04726l0.828598 -1.21758l4.47443 -3.72409l0.00920663 0.538589l0.0782565 0.377473l0.266993 0.667482l0.0552399 1.89657l-0.273898 2.33158"/>
<path d="M-4577.96 309.064l-1.71069 -1.91015l-5.27308 -5.097l-0.956446 -1.18892l-1.25912 -0.332468l-0.74317 0.249787l-1.35829 -0.964851l-1.18164 -1.85131l-1.45465 -1.64799l-1.14623 -1.72164l0.279255 -0.554763l0.376798 -0.467845l0.744927 -0.306692l0.436735 -1.14688l-0.203335 -0.631033l-0.466108 -0.583247l0.0640775 -0.733932l0.796064 -0.200473l-0.250443 -0.999073l-0.246432 -1.20942l0.48806 -0.833031l0.895651 0.116526l1.00755 -0.562326l0.93632 0.95556l1.68656 -0.13407l0.857946 -1.24514l0.239575 -1.98878l-1.22558 -2.6901l-1.86981 -1.91368l-1.77224 -1.33617l-1.34244 -2.01241l-0.925512 -1.69236l-1.91751 -2.54828l-4.53008 -4.85163l-1.9273 -2.39917l0.275458 -0.78384l0.695703 -0.353768l0.85618 -0.827298l-0.150496 -1.11269l-0.486714 -1.28098l0.485651 -2.89549l0.0253183 -0.893045l-0.319931 -1.01733l-0.538589 -1.15543l-0.354456 -1.08638l0.232468 -0.851615l0.593829 -0.524779l0.393584 -0.280803l0.340646 -0.322233l0.425808 -0.635259l0.807883 -1.92419l0.020715 -1.28893l-0.828598 -3.17169l0.273898 -1.11861l0.639862 -1.33957l0.771057 -1.22909l0.635259 -0.773359l4.93016 -3.35582l1.28203 -1.31195l1.05416 -1.86435l0.791772 -0.883838l1.07027 -0.372869l1.02424 -0.239373l0.612242 -0.626052l0.890743 -1.84133l3.0451 -4.58491l1.77228 -1.85054l2.13594 -1.67101l2.31317 -1.29814l0.856218 -0.800979l0.338344 -1.18766l0.15191 -1.27052l0.382076 -1.18766l1.01273 -1.98403l1.5191 -1.91038l2.03007 -1.6572l8.97188 -5.34446l1.61347 -1.56053l2.39143 -3.50313l0.342948 -1.17845l0.455729 -0.184133l0.566209 -0.0920665l0.504064 -0.294613l0.879235 -0.340646l3.93354 0.128893l1.08408 -0.239373l1.16004 -0.483349l0.920665 -0.745739l0.382076 -1.00813l0.156513 -0.621449l0.750342 -1.27512l0.24858 -0.616845l0.0184133 -0.552399l-0.121988 -0.405093l-0.0690499 -0.423506l0.172625 -0.580019l0.759549 -0.455729l0.349853 -0.667482l0.280803 -0.791772l0.543192 -0.791772l-0.573114 1.58815l-0.200245 0.382076l0.352154 1.16004l0.67899 -0.524779l0.317629 -1.77688l0.580019 -0.828599l1.54672 1.54672l0.768755 -0.322233l4.09236 -0.837805l0.704309 0.0690499l0.464936 0.115083l0.414299 0.0230166l0.543192 -0.20715l1.28893 -1.5191l0.255485 -0.22096l2.13824 -4.44681l0.598432 -0.800979l1.26591 0.239373l0.26239 1.34877l-0.400489 2.70215l0.607639 -0.359059l0.375171 -0.547796l0.319931 -0.630656l0.451126 -0.612242l0.515572 -0.409696l1.7999 -1.13242l0.837805 -0.971302l0.550097 -1.18305l0.310724 -1.27512l0.26239 -2.18198l0.920665 -2.04388l1.90347 -3.0428l0.483349 -1.13242l-0.563907 -0.985111l0.204848 -1.27972l0.745739 -2.2096l0.12429 -0.994318l1.76768 -5.76797l1.19456 -2.14055l0.128893 -0.372869l0.554701 -1.21067l0.209451 -1.31655l1.20147 -3.29598l0.649069 -0.971302l1.69633 -1.73545l0.483349 -1.00352l0.0759549 -1.36258l-0.363663 -2.52723l-0.764152 -1.97483l-0.184133 -0.313026l-1.23829 0.0736532l-0.639862 -0.0552399l-0.455729 -0.22096l-0.683594 -1.04495l-1.09099 -3.03359l-0.70661 -1.114l-0.342948 -0.690499l-0.103575 -0.800979l0.0483349 -3.29598l-0.379774 -2.6331l-0.0230166 -0.736532l0.347551 -1.2429l0.0897648 -0.764152l-0.26239 -0.340646l-0.0920665 -0.230166l-0.718119 -0.966698l-0.174926 -0.156513l-0.0851615 -0.386679l-0.168021 -0.285406l-0.128893 -0.386679l0.034525 -0.681292l0.283104 -0.621449l0.372869 -0.483349l0.131195 -0.510969l-0.439618 -0.695102l0.874632 -0.920665l0.893045 -0.26239l0.695102 -0.409696l0.276199 -1.32576l0.428109 -0.635259l0.934475 -0.423506l0.934475 -0.626052l0.409696 -1.22448l-3.35582 1.90578l-0.363663 0.2762l-0.147306 0.497159l-0.034525 0.998921l-0.414299 0.17953l-1.83442 0.12429l-0.416601 0.474142l-0.0966699 0.441919l-0.483349 1.37639l-0.481047 2.26484l-0.0782565 1.63418l0.345249 1.63878l1.72164 2.99676l0.128893 1.71704l-0.879235 11.0158l-0.598432 2.29706l-0.393584 0.616846l-1.54902 1.72625l-0.550097 0.359059l-0.911458 0.276199l-1.96102 1.13242l-0.814789 0.170323l-0.568511 -0.280803l-0.331439 -0.759549l-0.451126 -0.15191l-1.21067 0.133496l-0.405093 -0.1381l-0.72042 -0.552399l-0.301518 -0.929872l0.757247 -0.883838l1.68712 -1.13702l0.515572 -1.18766l0.253183 -0.851615l0.584622 -0.501762l1.5237 -0.16572l0.359059 0.23477l0.338344 0.483349l0.428109 0.437316l0.632957 0.0368266l0.540891 -0.322233l0.255485 -0.478746l-0.0414299 -0.580019l-0.336043 -0.616846l-0.253183 1.18766l-0.764152 -0.24858l-1.33496 -1.29353l-1.2406 0.142703l-1.13012 0.575416l-0.819392 0.253183l-0.317629 -0.791772l0.237071 -1.2429l1.06337 -2.41675l0.241675 -1.35798l0.211753 -0.699705l0.510969 -0.2762l0.644465 -0.12429l0.598432 -0.243976l0.428109 -0.441919l1.15083 -1.83212l-0.520176 0.1381l-0.290009 0.174926l-0.593829 0.616846l-0.469539 0.19334l-1.14623 -0.0920665l-0.524779 0.0552399l-0.639862 0.437316l-0.501762 0.690499l-2.44206 6.29735l-3.85989 5.40891l-1.74466 1.88736l-1.83673 0.796375l-0.423506 0.741135l-0.423506 0.529382l-0.522477 0.308423l-0.540891 -0.00920668l-0.294613 -0.230166l-0.211753 -0.349853l-0.285406 -0.377473l-0.828598 -0.368266l-0.543192 0.423506l-0.197943 0.934475l0.197943 1.13702l0.216356 0.16572l1.54211 1.56973l0.197943 0.469539l0.0437316 0.639862l-0.0667482 1.22448l-0.568511 0.515572l-1.29814 -0.174926l-2.38222 -0.934475l-2.38913 -2.03007l-0.833202 -0.469539l-0.731929 -0.718119l-0.331439 -0.257786l-0.354456 -0.101273l-1.00813 -0.1381l-0.531684 -0.147306l-2.15436 -1.381l-6.00734 -7.07531l-4.67007 -4.35935l-1.82242 -0.593339l-1.65106 -0.794129l-1.83628 0.0622674l-2.99463 -0.994875l-1.04265 -0.474142l-2.37762 -2.09912l-1.2475 -0.474142l-0.890743 0.00920663l-0.674387 -0.128893l-0.428109 -0.510969l-0.333741 -1.91038l-0.435014 -0.851615l-0.925268 -1.32115l-0.782565 -0.805582l-2.09681 -1.68021l-0.232468 -0.363663l-0.266993 -0.593829l-0.119686 -0.552399l0.216356 -0.24858l0.451126 0.11048l0.20715 0.239373l0.119686 0.266993l0.188736 0.156513l1.43854 0.345249l0.67899 0.0414299l0.301518 0.17953l0.284802 0.96529l0.735862 0.7951l1.41094 -0.0607874l2.02337 -0.732949l2.87982 -2.32106l2.20375 -1.09876l2.0207 -2.2586l0.426083 -3.36099l-0.797895 -1.71366l-0.450181 -1.76333l-0.170323 -0.460333l0.251442 -0.590117l0.611923 -0.12172l0.796095 -0.426332l0.168059 -1.37985l-0.158815 -1.43624l-1.55842 -6.0207l-0.851419 -2.38036l-0.368266 -1.04495l-0.497159 -0.870028l-0.533986 -0.649069l-0.672085 -1.04956l-1.33036 -3.28217l-0.777962 -1.00352l-0.257786 -0.727325l-0.0851615 -0.828599l0.227865 -0.644465l1.98332 -1.39511l-0.243267 -1.32086l0.0138099 -1.63878l0.510518 -0.470129l0.672922 -0.611847l0.6932 -0.17525l0.933789 0.00697777l0.244789 -0.732511l-0.0287747 -0.807678l0.120822 -1.10135l0.289866 -0.976987l-0.254981 -1.29945l0.241769 -0.808346l0.981589 -0.477112l-0.0901317 -1.37956l-1.68478 -2.33224l-3.36838 -4.03359l-2.74693 -4.83459l-1.19341 -2.88413l-0.731487 -1.65476l0.371597 -1.1658l0.682862 -0.681172l0.793389 -0.671064l0.735413 -0.796041l0.432197 -0.553535l0.428785 -0.550804l0.731465 -0.792806l0.673918 -0.795702l0.184368 -0.48973l0.612107 -0.244909l0.79678 0.242824l0.796153 -0.00120547l0.795671 -0.489798l0.733727 -0.305759l0.856657 0.182349l0.672281 -0.244416l0.672693 -0.244813l-0.120456 0.495504l1.03926 0.488152l0.855671 0.0607287l0.673841 -0.584169l0.427768 -0.183327l0.427545 -0.549595l0.610906 -0.183261l0.549811 0.793802l0.488797 0.121975l1.03856 0.121831l1.40485 -0.549811l1.22191 -1.09996l1.28241 -1.34359l0.813734 -3.51966l0.214055 -1.1048l0.742719 -3.65674l1.038 -2.80863l1.2819 -2.56379l0.702906 -1.65056l0.275092 -0.304899l0.488771 -0.366745l0.794074 -0.1223l0.731923 -0.243138l0.121783 1.4658l0.792716 1.16079l1.52877 0.670382l1.46655 0.182845l3.04689 0.0628312l0.000616566 -0.671628l-1.58121 -0.429671l-1.70976 -0.366616l-1.16103 0.000324291l-0.793974 -0.610741l-0.610976 -1.58771l-0.736554 -1.33861l-0.79324 -0.305609l-0.426642 -0.611623l-0.0618489 -1.34133l-0.608519 -1.59234l-0.174215 -1.63678l-0.802241 -1.78569l-1.03841 -1.22068l-0.671267 -2.38802l0.611651 -0.800606l1.15927 -0.11124l1.8345 -1.47449l1.76798 -2.67371l0.572595 -0.994026l0.145005 -0.764152l0.503456 -1.23436l0.489328 -0.915533l1.22035 -0.427977l0.733258 -1.16007l0.735353 -1.22088l1.03769 0.916043l1.22339 -0.610456l1.3451 -1.03835l1.58923 -1.16071l3.36641 -3.66671l2.68732 -3.4659l0.633326 -0.773388l0.324166 -0.395856l0.400489 -1.12321l0.115083 -0.695102l0.280803 -0.239373l0.370568 -0.121988l1.17717 -0.373905l0.854699 -2.1372l0.488083 -1.89312l0.324901 -2.97029l-0.0805581 -1.36028l-0.441919 -2.40984l-0.128893 -4.28109l0.515572 -1.49378l0.0184133 -0.487952l0.142703 -0.211753l0.612242 0.294613l0.260088 0.280803l0.214055 0.416601l0.262389 0.849313l0.421204 0l0.0851615 -0.708912l0.580019 -1.1071l0.142703 -0.499461l-0.133496 -0.715817l-0.329138 -0.497159l-0.766454 -0.752644l-1.34417 -2.20269l-0.402791 -1.11861l-0.149608 -1.13932l0.161116 -1.2521l0.391283 -0.649069l0.501762 -0.533986l0.490254 -0.89995l0.11048 -1.18075l-0.306121 -1.14623l-0.405093 -0.987413l-0.386679 -1.61807l-0.510969 -0.674387l-0.794074 -0.425808l-1.02194 -0.147306l-0.725024 -0.276199l-0.501762 -0.681292l-0.326836 -0.874632l-0.186435 -0.870028l-0.020715 -2.43516l0.642164 -2.38913l1.21298 -2.02546l1.67561 -1.33036l0.966698 0.487952l0.828599 0.0989715l1.87585 -0.16572l0.842408 -0.241675l1.1117 -1.03575l0.766454 -0.23477l0.807883 -0.128893l1.41782 -0.554701l1.793 -0.303819l1.06567 -0.800979l0.708912 -0.17953l0.418903 -0.209451l1.72164 -1.36719l0.407394 -0.428109l0.725024 -1.05416l0.414299 -0.414299l1.34647 -0.612242l3.38575 -1.07257l1.48227 -1.05646l0.303819 0.580019l0.0230166 0.517874l-1.13702 3.53996l0.26239 0.84471l0.469539 0.494857l0.593829 0.409696l0.639862 0.600734l0.759549 1.53521l0.398188 0.432713l-0.925268 -2.53643l-0.729627 -0.619147l-0.237071 -0.359059l0.00230166 -0.315328l0.290009 -0.520176l0.0552399 -0.322233l-0.0851615 -1.41782l0.126591 -1.07718l0.494857 -0.794074l1.00813 -0.568511l2.43746 0.699705l2.67453 -1.51219l3.84378 -3.50773l1.21528 -0.315328l3.98188 0.315328l0.492556 -0.117385l1.28893 -0.506366l0.552399 -0.115083l1.54672 0.02762l0.713515 -0.117385l0.635259 -0.331439l1.36028 0.718119l1.60196 -0.223261l1.62267 -0.561606l1.43624 -0.319931l1.04265 -0.552399l4.26958 -5.65518l0.826297 -0.451126l1.39481 0.478746l1.1048 0.920665l0.711214 1.15774l0.379774 1.381l0.117385 1.59505l1.08178 -0.573114l0.589226 -0.840107l0.24858 -1.05876l0.17953 -2.4858l0.349853 -0.649069l0.501762 -0.517874l0.598432 -0.85852l0.186435 0.483349l0.331439 0.223261l0.458031 -0.034525l0.566209 -0.285406l0.510969 -0.478746l0.0805581 -0.400489l-0.0253183 -0.444221l0.20715 -0.607639l0.922967 -1.04726l0.94138 -0.15191l2.38682 0.812487l-0.411998 -0.81709l-1.01273 -0.266993l-1.18305 -0.119686l-0.906855 -0.377473l-0.393584 -0.794074l0.195641 -0.745739l0.497159 -0.660577l2.11293 -2.10372l0.326836 -0.750342l-0.0253183 -0.856218l-0.200245 -0.768755l0.105876 -0.621449l0.895347 -0.423506l-0.379774 -1.01273l-0.699705 -0.603036l-0.750342 -0.478746l-0.524779 -0.642164l-0.0644466 -0.863123l0.119686 -1.07257l0.00920663 -1.07257l-0.416601 -0.856218l-0.361361 -0.101273l-0.729627 0.347551l-1.10897 0.498693l-0.471328 -0.54986l-0.576038 -0.523623l-0.733283 -0.104733l-0.549935 -0.497412l-1.23145 -0.680812l-0.505806 -0.242904l-1.49713 -0.942148l-0.831868 -0.886747l-0.499205 -0.831345l0.277172 -0.942062l0.443575 -0.554087l0.887238 -0.332261l1.10897 -0.276752l0.997801 -0.941969l0.886761 -1.71841l0.776112 -1.05325l1.44153 -1.44156l1.1645 -1.331l0.776459 -0.832185l1.16486 -0.943541l2.63962 -0.590084l1.27512 0.202546l0.984076 -0.119392l1.23582 0.268491l1.07451 0.48332l1.20764 0.292849l1.89657 0.131195l1.2521 0.2762l1.63786 0.201734l0.288345 0.144049l0.39658 0.4681l0.540425 0.396174l0.576137 0.18017l0.540639 -0.107887l-0.0349689 -0.792217l0.0726689 -0.432145l0.217055 -0.900319l0.757933 -0.828346l0.397766 -1.44084l-0.439567 -0.923292l0.0690499 -0.847012l0.0943681 -0.186435l0.188736 -0.273898l0.15191 -0.372869l-0.0138099 -0.499461l-0.166914 -0.332214l-0.223391 0.224428l-0.349759 0.705687l-0.736138 0.416551l-1.12398 -0.00205899l-0.354281 -0.737746l-0.0327376 -1.05678l0.248227 -1.14896l0.0736532 -0.85852l0.285406 -1.381"/>
<path d="M-4448.75 -112.036l-0.609181 0.319539l-0.416447 -0.44817"/>
<path d="M-4448.39 -71.2392l-1.32417 -0.409236l-1.10932 -0.862315l-0.852088 -1.14002l-0.556855 -1.25109l-0.581699 -0.955858l-1.66909 -1.34609l-1.18679 -1.65448l-3.31966 -2.27531"/>
<path d="M-4444.37 -67.6438l-0.318617 -0.912008l-1.18386 -1.25109l-0.216307 -0.584623l-0.0964614 -1.0874l-0.530546 -0.157846"/>
<path d="M-4448.39 -71.2392l0.888624 -0.146154l0.793627 -0.251389"/>
<path d="M-4408.06 -49.3451l-0.613856 -0.0116921l-3.84682 -1.44986l-4.01051 -0.14616l-2.37941 -1.15755l-7.36186 -5.56561l-1.15755 -0.613851l-3.36304 -0.906165l-1.08301 -0.526162l-1.3344 -1.01724l-5.32299 -5.91638l-0.634186 -0.494446l-0.400598 -0.312333l-3.13357 -0.719085"/>
<path d="M-4442.7 -68.1816l-0.849164 0.0701584l-0.817012 0.467696"/>
<path d="M-4402.38 -45.7555l-1.14586 -0.0204598l-1.20725 -0.271849l-1.31832 -0.508621l-0.59924 -0.511546l-0.116927 -0.610932l0.017541 -0.628467l-0.201696 -0.57585l-0.549541 -0.57878l-0.271855 -0.0350764"/>
<path d="M-4408.06 -49.3451l0.289384 -0.152003"/>
<path d="M-4386.29 -37.1323l-2.06372 -0.818471l-3.7182 -2.56649l-1.2014 -1.77725l-0.368316 -4.06897l-1.68955 -1.32709l-1.39725 -0.0116921"/>
<path d="M-4402.38 -45.7555l1.13709 -0.233848l4.51036 -1.71294"/>
<path d="M-4367.26 -18.9038l-0.882775 -0.263076l-0.833088 -0.426777l-1.06694 -0.385851l-6.01869 -1.22186l-1.97603 -0.724934l-1.52294 -1.16925l-0.584623 -1.44401l-0.248465 -1.68956l-0.51154 -1.90002l-0.362467 -5.9456l-0.762935 -2.74188l-2.33556 -0.584623"/>
<path d="M-4384.37 -37.4013l-0.271 0.0378877l-1.65241 0.231037"/>
<path d="M-4309.04 -22.6337l-1.38555 -0.093537l-1.22479 -0.280622l-1.12832 -0.49108l-1.0874 -0.713242l-1.56094 -1.64863l-0.564163 -0.251383"/>
<path d="M-4315.99 -26.1122l-0.628467 0.175382l-1.02601 0.777552l-0.295233 0.175387l-0.315699 0.286465l-1.40602 1.67786l-0.526157 0.192928l-0.602164 0.116921l-1.22186 0.0760016"/>
<path d="M-4322.54 -22.7331l0.53493 0.0993859"/>
<path d="M-4330.97 -12.2216l0.827239 -0.105235l1.46448 -0.754162l5.61238 -0.648933l0.999702 -0.666468l-0.584623 -3.75327l0.140311 -4.21513l-0.0292331 -0.36831"/>
<path d="M-4305.75 -19.8977l-0.289384 -0.444318l-0.318623 -1.49663l-0.339077 -0.602158l-0.473545 -0.210464l-0.631392 -0.0467741"/>
<path d="M-4309.04 -22.6337l1.23063 -0.0643095"/>
<path d="M-4302.01 -20.5642l0.543698 0.847704l0.24554 0.672317l3.79128 4.7939l0.280617 0.713242l0.257232 1.0874l0.622624 0.912014l1.40602 1.29786l3.43758 2.12218l0.473539 0.777546l2.26833 1.67787l1.5931 0.888624l0.932474 0.374159l1.09616 0.268924l1.25694 0.105235"/>
<path d="M-4302.01 -20.5642l-1.27448 0.157852l-1.43233 0.456004l-1.03186 0.0526174"/>
<path d="M-4348.05 -13.5487l-0.856472 -0.035082l-0.812628 -0.292309l-0.964625 -0.707393l-1.23356 -1.24525l-0.57585 -0.409236l-0.938322 -0.327385l-0.704469 -0.116927l-2.26248 -0.0409196l-1.68079 -0.567088l-2.1631 -2.44372l-1.18758 -0.298225l-0.767981 -0.192855"/>
<path d="M-4362.2 -20.2251l-0.982166 0.181231l-2.85003 1.06986l-1.23063 0.0701527"/>
<path d="M-4330.97 -12.2216l-1.06986 -0.368316l-1.51125 -1.40894l-0.894473 -0.625548l-0.812622 -0.239691l-2.7565 -0.304006l-1.95557 -0.532006"/>
<path d="M-4339.97 -15.7001l-0.69862 0.263081l0.14323 2.25079l-0.862315 0.0233899"/>
<path d="M-4341.39 -13.1628l-2.01695 -0.906165l-0.713236 -0.0701584"/>
<path d="M-4348.05 -13.5487l3.92866 -0.590472"/>
<path d="M-4258.46 6.0537l-1.04501 -0.619699l-3.59104 -1.3154l-3.16573 -0.602158l-1.10201 -0.795087l-1.35924 -0.473545l-3.29143 -2.02279l-2.66003 -2.37356l-1.00848 -0.33324l-0.581699 -0.36831l-0.719085 -0.806779l-0.894473 -0.806779l-1.1254 -0.36831"/>
<path d="M-4279 -4.83196l-1.06548 0.128619l-2.43934 0.55539l-1.30078 0.12277"/>
<path d="M-4235.79 12.6015l-0.939782 -0.339077l-1.93072 -0.415084l-1.21163 -0.532006l-0.754167 -0.584623l-2.31364 -2.51387l-0.353699 -0.268924l-0.527622 -0.157852l-0.992394 -0.0233842l-0.480853 -0.169539l-0.654776 -0.631392l-2.22449 -3.05758l-1.0757 -0.847699l-1.18971 -0.602164l-2.54603 -0.689852l-1.13417 -0.12277"/>
<path d="M-4254.12 1.64565l-0.868164 0.18708l-0.543698 0.578774l-0.192923 1.09324l-0.283541 0.724928l-0.70155 0.836012l-0.894473 0.689852l-0.856472 0.298158"/>
<path d="M-4223.91 20.0262l-0.78193 -0.0350764l-0.336158 -0.210469l-0.176847 -0.28646l-0.287925 -0.274773l-0.3917 -0.292314l-0.236773 -0.24554l-0.355159 -0.169539l-1.40748 -0.134462l-1.1137 -0.286465l-0.583158 -0.0643095l-1.00117 -0.344926l0.444312 -0.760011l1.55656 -1.18094l-1.93072 -3.91697l-0.805314 -1.13417l-1.18532 -1.04647"/>
<path d="M-4232.51 9.64328l-0.672317 0.157846l-1.4104 2.25664l-0.635775 0.496929l-0.565623 0.0467685"/>
<path d="M-4214.14 27.254l-2.05616 -1.23544l-1.47325 -1.1634l-2.37941 -2.51387l-1.59895 -2.68926l-0.542233 -0.43262"/>
<path d="M-4222.19 19.2194l-0.609472 0.12277l-0.470621 0.274773l-0.356618 0.268924l-0.285006 0.140311"/>
<path d="M-4274.73 6.88386l-0.882775 -0.169539l-1.03186 -0.415084l-1.01724 -0.268924"/>
<path d="M-4277.66 6.03031l-0.825779 0.274773l-0.317158 0.982166l0.271849 1.25109l0.552465 1.10494l0.513011 0.590466l0.533465 0.116927"/>
<path d="M-4262.79 8.47988l0.903246 -0.0467741l0.752697 -0.251383l0.723475 -0.356624l1.27886 -0.906165l0.670852 -0.86524"/>
<path d="M-4266.72 9.25743l-1.45717 -0.140311l-3.98713 -2.14556l-0.764394 -0.181231l-0.793622 -0.0116921"/>
<path d="M-4273.72 6.77863l-1.0114 0.105229"/>
<path d="M-4262.79 8.47988l-1.9351 -0.274773"/>
<path d="M-4264.72 8.20511l-0.47208 0.0409196l-1.52294 1.0114"/>
<path d="M-4263.09 26.5155l-0.580239 -0.0993859l-0.641624 -0.397538l-1.05378 -0.993859l-1.61794 -2.22741l-1.04648 -2.39695l-1.81233 -6.38992l-0.646008 -0.82432l-0.90324 -0.567082l-1.20871 -0.397543l-0.700085 -0.356618l-1.18386 -1.11663l-0.686933 -0.415084l-0.551006 -0.0760016"/>
<path d="M-4276.94 10.3507l1.21163 -0.0935426"/>
<path d="M-4258.6 29.9238l-0.28646 -0.0584663l-0.219237 -0.268924l-0.292309 -0.648933l-0.241156 -0.263076l-2.20549 -1.71294l-0.230924 -0.333234l-0.323007 -0.181236"/>
<path d="M-4263.09 26.5155l0.69716 -0.0584606"/>
<path d="M-4260.86 55.1795l2.40134 -0.28646l2.67465 0l0.505697 -0.035082l-0.0131572 -0.380002l-0.410695 -0.561239l-0.542238 -0.473545l-0.437004 -0.643084l-0.10377 -0.526157l0.0906182 -0.976323l-0.017541 -0.508621l-2.51241 -8.53548l0.0233842 -0.707393l0.359543 -1.01724l0.119851 -0.57878l-0.0292331 -0.572925l-0.242621 -1.04063l-0.0584606 -0.55539l0.257232 -0.672317l0.603623 -0.403387l0.685474 -0.350775l0.000339394 -0.000356364l0.508282 -0.537493l0.116921 -0.502778l-0.0789261 -0.426771l-0.131538 -0.409241l-0.0467685 -0.467696l0.175387 -2.22157l-0.207545 -1.04647l-0.641619 -1.00555l-0.254314 -0.0876937"/>
<path d="M-4258.6 29.9238l0.530546 -0.274773"/>
<path d="M-4265.41 51.7653l1.60333 1.47325l0.771697 0.888624l0.32885 0.567088l0.558314 0.456004l1.28909 0.0292275"/>
<path d="M-4424.92 198.377l0.770243 -0.36831l0.895932 -0.730777l1.00263 -0.216313l0.871088 -0.36831l0.520314 -1.15755l-0.119846 -1.55509l-0.710318 -0.812628l-0.891548 -0.631392l-0.653316 -1.02893l0.00584889 -1.2394l0.667927 -0.800936l2.06079 -1.53171l0.698625 -1.00555l1.74802 -3.34989l0.795087 -0.871088l2.73311 -2.26833l5.71761 -7.65855l4.16544 -3.63635l1.06401 -0.543698l2.18607 -0.763337l1.56428 -0.546221l7.11193 -2.48464l7.11485 -2.48465l7.11193 -2.49049l7.11193 -2.48465l7.11193 -2.49049l7.11778 -2.48465l7.11193 -2.48465l7.11485 -2.49049l5.20898 -1.81817l0.844497 -0.511993l2.51124 -1.52249l3.20373 -2.45541l3.37619 -2.58403l3.37619 -2.58403l3.37327 -2.57819l3.37912 -2.58988l3.37327 -2.58403l3.37911 -2.57819l3.37327 -2.58403l3.37327 -2.58403l2.82665 -3.29143l2.82373 -3.28558l2.82665 -3.29142l2.82372 -3.29143l2.82372 -3.29142l2.82811 -3.29143l2.82372 -3.29143l2.82226 -3.28558l2.27711 -2.65419l3.10726 -2.88218l0.893947 -1.0806l0.43607 -0.527118l0.735161 -1.96433l0.831628 -3.26804l1.69833 -6.6647l1.69833 -6.67054l1.69833 -6.67054l1.69833 -6.6647l0.716161 -2.79449l0.34931 -0.496929"/>
<path d="M-4424.92 198.377l-0.540773 -1.02893l-0.78193 -3.63635l-0.423852 -0.847699l-0.707393 -0.567088l-2.45103 -0.684009l-1.18532 -0.16369"/>
<path d="M-4431.01 191.449l-0.951474 0.286465l-0.618234 1.06985l0.0526117 0.362467l0.344926 1.11079l-0.0336113 0.619699l-0.43262 2.44372l-0.731603 2.2978l-0.0781002 0.245297l-1.04209 2.26834l-0.380002 1.1634l-0.131538 1.09909l0.0263087 2.03449l0.235307 1.15171l-0.0365414 0.549547l-0.431155 0.327391l-0.72055 0.12277l-0.268924 0.093537l-0.0321519 0.292314l0.00291879 0.713236l0.723475 3.65389l-0.344932 1.0874l-1.3797 1.34463l-0.448701 0.286465l-0.69716 0.327391l-0.342002 0.257232l-0.583164 1.09324l-0.404852 1.08155l-0.558314 4.18589l0.00438384 0.3917l-0.233848 0.233848l-0.789238 0.43262l-0.730777 0.228005l-0.685468 0.0526117l-0.629932 0.163695l-0.575855 0.596315l-0.273308 0.929549l0.0555362 3.36743l-0.605083 2.50803l-3.44781 7.20255l-0.539314 2.47295l-0.488162 1.10494l-1.04063 0.865245l-0.469161 1.18678l0.0686933 2.12218l0.456004 2.0988l0.688393 1.08155l1.34463 0.818471l-0.152003 0.912014l-0.874007 1.06986l-0.817012 1.31539l-0.146154 1.04063l0.0526174 1.12832l-0.0686933 1.0874l-0.510086 0.912008l-1.54177 1.01807l-0.609636 0.402561l-5.17976 2.06371l-2.36334 1.33294l-2.57818 2.37357l-1.05816 1.45571l-0.63724 1.5551l0.0409253 1.54925l1.27593 2.54311l0.28939 1.35048l-0.59924 1.12248l-1.30955 0.292309l-1.48786 0.0116921l-1.13563 0.286465l-0.603623 0.929549l-0.627008 2.7565l-0.406311 1.18678l-1.4601 1.54925l-1.63109 1.35048"/>
<path d="M-4543.66 227.134l1.18094 -0.578774l0.951474 -1.17509l0.82139 -1.30956l0.80386 -0.993853l4.40805 -2.02279l0.898857 -1.0114l0.0103741 -0.528872l0.00131798 -0.0674432l-0.342002 -0.333234l-0.507162 -0.327385l-0.49254 -0.572931l-0.152003 -0.485237l0 -1.04648l-0.0716178 -0.508621l-0.499854 -1.14001l-1.13563 -1.81233l-0.264541 -1.14001l0.105235 -0.43262l0.241156 -0.391695l0.188539 -0.438469l-0.0570012 -0.55539l-0.346385 -1.05817l-0.0540824 -0.438469l0 -0.567082l0.0935426 -0.496929l0.36831 -1.09909l0.0891588 -0.561239l-0.0672339 -0.619699l-0.324466 -1.08155l-0.00876768 -0.631392l-0.153463 -0.532006l-0.491086 -0.228005l-0.558314 -0.181231l-0.363926 -0.391695l0.00438384 -0.438469l0.439928 -1.52586l0.105235 -1.08155l-0.00146505 -0.55539l-0.134462 -0.502773l-0.362461 -0.409236l-0.932474 -0.385851l-0.343467 -0.315699l-0.127154 -1.18094l0.344926 -1.17509l0.119846 -0.98801l-0.796546 -0.613856l-2.14264 -0.567082l-0.920781 -0.479388l-0.386089 -0.201085"/>
<path d="M-4543.66 227.134l-1.06109 -0.216307l-2.38672 -1.28032l-1.16779 -0.36831l-1.15171 -0.0643095"/>
<path d="M-4549.43 225.205l-1.1444 0.0818448l-1.04355 0.304006l-0.84478 0.602158l-0.616775 0.912014l-0.656241 1.36802l-0.488156 1.42063l-0.00459313 0.0474416l-0.100642 1.03995l0.283541 0.70155l0.931014 1.28032l0.306925 0.724928l0.0190004 0.532006l-0.217772 1.0757l-0.00438384 0.526162l1.19701 2.50218l1.9731 0.210464"/>
<path d="M-4544.78 237.488l-0.624083 1.25109l-7.48024 9.92104l-0.211929 0.964625l0.49547 1.18678l0.767313 0.684009l2.53726 1.43817l0.939782 0.339083"/>
<path d="M-4544.78 237.488l-2.61034 0.321542l-2.44956 0.724928"/>
<path d="M-4533.19 242.276l0.361008 0.613851l0.941241 0.292314l1.15171 0.210464l0.973393 0.350769l1.02017 0.871088l1.82987 1.99356l1.14147 0.800936l1.53171 0.836006l1.47032 0.175387l1.45279 0.017541l1.48494 0.374159l1.43379 1.32124l1.18825 1.7714l1.40601 1.44986l2.10026 0.327391"/>
<path d="M-4533.19 242.276l-0.160771 0.0584606l-2.30487 0.298158l-0.61824 0.210464l-0.581699 0.286465l-0.475004 0.380002l-0.480853 0.795087l-0.580239 1.98187l-0.422387 0.894473l-0.890089 0.958782l-4.34959 3.33235l-2.31657 1.2394l-0.543698 0.491086l-0.445777 0.0409196l-1.00409 0.0292331"/>
<path d="M-4499.89 255.67l-0.347851 -0.18708l-0.806779 -0.596315l-0.441387 -0.210464l-2.85588 -2.81788l-1.56387 -0.777546"/>
<path d="M-4505.91 251.081l-2.04471 0.274773l-1.94972 1.15755l-3.79858 1.16925"/>
<path d="M-4484.54 280.981l-1.29787 -0.344926l-0.789238 -0.952933l-0.603623 -1.19555l-0.746853 -1.0757l-0.498389 -0.327391l-1.10348 -0.415079l-0.492545 -0.356624l-0.302541 -0.485232l-0.36831 -1.11663l-0.305466 -0.502778l-0.982166 -0.724928l-1.16632 -0.613856l-0.976318 -0.777546l-0.406311 -1.19848l-0.173549 -1.04948l-0.0120711 -0.0729923l-1.48056 -2.7828l-0.650392 -3.35573l-1.64863 -2.40864l0.0380008 -1.21601l1.30371 -2.3151l0.141771 -0.830163l-0.315699 -0.532006l-1.15025 -0.672317"/>
<path d="M-4498.53 255.658l-1.36217 0.0116921"/>
<path d="M-4476.65 281.881l-0.98801 -0.222156l-1.89126 -0.660619l-0.993859 -0.163695"/>
<path d="M-4484.54 280.981l2.63504 -0.095958l1.37839 -0.0501964"/>
<path d="M-4472.3 283.472l-1.04794 -1.03478l-0.61824 -0.450161l-0.609467 -0.286465l-0.586088 -0.0701527"/>
<path d="M-4476.65 281.881l0.57585 -0.0233842l0.913473 -0.227999"/>
</g>
<g stroke-width="0.5px" stroke="rgb(0,0,0)" fill="none">
<path d="M-4298.99 311.111l0 -424.242"/>
<path d="M-4412.12 311.111l0 -424.242"/>
<path d="M-4525.25 311.111l0 -424.242"/>
<path d="M-4214.14 -113.131l-395.96 0"/>
<path d="M-4214.14 -0l-395.96 0"/>
<path d="M-4214.14 113.131l-395.96 0"/>
<path d="M-4214.14 226.263l-395.96 0"/>
</g>
</g>
<g id="left" inkscape:label="left" transform="translate(346.676,-339.394)">
<g text-anchor="end" font-size="0.36cm" font-family="Arial" fill="rgb(51,51,51)">
<text x="-289.37" y="-0" dominant-baseline="middle">0<tspan dominant-baseline="middle" font-size="0.36cm" font-family="Arial" fill="rgb(51,51,51)"></tspan><tspan dominant-baseline="middle" font-size="0.36cm" font-family="Arial" fill="rgb(51,51,51)">N</tspan></text>
<text x="-289.37" y="113.131" dominant-baseline="middle">2<tspan dominant-baseline="middle" font-size="0.36cm" font-family="Arial" fill="rgb(51,51,51)"></tspan><tspan dominant-baseline="middle" font-size="0.36cm" font-family="Arial" fill="rgb(51,51,51)">S</tspan></text>
<text x="-289.37" y="226.263" dominant-baseline="middle">4<tspan dominant-baseline="middle" font-size="0.36cm" font-family="Arial" fill="rgb(51,51,51)"></tspan><tspan dominant-baseline="middle" font-size="0.36cm" font-family="Arial" fill="rgb(51,51,51)">S</tspan></text>
</g>
</g>
<g id="right" inkscape:label="right" transform="translate(769.572,-339.394)">
<g text-anchor="start" font-size="0.36cm" font-family="Arial" fill="rgb(51,51,51)">
<text x="-310.919" y="-0" dominant-baseline="middle">0<tspan dominant-baseline="middle" font-size="0.36cm" font-family="Arial" fill="rgb(51,51,51)"></tspan><tspan dominant-baseline="middle" font-size="0.36cm" font-family="Arial" fill="rgb(51,51,51)">N</tspan></text>
<text x="-310.919" y="113.131" dominant-baseline="middle">2<tspan dominant-baseline="middle" font-size="0.36cm" font-family="Arial" fill="rgb(51,51,51)"></tspan><tspan dominant-baseline="middle" font-size="0.36cm" font-family="Arial" fill="rgb(51,51,51)">S</tspan></text>
<text x="-310.919" y="226.263" dominant-baseline="middle">4<tspan dominant-baseline="middle" font-size="0.36cm" font-family="Arial" fill="rgb(51,51,51)"></tspan><tspan dominant-baseline="middle" font-size="0.36cm" font-family="Arial" fill="rgb(51,51,51)">S</tspan></text>
</g>
</g>
<g id="top" inkscape:label="top" transform="translate(4670.1,-462.402)">
<g text-anchor="middle" font-size="0.36cm" font-family="Arial" fill="rgb(51,51,51)">
<text x="-4298.99" y="7.18294" dominant-baseline="no-change">76<tspan dominant-baseline="no-change" font-size="0.36cm" font-family="Arial" fill="rgb(51,51,51)"></tspan><tspan dominant-baseline="no-change" font-size="0.36cm" font-family="Arial" fill="rgb(51,51,51)">W</tspan></text>
<text x="-4412.12" y="7.18294" dominant-baseline="no-change">78<tspan dominant-baseline="no-change" font-size="0.36cm" font-family="Arial" fill="rgb(51,51,51)"></tspan><tspan dominant-baseline="no-change" font-size="0.36cm" font-family="Arial" fill="rgb(51,51,51)">W</tspan></text>
<text x="-4525.25" y="7.18294" dominant-baseline="no-change">80<tspan dominant-baseline="no-change" font-size="0.36cm" font-family="Arial" fill="rgb(51,51,51)"></tspan><tspan dominant-baseline="no-change" font-size="0.36cm" font-family="Arial" fill="rgb(51,51,51)">W</tspan></text>
</g>
</g>
<g id="bottom" inkscape:label="bottom" transform="translate(4670.1,-24.6914)">
<g text-anchor="middle" font-size="0.36cm" font-family="Arial" fill="rgb(51,51,51)">
<text x="-4298.99" y="-0.897868" dominant-baseline="hanging">76<tspan dominant-baseline="hanging" font-size="0.36cm" font-family="Arial" fill="rgb(51,51,51)"></tspan><tspan dominant-baseline="hanging" font-size="0.36cm" font-family="Arial" fill="rgb(51,51,51)">W</tspan></text>
<text x="-4412.12" y="-0.897868" dominant-baseline="hanging">78<tspan dominant-baseline="hanging" font-size="0.36cm" font-family="Arial" fill="rgb(51,51,51)"></tspan><tspan dominant-baseline="hanging" font-size="0.36cm" font-family="Arial" fill="rgb(51,51,51)">W</tspan></text>
<text x="-4525.25" y="-0.897868" dominant-baseline="hanging">80<tspan dominant-baseline="hanging" font-size="0.36cm" font-family="Arial" fill="rgb(51,51,51)"></tspan><tspan dominant-baseline="hanging" font-size="0.36cm" font-family="Arial" fill="rgb(51,51,51)">W</tspan></text>
</g>
</g>
</g>
</g>
<g inkscape:groupmode="layer" inkscape:label="Coastline" id="Coastline"><title>Coastline</title>
<g id="Page0" inkscape:label="Page0">
<g id="drawing" inkscape:label="drawing" transform="translate(4670.1,-339.394)">
<g stroke-width="1px" stroke="rgb(51,51,51)" fill="none">
<path d="M-4610.1 311.111l0 -424.242l395.96 0l0 424.242l-395.96 0"/>
</g>
</g>
</g>
</g>
<g id="Clone of page" inkscape:label="Clone of page">
<g>
<g id="TextVisitor0" inkscape:label="TextVisitor0" transform="translate(60,-465.993)">
</g>
</g>
</g>
<g id="Clone for legend" inkscape:label="Clone for legend">
<g>
<g id="legend" inkscape:label="legend">
<g transform="translate(40,-16.9697)">
</g>
</g>
</g>
</g>
<g id="Page0" inkscape:label="Page0">
</g>
</g><!--ePage-->
</svg>
